<svg width="352" height="170" viewBox="0 0 352 170" fill="none" xmlns="http://www.w3.org/2000/svg">
<g clip-path="url(#clip0_68_7340)">
<rect width="352" height="170" fill="#A4DBF7"/>
<g opacity="0.16" filter="url(#filter0_f_68_7340)">
<path d="M39.1967 0H-26.1967C-33.9528 0 -36 6.40093 -36 9.80324V75.1967C-36 82.9528 -29.599 85 -26.1967 85H39.1967C46.9528 85 49 78.5701 49 75.1967V9.80324C49 2.04713 42.5702 0 39.1967 0ZM45.7418 9.80324V40.8565H8.14349V3.25815H39.1967C39.4562 3.25815 45.7418 3.34462 45.7418 9.80324ZM-26.1967 3.25815H4.85651V40.8565H-32.7419V9.80324C-32.7419 9.54374 -32.6554 3.25815 -26.1967 3.25815ZM-32.7419 75.1679V44.1146H4.85651V81.713H-26.1967C-26.8599 81.713 -32.7419 81.4824 -32.7419 75.1679ZM39.1967 81.713H8.14349V44.1146H45.7418V75.1679C45.7418 75.4274 45.6553 81.713 39.1967 81.713Z" fill="#0093D2"/>
<path d="M15.698 24.5084H38.159C39.5141 24.5084 40.6098 23.4127 40.6098 22.0575C40.6098 20.7024 39.5141 19.6067 38.159 19.6067H15.698C14.3429 19.6067 13.2472 20.7024 13.2472 22.0575C13.2472 23.4127 14.3429 24.5084 15.698 24.5084Z" fill="#0093D2"/>
<path d="M38.1878 60.4629H15.7268C14.3716 60.4629 13.276 61.5586 13.276 62.9137C13.276 64.2689 14.3716 65.3646 15.7268 65.3646H38.1878C39.5429 65.3646 40.6386 64.2689 40.6386 62.9137C40.6386 61.5586 39.5429 60.4629 38.1878 60.4629Z" fill="#0093D2"/>
<path d="M26.943 57.839C29.2043 57.839 31.0373 56.0059 31.0373 53.7447C31.0373 51.4835 29.2043 49.6504 26.943 49.6504C24.6818 49.6504 22.8488 51.4835 22.8488 53.7447C22.8488 56.0059 24.6818 57.839 26.943 57.839Z" fill="#0093D2"/>
<path d="M26.943 68.0461C24.6941 68.0461 22.8488 69.8626 22.8488 72.1404C22.8488 74.4182 24.6652 76.2347 26.943 76.2347C29.2209 76.2347 31.0373 74.4182 31.0373 72.1404C31.0373 69.8626 29.2209 68.0461 26.943 68.0461Z" fill="#0093D2"/>
</g>
<g opacity="0.16" filter="url(#filter1_f_68_7340)">
<path d="M39.1967 85H-26.1967C-33.9528 85 -36 91.4009 -36 94.8032V160.197C-36 167.953 -29.599 170 -26.1967 170H39.1967C46.9528 170 49 163.57 49 160.197V94.8032C49 87.0471 42.5702 85 39.1967 85ZM45.7418 94.8032V125.857H8.14349V88.2582H39.1967C39.4562 88.2582 45.7418 88.3446 45.7418 94.8032ZM-26.1967 88.2582H4.85651V125.857H-32.7419V94.8032C-32.7419 94.5437 -32.6554 88.2582 -26.1967 88.2582ZM-32.7419 160.168V129.115H4.85651V166.713H-26.1967C-26.8599 166.713 -32.7419 166.482 -32.7419 160.168ZM39.1967 166.713H8.14349V129.115H45.7418V160.168C45.7418 160.427 45.6553 166.713 39.1967 166.713Z" fill="#0093D2"/>
<path d="M15.698 109.508H38.159C39.5141 109.508 40.6098 108.413 40.6098 107.058C40.6098 105.702 39.5141 104.607 38.159 104.607H15.698C14.3429 104.607 13.2472 105.702 13.2472 107.058C13.2472 108.413 14.3429 109.508 15.698 109.508Z" fill="#0093D2"/>
<path d="M38.1878 145.463H15.7268C14.3716 145.463 13.276 146.559 13.276 147.914C13.276 149.269 14.3716 150.365 15.7268 150.365H38.1878C39.5429 150.365 40.6386 149.269 40.6386 147.914C40.6386 146.559 39.5429 145.463 38.1878 145.463Z" fill="#0093D2"/>
<path d="M26.943 142.839C29.2043 142.839 31.0373 141.006 31.0373 138.745C31.0373 136.484 29.2043 134.65 26.943 134.65C24.6818 134.65 22.8488 136.484 22.8488 138.745C22.8488 141.006 24.6818 142.839 26.943 142.839Z" fill="#0093D2"/>
<path d="M26.943 153.046C24.6941 153.046 22.8488 154.863 22.8488 157.14C22.8488 159.418 24.6652 161.235 26.943 161.235C29.2209 161.235 31.0373 159.418 31.0373 157.14C31.0373 154.863 29.2209 153.046 26.943 153.046Z" fill="#0093D2"/>
</g>
<g opacity="0.16" filter="url(#filter2_f_68_7340)">
<path d="M124.197 0H58.8033C51.0472 0 49 6.40093 49 9.80324V75.1967C49 82.9528 55.401 85 58.8033 85H124.197C131.953 85 134 78.5701 134 75.1967V9.80324C134 2.04713 127.57 0 124.197 0ZM130.742 9.80324V40.8565H93.1435V3.25815H124.197C124.456 3.25815 130.742 3.34462 130.742 9.80324ZM58.8033 3.25815H89.8565V40.8565H52.2581V9.80324C52.2581 9.54374 52.3446 3.25815 58.8033 3.25815ZM52.2581 75.1679V44.1146H89.8565V81.713H58.8033C58.1401 81.713 52.2581 81.4824 52.2581 75.1679ZM124.197 81.713H93.1435V44.1146H130.742V75.1679C130.742 75.4274 130.655 81.713 124.197 81.713Z" fill="#0093D2"/>
<path d="M74.5461 62.9428L80.774 56.7149C81.7255 55.7634 81.7255 54.2064 80.774 53.2549C79.8225 52.3034 78.2656 52.3034 77.3141 53.2549L71.0861 59.4828L64.8582 53.2549C63.9067 52.3034 62.3497 52.3034 61.3982 53.2549C60.4467 54.2064 60.4467 55.7634 61.3982 56.7149L67.5973 62.9428L61.3982 69.1419C60.4467 70.0934 60.4467 71.6504 61.3982 72.6019C61.8884 73.092 62.4939 73.3227 63.1282 73.3227C63.7625 73.3227 64.3968 73.092 64.8582 72.6019L71.0573 66.4028L77.2852 72.6019C77.7754 73.092 78.3809 73.3227 79.0152 73.3227C79.6495 73.3227 80.2839 73.092 80.7452 72.6019C81.6967 71.6504 81.6967 70.0934 80.7452 69.1419L74.5461 62.9428Z" fill="#0093D2"/>
<path d="M59.8417 24.5081H68.6358V33.3022C68.6358 34.6573 69.7314 35.753 71.0866 35.753C72.4417 35.753 73.5374 34.6573 73.5374 33.3022V24.5081H82.3315C83.6867 24.5081 84.7823 23.4124 84.7823 22.0573C84.7823 20.7021 83.6867 19.6065 82.3315 19.6065H73.5374V10.8124C73.5374 9.45725 72.4417 8.36157 71.0866 8.36157C69.7314 8.36157 68.6358 9.45725 68.6358 10.8124V19.6065H59.8417C58.4865 19.6065 57.3909 20.7021 57.3909 22.0573C57.3909 23.4124 58.4865 24.5081 59.8417 24.5081Z" fill="#0093D2"/>
<path d="M100.698 24.5084H123.159C124.514 24.5084 125.61 23.4127 125.61 22.0575C125.61 20.7024 124.514 19.6067 123.159 19.6067H100.698C99.3429 19.6067 98.2472 20.7024 98.2472 22.0575C98.2472 23.4127 99.3429 24.5084 100.698 24.5084Z" fill="#0093D2"/>
<path d="M123.188 60.4629H100.727C99.3716 60.4629 98.276 61.5586 98.276 62.9137C98.276 64.2689 99.3716 65.3646 100.727 65.3646H123.188C124.543 65.3646 125.639 64.2689 125.639 62.9137C125.639 61.5586 124.543 60.4629 123.188 60.4629Z" fill="#0093D2"/>
<path d="M111.943 57.839C114.204 57.839 116.037 56.0059 116.037 53.7447C116.037 51.4835 114.204 49.6504 111.943 49.6504C109.682 49.6504 107.849 51.4835 107.849 53.7447C107.849 56.0059 109.682 57.839 111.943 57.839Z" fill="#0093D2"/>
<path d="M111.943 68.0461C109.694 68.0461 107.849 69.8626 107.849 72.1404C107.849 74.4182 109.665 76.2347 111.943 76.2347C114.221 76.2347 116.037 74.4182 116.037 72.1404C116.037 69.8626 114.221 68.0461 111.943 68.0461Z" fill="#0093D2"/>
</g>
<g opacity="0.16" filter="url(#filter3_f_68_7340)">
<path d="M124.197 85H58.8033C51.0472 85 49 91.4009 49 94.8032V160.197C49 167.953 55.401 170 58.8033 170H124.197C131.953 170 134 163.57 134 160.197V94.8032C134 87.0471 127.57 85 124.197 85ZM130.742 94.8032V125.857H93.1435V88.2582H124.197C124.456 88.2582 130.742 88.3446 130.742 94.8032ZM58.8033 88.2582H89.8565V125.857H52.2581V94.8032C52.2581 94.5437 52.3446 88.2582 58.8033 88.2582ZM52.2581 160.168V129.115H89.8565V166.713H58.8033C58.1401 166.713 52.2581 166.482 52.2581 160.168ZM124.197 166.713H93.1435V129.115H130.742V160.168C130.742 160.427 130.655 166.713 124.197 166.713Z" fill="#0093D2"/>
<path d="M74.5461 147.943L80.774 141.715C81.7255 140.763 81.7255 139.206 80.774 138.255C79.8225 137.303 78.2656 137.303 77.3141 138.255L71.0861 144.483L64.8582 138.255C63.9067 137.303 62.3497 137.303 61.3982 138.255C60.4467 139.206 60.4467 140.763 61.3982 141.715L67.5973 147.943L61.3982 154.142C60.4467 155.093 60.4467 156.65 61.3982 157.602C61.8884 158.092 62.4939 158.323 63.1282 158.323C63.7625 158.323 64.3968 158.092 64.8582 157.602L71.0573 151.403L77.2852 157.602C77.7754 158.092 78.3809 158.323 79.0152 158.323C79.6495 158.323 80.2839 158.092 80.7452 157.602C81.6967 156.65 81.6967 155.093 80.7452 154.142L74.5461 147.943Z" fill="#0093D2"/>
<path d="M59.8417 109.508H68.6358V118.302C68.6358 119.657 69.7314 120.753 71.0866 120.753C72.4417 120.753 73.5374 119.657 73.5374 118.302V109.508H82.3315C83.6867 109.508 84.7823 108.412 84.7823 107.057C84.7823 105.702 83.6867 104.606 82.3315 104.606H73.5374V95.8124C73.5374 94.4572 72.4417 93.3616 71.0866 93.3616C69.7314 93.3616 68.6358 94.4572 68.6358 95.8124V104.606H59.8417C58.4865 104.606 57.3909 105.702 57.3909 107.057C57.3909 108.412 58.4865 109.508 59.8417 109.508Z" fill="#0093D2"/>
<path d="M100.698 109.508H123.159C124.514 109.508 125.61 108.413 125.61 107.058C125.61 105.702 124.514 104.607 123.159 104.607H100.698C99.3429 104.607 98.2472 105.702 98.2472 107.058C98.2472 108.413 99.3429 109.508 100.698 109.508Z" fill="#0093D2"/>
<path d="M123.188 145.463H100.727C99.3716 145.463 98.276 146.559 98.276 147.914C98.276 149.269 99.3716 150.365 100.727 150.365H123.188C124.543 150.365 125.639 149.269 125.639 147.914C125.639 146.559 124.543 145.463 123.188 145.463Z" fill="#0093D2"/>
<path d="M111.943 142.839C114.204 142.839 116.037 141.006 116.037 138.745C116.037 136.484 114.204 134.65 111.943 134.65C109.682 134.65 107.849 136.484 107.849 138.745C107.849 141.006 109.682 142.839 111.943 142.839Z" fill="#0093D2"/>
<path d="M111.943 153.046C109.694 153.046 107.849 154.863 107.849 157.14C107.849 159.418 109.665 161.235 111.943 161.235C114.221 161.235 116.037 159.418 116.037 157.14C116.037 154.863 114.221 153.046 111.943 153.046Z" fill="#0093D2"/>
</g>
<g opacity="0.16" filter="url(#filter4_f_68_7340)">
<path d="M209.197 0H143.803C136.047 0 134 6.40093 134 9.80324V75.1967C134 82.9528 140.401 85 143.803 85H209.197C216.953 85 219 78.5701 219 75.1967V9.80324C219 2.04713 212.57 0 209.197 0ZM215.742 9.80324V40.8565H178.143V3.25815H209.197C209.456 3.25815 215.742 3.34462 215.742 9.80324ZM143.803 3.25815H174.857V40.8565H137.258V9.80324C137.258 9.54374 137.345 3.25815 143.803 3.25815ZM137.258 75.1679V44.1146H174.857V81.713H143.803C143.14 81.713 137.258 81.4824 137.258 75.1679ZM209.197 81.713H178.143V44.1146H215.742V75.1679C215.742 75.4274 215.655 81.713 209.197 81.713Z" fill="#0093D2"/>
<path d="M159.546 62.9428L165.774 56.7149C166.726 55.7634 166.726 54.2064 165.774 53.2549C164.823 52.3034 163.266 52.3034 162.314 53.2549L156.086 59.4828L149.858 53.2549C148.907 52.3034 147.35 52.3034 146.398 53.2549C145.447 54.2064 145.447 55.7634 146.398 56.7149L152.597 62.9428L146.398 69.1419C145.447 70.0934 145.447 71.6504 146.398 72.6019C146.888 73.092 147.494 73.3227 148.128 73.3227C148.763 73.3227 149.397 73.092 149.858 72.6019L156.057 66.4028L162.285 72.6019C162.775 73.092 163.381 73.3227 164.015 73.3227C164.65 73.3227 165.284 73.092 165.745 72.6019C166.697 71.6504 166.697 70.0934 165.745 69.1419L159.546 62.9428Z" fill="#0093D2"/>
<path d="M144.842 24.5081H153.636V33.3022C153.636 34.6573 154.731 35.753 156.087 35.753C157.442 35.753 158.537 34.6573 158.537 33.3022V24.5081H167.332C168.687 24.5081 169.782 23.4124 169.782 22.0573C169.782 20.7021 168.687 19.6065 167.332 19.6065H158.537V10.8124C158.537 9.45725 157.442 8.36157 156.087 8.36157C154.731 8.36157 153.636 9.45725 153.636 10.8124V19.6065H144.842C143.487 19.6065 142.391 20.7021 142.391 22.0573C142.391 23.4124 143.487 24.5081 144.842 24.5081Z" fill="#0093D2"/>
<path d="M185.698 24.5084H208.159C209.514 24.5084 210.61 23.4127 210.61 22.0575C210.61 20.7024 209.514 19.6067 208.159 19.6067H185.698C184.343 19.6067 183.247 20.7024 183.247 22.0575C183.247 23.4127 184.343 24.5084 185.698 24.5084Z" fill="#0093D2"/>
<path d="M208.188 60.4629H185.727C184.372 60.4629 183.276 61.5586 183.276 62.9137C183.276 64.2689 184.372 65.3646 185.727 65.3646H208.188C209.543 65.3646 210.639 64.2689 210.639 62.9137C210.639 61.5586 209.543 60.4629 208.188 60.4629Z" fill="#0093D2"/>
<path d="M196.943 57.839C199.204 57.839 201.037 56.0059 201.037 53.7447C201.037 51.4835 199.204 49.6504 196.943 49.6504C194.682 49.6504 192.849 51.4835 192.849 53.7447C192.849 56.0059 194.682 57.839 196.943 57.839Z" fill="#0093D2"/>
<path d="M196.943 68.0461C194.694 68.0461 192.849 69.8626 192.849 72.1404C192.849 74.4182 194.665 76.2347 196.943 76.2347C199.221 76.2347 201.037 74.4182 201.037 72.1404C201.037 69.8626 199.221 68.0461 196.943 68.0461Z" fill="#0093D2"/>
</g>
<g opacity="0.16" filter="url(#filter5_f_68_7340)">
<path d="M209.197 85H143.803C136.047 85 134 91.4009 134 94.8032V160.197C134 167.953 140.401 170 143.803 170H209.197C216.953 170 219 163.57 219 160.197V94.8032C219 87.0471 212.57 85 209.197 85ZM215.742 94.8032V125.857H178.143V88.2582H209.197C209.456 88.2582 215.742 88.3446 215.742 94.8032ZM143.803 88.2582H174.857V125.857H137.258V94.8032C137.258 94.5437 137.345 88.2582 143.803 88.2582ZM137.258 160.168V129.115H174.857V166.713H143.803C143.14 166.713 137.258 166.482 137.258 160.168ZM209.197 166.713H178.143V129.115H215.742V160.168C215.742 160.427 215.655 166.713 209.197 166.713Z" fill="#0093D2"/>
<path d="M159.546 147.943L165.774 141.715C166.726 140.763 166.726 139.206 165.774 138.255C164.823 137.303 163.266 137.303 162.314 138.255L156.086 144.483L149.858 138.255C148.907 137.303 147.35 137.303 146.398 138.255C145.447 139.206 145.447 140.763 146.398 141.715L152.597 147.943L146.398 154.142C145.447 155.093 145.447 156.65 146.398 157.602C146.888 158.092 147.494 158.323 148.128 158.323C148.763 158.323 149.397 158.092 149.858 157.602L156.057 151.403L162.285 157.602C162.775 158.092 163.381 158.323 164.015 158.323C164.65 158.323 165.284 158.092 165.745 157.602C166.697 156.65 166.697 155.093 165.745 154.142L159.546 147.943Z" fill="#0093D2"/>
<path d="M144.842 109.508H153.636V118.302C153.636 119.657 154.731 120.753 156.087 120.753C157.442 120.753 158.537 119.657 158.537 118.302V109.508H167.332C168.687 109.508 169.782 108.412 169.782 107.057C169.782 105.702 168.687 104.606 167.332 104.606H158.537V95.8124C158.537 94.4572 157.442 93.3616 156.087 93.3616C154.731 93.3616 153.636 94.4572 153.636 95.8124V104.606H144.842C143.487 104.606 142.391 105.702 142.391 107.057C142.391 108.412 143.487 109.508 144.842 109.508Z" fill="#0093D2"/>
<path d="M185.698 109.508H208.159C209.514 109.508 210.61 108.413 210.61 107.058C210.61 105.702 209.514 104.607 208.159 104.607H185.698C184.343 104.607 183.247 105.702 183.247 107.058C183.247 108.413 184.343 109.508 185.698 109.508Z" fill="#0093D2"/>
<path d="M208.188 145.463H185.727C184.372 145.463 183.276 146.559 183.276 147.914C183.276 149.269 184.372 150.365 185.727 150.365H208.188C209.543 150.365 210.639 149.269 210.639 147.914C210.639 146.559 209.543 145.463 208.188 145.463Z" fill="#0093D2"/>
<path d="M196.943 142.839C199.204 142.839 201.037 141.006 201.037 138.745C201.037 136.484 199.204 134.65 196.943 134.65C194.682 134.65 192.849 136.484 192.849 138.745C192.849 141.006 194.682 142.839 196.943 142.839Z" fill="#0093D2"/>
<path d="M196.943 153.046C194.694 153.046 192.849 154.863 192.849 157.14C192.849 159.418 194.665 161.235 196.943 161.235C199.221 161.235 201.037 159.418 201.037 157.14C201.037 154.863 199.221 153.046 196.943 153.046Z" fill="#0093D2"/>
</g>
<g opacity="0.16" filter="url(#filter6_f_68_7340)">
<path d="M294.197 0H228.803C221.047 0 219 6.40093 219 9.80324V75.1967C219 82.9528 225.401 85 228.803 85H294.197C301.953 85 304 78.5701 304 75.1967V9.80324C304 2.04713 297.57 0 294.197 0ZM300.742 9.80324V40.8565H263.143V3.25815H294.197C294.456 3.25815 300.742 3.34462 300.742 9.80324ZM228.803 3.25815H259.857V40.8565H222.258V9.80324C222.258 9.54374 222.345 3.25815 228.803 3.25815ZM222.258 75.1679V44.1146H259.857V81.713H228.803C228.14 81.713 222.258 81.4824 222.258 75.1679ZM294.197 81.713H263.143V44.1146H300.742V75.1679C300.742 75.4274 300.655 81.713 294.197 81.713Z" fill="#0093D2"/>
<path d="M244.546 62.9428L250.774 56.7149C251.726 55.7634 251.726 54.2064 250.774 53.2549C249.823 52.3034 248.266 52.3034 247.314 53.2549L241.086 59.4828L234.858 53.2549C233.907 52.3034 232.35 52.3034 231.398 53.2549C230.447 54.2064 230.447 55.7634 231.398 56.7149L237.597 62.9428L231.398 69.1419C230.447 70.0934 230.447 71.6504 231.398 72.6019C231.888 73.092 232.494 73.3227 233.128 73.3227C233.763 73.3227 234.397 73.092 234.858 72.6019L241.057 66.4028L247.285 72.6019C247.775 73.092 248.381 73.3227 249.015 73.3227C249.65 73.3227 250.284 73.092 250.745 72.6019C251.697 71.6504 251.697 70.0934 250.745 69.1419L244.546 62.9428Z" fill="#0093D2"/>
<path d="M229.842 24.5081H238.636V33.3022C238.636 34.6573 239.731 35.753 241.087 35.753C242.442 35.753 243.537 34.6573 243.537 33.3022V24.5081H252.332C253.687 24.5081 254.782 23.4124 254.782 22.0573C254.782 20.7021 253.687 19.6065 252.332 19.6065H243.537V10.8124C243.537 9.45725 242.442 8.36157 241.087 8.36157C239.731 8.36157 238.636 9.45725 238.636 10.8124V19.6065H229.842C228.487 19.6065 227.391 20.7021 227.391 22.0573C227.391 23.4124 228.487 24.5081 229.842 24.5081Z" fill="#0093D2"/>
<path d="M270.698 24.5084H293.159C294.514 24.5084 295.61 23.4127 295.61 22.0575C295.61 20.7024 294.514 19.6067 293.159 19.6067H270.698C269.343 19.6067 268.247 20.7024 268.247 22.0575C268.247 23.4127 269.343 24.5084 270.698 24.5084Z" fill="#0093D2"/>
<path d="M293.188 60.4629H270.727C269.372 60.4629 268.276 61.5586 268.276 62.9137C268.276 64.2689 269.372 65.3646 270.727 65.3646H293.188C294.543 65.3646 295.639 64.2689 295.639 62.9137C295.639 61.5586 294.543 60.4629 293.188 60.4629Z" fill="#0093D2"/>
<path d="M281.943 57.839C284.204 57.839 286.037 56.0059 286.037 53.7447C286.037 51.4835 284.204 49.6504 281.943 49.6504C279.682 49.6504 277.849 51.4835 277.849 53.7447C277.849 56.0059 279.682 57.839 281.943 57.839Z" fill="#0093D2"/>
<path d="M281.943 68.0461C279.694 68.0461 277.849 69.8626 277.849 72.1404C277.849 74.4182 279.665 76.2347 281.943 76.2347C284.221 76.2347 286.037 74.4182 286.037 72.1404C286.037 69.8626 284.221 68.0461 281.943 68.0461Z" fill="#0093D2"/>
</g>
<g opacity="0.16" filter="url(#filter7_f_68_7340)">
<path d="M294.197 85H228.803C221.047 85 219 91.4009 219 94.8032V160.197C219 167.953 225.401 170 228.803 170H294.197C301.953 170 304 163.57 304 160.197V94.8032C304 87.0471 297.57 85 294.197 85ZM300.742 94.8032V125.857H263.143V88.2582H294.197C294.456 88.2582 300.742 88.3446 300.742 94.8032ZM228.803 88.2582H259.857V125.857H222.258V94.8032C222.258 94.5437 222.345 88.2582 228.803 88.2582ZM222.258 160.168V129.115H259.857V166.713H228.803C228.14 166.713 222.258 166.482 222.258 160.168ZM294.197 166.713H263.143V129.115H300.742V160.168C300.742 160.427 300.655 166.713 294.197 166.713Z" fill="#0093D2"/>
<path d="M244.546 147.943L250.774 141.715C251.726 140.763 251.726 139.206 250.774 138.255C249.823 137.303 248.266 137.303 247.314 138.255L241.086 144.483L234.858 138.255C233.907 137.303 232.35 137.303 231.398 138.255C230.447 139.206 230.447 140.763 231.398 141.715L237.597 147.943L231.398 154.142C230.447 155.093 230.447 156.65 231.398 157.602C231.888 158.092 232.494 158.323 233.128 158.323C233.763 158.323 234.397 158.092 234.858 157.602L241.057 151.403L247.285 157.602C247.775 158.092 248.381 158.323 249.015 158.323C249.65 158.323 250.284 158.092 250.745 157.602C251.697 156.65 251.697 155.093 250.745 154.142L244.546 147.943Z" fill="#0093D2"/>
<path d="M229.842 109.508H238.636V118.302C238.636 119.657 239.731 120.753 241.087 120.753C242.442 120.753 243.537 119.657 243.537 118.302V109.508H252.332C253.687 109.508 254.782 108.412 254.782 107.057C254.782 105.702 253.687 104.606 252.332 104.606H243.537V95.8124C243.537 94.4572 242.442 93.3616 241.087 93.3616C239.731 93.3616 238.636 94.4572 238.636 95.8124V104.606H229.842C228.487 104.606 227.391 105.702 227.391 107.057C227.391 108.412 228.487 109.508 229.842 109.508Z" fill="#0093D2"/>
<path d="M270.698 109.508H293.159C294.514 109.508 295.61 108.413 295.61 107.058C295.61 105.702 294.514 104.607 293.159 104.607H270.698C269.343 104.607 268.247 105.702 268.247 107.058C268.247 108.413 269.343 109.508 270.698 109.508Z" fill="#0093D2"/>
<path d="M293.188 145.463H270.727C269.372 145.463 268.276 146.559 268.276 147.914C268.276 149.269 269.372 150.365 270.727 150.365H293.188C294.543 150.365 295.639 149.269 295.639 147.914C295.639 146.559 294.543 145.463 293.188 145.463Z" fill="#0093D2"/>
<path d="M281.943 142.839C284.204 142.839 286.037 141.006 286.037 138.745C286.037 136.484 284.204 134.65 281.943 134.65C279.682 134.65 277.849 136.484 277.849 138.745C277.849 141.006 279.682 142.839 281.943 142.839Z" fill="#0093D2"/>
<path d="M281.943 153.046C279.694 153.046 277.849 154.863 277.849 157.14C277.849 159.418 279.665 161.235 281.943 161.235C284.221 161.235 286.037 159.418 286.037 157.14C286.037 154.863 284.221 153.046 281.943 153.046Z" fill="#0093D2"/>
</g>
<g opacity="0.16" filter="url(#filter8_f_68_7340)">
<path d="M379.197 0H313.803C306.047 0 304 6.40093 304 9.80324V75.1967C304 82.9528 310.401 85 313.803 85H379.197C386.953 85 389 78.5701 389 75.1967V9.80324C389 2.04713 382.57 0 379.197 0ZM385.742 9.80324V40.8565H348.143V3.25815H379.197C379.456 3.25815 385.742 3.34462 385.742 9.80324ZM313.803 3.25815H344.857V40.8565H307.258V9.80324C307.258 9.54374 307.345 3.25815 313.803 3.25815ZM307.258 75.1679V44.1146H344.857V81.713H313.803C313.14 81.713 307.258 81.4824 307.258 75.1679ZM379.197 81.713H348.143V44.1146H385.742V75.1679C385.742 75.4274 385.655 81.713 379.197 81.713Z" fill="#0093D2"/>
<path d="M329.546 62.9428L335.774 56.7149C336.726 55.7634 336.726 54.2064 335.774 53.2549C334.823 52.3034 333.266 52.3034 332.314 53.2549L326.086 59.4828L319.858 53.2549C318.907 52.3034 317.35 52.3034 316.398 53.2549C315.447 54.2064 315.447 55.7634 316.398 56.7149L322.597 62.9428L316.398 69.1419C315.447 70.0934 315.447 71.6504 316.398 72.6019C316.888 73.092 317.494 73.3227 318.128 73.3227C318.763 73.3227 319.397 73.092 319.858 72.6019L326.057 66.4028L332.285 72.6019C332.775 73.092 333.381 73.3227 334.015 73.3227C334.65 73.3227 335.284 73.092 335.745 72.6019C336.697 71.6504 336.697 70.0934 335.745 69.1419L329.546 62.9428Z" fill="#0093D2"/>
<path d="M314.842 24.5081H323.636V33.3022C323.636 34.6573 324.731 35.753 326.087 35.753C327.442 35.753 328.537 34.6573 328.537 33.3022V24.5081H337.332C338.687 24.5081 339.782 23.4124 339.782 22.0573C339.782 20.7021 338.687 19.6065 337.332 19.6065H328.537V10.8124C328.537 9.45725 327.442 8.36157 326.087 8.36157C324.731 8.36157 323.636 9.45725 323.636 10.8124V19.6065H314.842C313.487 19.6065 312.391 20.7021 312.391 22.0573C312.391 23.4124 313.487 24.5081 314.842 24.5081Z" fill="#0093D2"/>
</g>
<g opacity="0.16" filter="url(#filter9_f_68_7340)">
<path d="M379.197 85H313.803C306.047 85 304 91.4009 304 94.8032V160.197C304 167.953 310.401 170 313.803 170H379.197C386.953 170 389 163.57 389 160.197V94.8032C389 87.0471 382.57 85 379.197 85ZM385.742 94.8032V125.857H348.143V88.2582H379.197C379.456 88.2582 385.742 88.3446 385.742 94.8032ZM313.803 88.2582H344.857V125.857H307.258V94.8032C307.258 94.5437 307.345 88.2582 313.803 88.2582ZM307.258 160.168V129.115H344.857V166.713H313.803C313.14 166.713 307.258 166.482 307.258 160.168ZM379.197 166.713H348.143V129.115H385.742V160.168C385.742 160.427 385.655 166.713 379.197 166.713Z" fill="#0093D2"/>
<path d="M329.546 147.943L335.774 141.715C336.726 140.763 336.726 139.206 335.774 138.255C334.823 137.303 333.266 137.303 332.314 138.255L326.086 144.483L319.858 138.255C318.907 137.303 317.35 137.303 316.398 138.255C315.447 139.206 315.447 140.763 316.398 141.715L322.597 147.943L316.398 154.142C315.447 155.093 315.447 156.65 316.398 157.602C316.888 158.092 317.494 158.323 318.128 158.323C318.763 158.323 319.397 158.092 319.858 157.602L326.057 151.403L332.285 157.602C332.775 158.092 333.381 158.323 334.015 158.323C334.65 158.323 335.284 158.092 335.745 157.602C336.697 156.65 336.697 155.093 335.745 154.142L329.546 147.943Z" fill="#0093D2"/>
<path d="M314.842 109.508H323.636V118.302C323.636 119.657 324.731 120.753 326.087 120.753C327.442 120.753 328.537 119.657 328.537 118.302V109.508H337.332C338.687 109.508 339.782 108.412 339.782 107.057C339.782 105.702 338.687 104.606 337.332 104.606H328.537V95.8124C328.537 94.4572 327.442 93.3616 326.087 93.3616C324.731 93.3616 323.636 94.4572 323.636 95.8124V104.606H314.842C313.487 104.606 312.391 105.702 312.391 107.057C312.391 108.412 313.487 109.508 314.842 109.508Z" fill="#0093D2"/>
</g>
<path d="M209.197 43H143.803C136.047 43 134 49.4009 134 52.8032V118.197C134 125.953 140.401 128 143.803 128H209.197C216.953 128 219 121.57 219 118.197V52.8032C219 45.0471 212.57 43 209.197 43ZM215.742 52.8032V83.8565H178.143V46.2582H209.197C209.456 46.2582 215.742 46.3446 215.742 52.8032ZM143.803 46.2582H174.857V83.8565H137.258V52.8032C137.258 52.5437 137.345 46.2582 143.803 46.2582ZM137.258 118.168V87.1146H174.857V124.713H143.803C143.14 124.713 137.258 124.482 137.258 118.168ZM209.197 124.713H178.143V87.1146H215.742V118.168C215.742 118.427 215.655 124.713 209.197 124.713Z" fill="#0086BE"/>
<path d="M159.546 105.943L165.774 99.7149C166.726 98.7634 166.726 97.2064 165.774 96.2549C164.823 95.3034 163.266 95.3034 162.314 96.2549L156.086 102.483L149.858 96.2549C148.907 95.3034 147.35 95.3034 146.398 96.2549C145.447 97.2064 145.447 98.7634 146.398 99.7149L152.597 105.943L146.398 112.142C145.447 113.093 145.447 114.65 146.398 115.602C146.888 116.092 147.494 116.323 148.128 116.323C148.763 116.323 149.397 116.092 149.858 115.602L156.057 109.403L162.285 115.602C162.775 116.092 163.381 116.323 164.015 116.323C164.65 116.323 165.284 116.092 165.745 115.602C166.697 114.65 166.697 113.093 165.745 112.142L159.546 105.943Z" fill="#0086BE"/>
<path d="M144.842 67.5081H153.636V76.3022C153.636 77.6573 154.731 78.753 156.087 78.753C157.442 78.753 158.537 77.6573 158.537 76.3022V67.5081H167.332C168.687 67.5081 169.782 66.4124 169.782 65.0573C169.782 63.7021 168.687 62.6065 167.332 62.6065H158.537V53.8124C158.537 52.4572 157.442 51.3616 156.087 51.3616C154.731 51.3616 153.636 52.4572 153.636 53.8124V62.6065H144.842C143.487 62.6065 142.391 63.7021 142.391 65.0573C142.391 66.4124 143.487 67.5081 144.842 67.5081Z" fill="#0086BE"/>
<path d="M185.698 67.5084H208.159C209.514 67.5084 210.61 66.4127 210.61 65.0575C210.61 63.7024 209.514 62.6067 208.159 62.6067H185.698C184.343 62.6067 183.247 63.7024 183.247 65.0575C183.247 66.4127 184.343 67.5084 185.698 67.5084Z" fill="#0086BE"/>
<path d="M208.188 103.463H185.727C184.372 103.463 183.276 104.559 183.276 105.914C183.276 107.269 184.372 108.365 185.727 108.365H208.188C209.543 108.365 210.639 107.269 210.639 105.914C210.639 104.559 209.543 103.463 208.188 103.463Z" fill="#0086BE"/>
<path d="M196.943 100.839C199.204 100.839 201.037 99.0059 201.037 96.7447C201.037 94.4835 199.204 92.6504 196.943 92.6504C194.682 92.6504 192.849 94.4835 192.849 96.7447C192.849 99.0059 194.682 100.839 196.943 100.839Z" fill="#0086BE"/>
<path d="M196.943 111.046C194.694 111.046 192.849 112.863 192.849 115.14C192.849 117.418 194.665 119.235 196.943 119.235C199.221 119.235 201.037 117.418 201.037 115.14C201.037 112.863 199.221 111.046 196.943 111.046Z" fill="#0086BE"/>
</g>
<defs>
<filter id="filter0_f_68_7340" x="-40" y="-4" width="93" height="93" filterUnits="userSpaceOnUse" color-interpolation-filters="sRGB">
<feFlood flood-opacity="0" result="BackgroundImageFix"/>
<feBlend mode="normal" in="SourceGraphic" in2="BackgroundImageFix" result="shape"/>
<feGaussianBlur stdDeviation="2" result="effect1_foregroundBlur_68_7340"/>
</filter>
<filter id="filter1_f_68_7340" x="-40" y="81" width="93" height="93" filterUnits="userSpaceOnUse" color-interpolation-filters="sRGB">
<feFlood flood-opacity="0" result="BackgroundImageFix"/>
<feBlend mode="normal" in="SourceGraphic" in2="BackgroundImageFix" result="shape"/>
<feGaussianBlur stdDeviation="2" result="effect1_foregroundBlur_68_7340"/>
</filter>
<filter id="filter2_f_68_7340" x="45" y="-4" width="93" height="93" filterUnits="userSpaceOnUse" color-interpolation-filters="sRGB">
<feFlood flood-opacity="0" result="BackgroundImageFix"/>
<feBlend mode="normal" in="SourceGraphic" in2="BackgroundImageFix" result="shape"/>
<feGaussianBlur stdDeviation="2" result="effect1_foregroundBlur_68_7340"/>
</filter>
<filter id="filter3_f_68_7340" x="45" y="81" width="93" height="93" filterUnits="userSpaceOnUse" color-interpolation-filters="sRGB">
<feFlood flood-opacity="0" result="BackgroundImageFix"/>
<feBlend mode="normal" in="SourceGraphic" in2="BackgroundImageFix" result="shape"/>
<feGaussianBlur stdDeviation="2" result="effect1_foregroundBlur_68_7340"/>
</filter>
<filter id="filter4_f_68_7340" x="130" y="-4" width="93" height="93" filterUnits="userSpaceOnUse" color-interpolation-filters="sRGB">
<feFlood flood-opacity="0" result="BackgroundImageFix"/>
<feBlend mode="normal" in="SourceGraphic" in2="BackgroundImageFix" result="shape"/>
<feGaussianBlur stdDeviation="2" result="effect1_foregroundBlur_68_7340"/>
</filter>
<filter id="filter5_f_68_7340" x="130" y="81" width="93" height="93" filterUnits="userSpaceOnUse" color-interpolation-filters="sRGB">
<feFlood flood-opacity="0" result="BackgroundImageFix"/>
<feBlend mode="normal" in="SourceGraphic" in2="BackgroundImageFix" result="shape"/>
<feGaussianBlur stdDeviation="2" result="effect1_foregroundBlur_68_7340"/>
</filter>
<filter id="filter6_f_68_7340" x="215" y="-4" width="93" height="93" filterUnits="userSpaceOnUse" color-interpolation-filters="sRGB">
<feFlood flood-opacity="0" result="BackgroundImageFix"/>
<feBlend mode="normal" in="SourceGraphic" in2="BackgroundImageFix" result="shape"/>
<feGaussianBlur stdDeviation="2" result="effect1_foregroundBlur_68_7340"/>
</filter>
<filter id="filter7_f_68_7340" x="215" y="81" width="93" height="93" filterUnits="userSpaceOnUse" color-interpolation-filters="sRGB">
<feFlood flood-opacity="0" result="BackgroundImageFix"/>
<feBlend mode="normal" in="SourceGraphic" in2="BackgroundImageFix" result="shape"/>
<feGaussianBlur stdDeviation="2" result="effect1_foregroundBlur_68_7340"/>
</filter>
<filter id="filter8_f_68_7340" x="300" y="-4" width="93" height="93" filterUnits="userSpaceOnUse" color-interpolation-filters="sRGB">
<feFlood flood-opacity="0" result="BackgroundImageFix"/>
<feBlend mode="normal" in="SourceGraphic" in2="BackgroundImageFix" result="shape"/>
<feGaussianBlur stdDeviation="2" result="effect1_foregroundBlur_68_7340"/>
</filter>
<filter id="filter9_f_68_7340" x="300" y="81" width="93" height="93" filterUnits="userSpaceOnUse" color-interpolation-filters="sRGB">
<feFlood flood-opacity="0" result="BackgroundImageFix"/>
<feBlend mode="normal" in="SourceGraphic" in2="BackgroundImageFix" result="shape"/>
<feGaussianBlur stdDeviation="2" result="effect1_foregroundBlur_68_7340"/>
</filter>
<clipPath id="clip0_68_7340">
<rect width="352" height="170" fill="white"/>
</clipPath>
</defs>
</svg>
