<svg width="352" height="170" viewBox="0 0 352 170" fill="none" xmlns="http://www.w3.org/2000/svg">
<g clip-path="url(#clip0_68_7581)">
<rect width="352" height="170" fill="#A4DBF7"/>
<g opacity="0.16" filter="url(#filter0_f_68_7581)">
<path d="M-0.263117 54.9745C-0.061217 54.9745 0.140703 54.9457 0.342603 54.8592L1.87127 54.2535C2.70772 53.9074 3.11149 52.9555 2.79422 52.1191C2.44811 51.2827 1.49632 50.8789 0.659876 51.1961L-0.868815 51.8018C-1.70526 52.1479 -2.10906 53.0998 -1.79179 53.9362C-1.5322 54.5707 -0.926504 54.9745 -0.263117 54.9745Z" fill="#0093D2"/>
<path d="M29.2137 58.0032L27.685 57.3975C26.8486 57.0514 25.8967 57.4552 25.5506 58.3205C25.2045 59.1858 25.6083 60.1088 26.4736 60.4549L28.0023 61.0606C28.2042 61.1471 28.4061 61.176 28.608 61.176C29.2425 61.176 29.8771 60.801 30.1367 60.1376C30.4828 59.3012 30.079 58.3494 29.2137 58.0032Z" fill="#0093D2"/>
<path d="M36.0207 60.7143L34.492 60.1086C33.6556 59.7625 32.7038 60.1952 32.3576 61.0316C32.0115 61.868 32.4442 62.8199 33.2806 63.166L34.8093 63.7717C35.0112 63.8582 35.2131 63.887 35.415 63.887C36.0495 63.887 36.6841 63.4832 36.9437 62.8487C37.2898 62.0122 36.8572 61.0604 36.0207 60.7143Z" fill="#0093D2"/>
<path d="M15.5421 52.523L14.0135 51.9173C13.177 51.5712 12.2252 51.975 11.8791 52.8403C11.533 53.6767 11.9368 54.6285 12.8021 54.9747L14.3307 55.5804C14.5326 55.6669 14.7345 55.6957 14.9364 55.6957C15.571 55.6957 16.2055 55.3208 16.4651 54.6574C16.8112 53.8209 16.4074 52.8691 15.5421 52.523Z" fill="#0093D2"/>
<path d="M42.8567 63.4543L41.3281 62.8486C40.4916 62.5025 39.5398 62.9351 39.1937 63.7716C38.8476 64.608 39.2802 65.5598 40.1167 65.906L41.6453 66.5117C41.8472 66.5982 42.0492 66.627 42.2511 66.627C42.8856 66.627 43.5201 66.2232 43.7797 65.5887C44.1258 64.7522 43.6932 63.8004 42.8567 63.4543Z" fill="#0093D2"/>
<path d="M22.3783 55.2628L20.8497 54.6571C20.0132 54.3109 19.0614 54.7148 18.7153 55.5801C18.3692 56.4165 18.773 57.3683 19.6383 57.7144L21.1669 58.3201C21.3688 58.4066 21.5707 58.4355 21.7726 58.4355C22.4072 58.4355 23.0417 58.0605 23.3013 57.3971C23.6474 56.5607 23.2436 55.6089 22.3783 55.2628Z" fill="#0093D2"/>
<path d="M48.7404 17.1327C48.7404 17.1327 48.6827 17.0173 48.625 16.9596C48.452 16.7289 48.2501 16.527 47.9616 16.4404L7.12011 0.115374H7.09128C6.91822 0.0288455 6.74516 0 6.54326 0C6.54326 0 6.5144 0 6.48556 0H6.42791C6.25485 0 6.05294 0.0288455 5.87989 0.115374L-34.9617 16.4693C-35.2212 16.5847 -35.452 16.7577 -35.625 16.9885C-35.6539 17.0461 -35.7116 17.1038 -35.7404 17.1615C-35.8846 17.3923 -36 17.6807 -36 17.9691V67.002V67.0597C-36 67.2616 -36 67.4347 -35.8846 67.6366C-35.8846 67.6943 -35.7981 67.7231 -35.7693 67.7808C-35.6827 67.925 -35.5962 68.0404 -35.4808 68.1269C-35.3655 68.2423 -35.2501 68.3577 -35.1059 68.4442C-35.0482 68.4442 -35.0193 68.5307 -34.9905 68.5596L5.85101 84.8846C6.05291 84.9712 6.25483 85 6.45673 85C6.65863 85 6.86055 84.9712 7.06245 84.8846L47.904 68.5596C48.5097 68.3 48.9423 67.6943 48.9423 67.0309V17.9691C48.9423 17.6519 48.8269 17.3923 48.6827 17.1615L48.7404 17.1327ZM5.01459 3.95148C5.27418 4.4995 5.82217 4.87446 6.48556 4.87446C7.14895 4.87446 7.66812 4.4995 7.92771 3.95148L42.943 17.9691L8.1008 31.9002V31.0638C8.1008 30.1697 7.37971 29.4197 6.45673 29.4197C5.53376 29.4197 4.81271 30.1408 4.81271 31.0638V31.9002L-30.0295 17.9691L4.98576 3.95148H5.01459ZM-31.3851 65.7906C-31.6159 65.1849 -32.1927 64.8388 -32.7984 64.7811V20.3631L4.81271 35.4191V80.962L-31.2986 66.5117C-31.2986 66.281 -31.2986 66.0502 -31.414 65.7906H-31.3851ZM8.1008 80.9331V52.9267C8.73534 52.9267 9.36985 52.5229 9.6006 51.8884C9.94671 51.0519 9.54293 50.1001 8.67765 49.754L8.07193 49.5232V35.3902L45.6831 20.3342V65.8772L8.07193 80.9331H8.1008Z" fill="#0093D2"/>
<path d="M6.45713 12.2295C7.35126 12.2295 8.1012 11.5084 8.1012 10.5855V8.94141C8.1012 8.04728 7.3801 7.29736 6.45713 7.29736C5.53416 7.29736 4.81311 8.01843 4.81311 8.94141V10.5855C4.81311 11.4796 5.53416 12.2295 6.45713 12.2295Z" fill="#0093D2"/>
<path d="M6.45713 26.9392C7.35126 26.9392 8.1012 26.2182 8.1012 25.2952V23.6511C8.1012 22.757 7.3801 22.0071 6.45713 22.0071C5.53416 22.0071 4.81311 22.7282 4.81311 23.6511V25.2952C4.81311 26.1893 5.53416 26.9392 6.45713 26.9392Z" fill="#0093D2"/>
<path d="M6.45713 19.5842C7.35126 19.5842 8.1012 18.8632 8.1012 17.9402V16.2961C8.1012 15.402 7.3801 14.6521 6.45713 14.6521C5.53416 14.6521 4.81311 15.3732 4.81311 16.2961V17.9402C4.81311 18.8343 5.53416 19.5842 6.45713 19.5842Z" fill="#0093D2"/>
<path d="M-0.263117 139.974C-0.061217 139.974 0.140703 139.946 0.342603 139.859L1.87127 139.253C2.70772 138.907 3.11149 137.955 2.79422 137.119C2.44811 136.283 1.49632 135.879 0.659876 136.196L-0.868815 136.802C-1.70526 137.148 -2.10906 138.1 -1.79179 138.936C-1.5322 139.571 -0.926504 139.974 -0.263117 139.974Z" fill="#0093D2"/>
<path d="M29.2137 143.003L27.685 142.397C26.8486 142.051 25.8967 142.455 25.5506 143.32C25.2045 144.186 25.6083 145.109 26.4736 145.455L28.0023 146.06C28.2042 146.147 28.4061 146.176 28.608 146.176C29.2425 146.176 29.8771 145.801 30.1367 145.137C30.4828 144.301 30.079 143.349 29.2137 143.003Z" fill="#0093D2"/>
<path d="M36.0207 145.714L34.492 145.109C33.6556 144.763 32.7038 145.195 32.3576 146.032C32.0115 146.868 32.4442 147.82 33.2806 148.166L34.8093 148.772C35.0112 148.858 35.2131 148.887 35.415 148.887C36.0495 148.887 36.6841 148.483 36.9437 147.849C37.2898 147.012 36.8572 146.06 36.0207 145.714Z" fill="#0093D2"/>
<path d="M15.5421 137.523L14.0135 136.917C13.177 136.571 12.2252 136.975 11.8791 137.84C11.533 138.677 11.9368 139.628 12.8021 139.975L14.3307 140.58C14.5326 140.667 14.7345 140.696 14.9364 140.696C15.571 140.696 16.2055 140.321 16.4651 139.657C16.8112 138.821 16.4074 137.869 15.5421 137.523Z" fill="#0093D2"/>
<path d="M42.8567 148.454L41.3281 147.849C40.4916 147.503 39.5398 147.935 39.1937 148.772C38.8476 149.608 39.2802 150.56 40.1167 150.906L41.6453 151.512C41.8472 151.598 42.0492 151.627 42.2511 151.627C42.8856 151.627 43.5201 151.223 43.7797 150.589C44.1258 149.752 43.6932 148.8 42.8567 148.454Z" fill="#0093D2"/>
<path d="M22.3783 140.263L20.8497 139.657C20.0132 139.311 19.0614 139.715 18.7153 140.58C18.3692 141.417 18.773 142.368 19.6383 142.715L21.1669 143.32C21.3688 143.407 21.5707 143.436 21.7726 143.436C22.4072 143.436 23.0417 143.061 23.3013 142.397C23.6474 141.561 23.2436 140.609 22.3783 140.263Z" fill="#0093D2"/>
<path d="M48.7404 102.133C48.7404 102.133 48.6827 102.017 48.625 101.96C48.452 101.729 48.2501 101.527 47.9616 101.44L7.12011 85.1154H7.09128C6.91822 85.0288 6.74516 85 6.54326 85C6.54326 85 6.5144 85 6.48556 85H6.42791C6.25485 85 6.05294 85.0288 5.87989 85.1154L-34.9617 101.469C-35.2212 101.585 -35.452 101.758 -35.625 101.988C-35.6539 102.046 -35.7116 102.104 -35.7404 102.162C-35.8846 102.392 -36 102.681 -36 102.969V152.002V152.06C-36 152.262 -36 152.435 -35.8846 152.637C-35.8846 152.694 -35.7981 152.723 -35.7693 152.781C-35.6827 152.925 -35.5962 153.04 -35.4808 153.127C-35.3655 153.242 -35.2501 153.358 -35.1059 153.444C-35.0482 153.444 -35.0193 153.531 -34.9905 153.56L5.85101 169.885C6.05291 169.971 6.25483 170 6.45673 170C6.65863 170 6.86055 169.971 7.06245 169.885L47.904 153.56C48.5097 153.3 48.9423 152.694 48.9423 152.031V102.969C48.9423 102.652 48.8269 102.392 48.6827 102.162L48.7404 102.133ZM5.01459 88.9515C5.27418 89.4995 5.82217 89.8745 6.48556 89.8745C7.14895 89.8745 7.66812 89.4995 7.92771 88.9515L42.943 102.969L8.1008 116.9V116.064C8.1008 115.17 7.37971 114.42 6.45673 114.42C5.53376 114.42 4.81271 115.141 4.81271 116.064V116.9L-30.0295 102.969L4.98576 88.9515H5.01459ZM-31.3851 150.791C-31.6159 150.185 -32.1927 149.839 -32.7984 149.781V105.363L4.81271 120.419V165.962L-31.2986 151.512C-31.2986 151.281 -31.2986 151.05 -31.414 150.791H-31.3851ZM8.1008 165.933V137.927C8.73534 137.927 9.36985 137.523 9.6006 136.888C9.94671 136.052 9.54293 135.1 8.67765 134.754L8.07193 134.523V120.39L45.6831 105.334V150.877L8.07193 165.933H8.1008Z" fill="#0093D2"/>
<path d="M6.45713 97.2295C7.35126 97.2295 8.1012 96.5084 8.1012 95.5855V93.9414C8.1012 93.0473 7.3801 92.2974 6.45713 92.2974C5.53416 92.2974 4.81311 93.0184 4.81311 93.9414V95.5855C4.81311 96.4796 5.53416 97.2295 6.45713 97.2295Z" fill="#0093D2"/>
<path d="M6.45713 111.939C7.35126 111.939 8.1012 111.218 8.1012 110.295V108.651C8.1012 107.757 7.3801 107.007 6.45713 107.007C5.53416 107.007 4.81311 107.728 4.81311 108.651V110.295C4.81311 111.189 5.53416 111.939 6.45713 111.939Z" fill="#0093D2"/>
<path d="M6.45713 104.584C7.35126 104.584 8.1012 103.863 8.1012 102.94V101.296C8.1012 100.402 7.3801 99.6521 6.45713 99.6521C5.53416 99.6521 4.81311 100.373 4.81311 101.296V102.94C4.81311 103.834 5.53416 104.584 6.45713 104.584Z" fill="#0093D2"/>
<path d="M84.7369 54.9745C84.9388 54.9745 85.1407 54.9457 85.3426 54.8592L86.8713 54.2535C87.7077 53.9074 88.1115 52.9555 87.7942 52.1191C87.4481 51.2827 86.4963 50.8789 85.6599 51.1961L84.1312 51.8018C83.2947 52.1479 82.8909 53.0998 83.2082 53.9362C83.4678 54.5707 84.0735 54.9745 84.7369 54.9745Z" fill="#0093D2"/>
<path d="M64.2581 63.1945C64.46 63.1945 64.6619 63.1657 64.8638 63.0792L66.3925 62.4735C67.2289 62.1273 67.6327 61.1755 67.3155 60.3391C66.9693 59.5026 66.0175 59.0988 65.1811 59.4161L63.6524 60.0218C62.816 60.3679 62.4122 61.3197 62.7295 62.1562C62.989 62.7907 63.5947 63.1945 64.2581 63.1945Z" fill="#0093D2"/>
<path d="M77.9008 57.7148C78.1027 57.7148 78.3046 57.6859 78.5065 57.5994L80.0352 56.9937C80.8716 56.6476 81.2754 55.6958 80.9582 54.8594C80.612 54.0229 79.6602 53.6191 78.8238 53.9364L77.2951 54.5421C76.4587 54.8882 76.0549 55.84 76.3722 56.6764C76.6317 57.311 77.2374 57.7148 77.9008 57.7148Z" fill="#0093D2"/>
<path d="M71.0942 60.4548C71.2961 60.4548 71.498 60.4259 71.6999 60.3394L73.2286 59.7337C74.065 59.3876 74.4688 58.4358 74.1515 57.5993C73.8343 56.7629 72.8536 56.3591 72.0172 56.6764L70.4885 57.2821C69.6521 57.6282 69.2482 58.58 69.5944 59.4164C69.8539 60.051 70.4596 60.4548 71.123 60.4548H71.0942Z" fill="#0093D2"/>
<path d="M57.4221 65.9059C57.624 65.9059 57.8259 65.8771 58.0278 65.7906L59.5565 65.1849C60.3929 64.8387 60.7967 63.8869 60.4794 63.0505C60.1333 62.2141 59.1815 61.8103 58.3451 62.1275L56.8164 62.7332C55.9799 63.0793 55.5761 64.0311 55.8934 64.8676C56.153 65.5021 56.7587 65.9059 57.4221 65.9059Z" fill="#0093D2"/>
<path d="M114.214 58.0032L112.685 57.3975C111.849 57.0514 110.897 57.4552 110.551 58.3205C110.204 59.1858 110.608 60.1088 111.474 60.4549L113.002 61.0606C113.204 61.1471 113.406 61.176 113.608 61.176C114.243 61.176 114.877 60.801 115.137 60.1376C115.483 59.3012 115.079 58.3494 114.214 58.0032Z" fill="#0093D2"/>
<path d="M121.021 60.7143L119.492 60.1086C118.656 59.7625 117.704 60.1952 117.358 61.0316C117.012 61.868 117.444 62.8199 118.281 63.166L119.809 63.7717C120.011 63.8582 120.213 63.887 120.415 63.887C121.05 63.887 121.684 63.4832 121.944 62.8487C122.29 62.0122 121.857 61.0604 121.021 60.7143Z" fill="#0093D2"/>
<path d="M100.542 52.523L99.0135 51.9173C98.177 51.5712 97.2252 51.975 96.8791 52.8403C96.533 53.6767 96.9368 54.6285 97.8021 54.9747L99.3307 55.5804C99.5326 55.6669 99.7345 55.6957 99.9364 55.6957C100.571 55.6957 101.206 55.3208 101.465 54.6574C101.811 53.8209 101.407 52.8691 100.542 52.523Z" fill="#0093D2"/>
<path d="M127.857 63.4543L126.328 62.8486C125.492 62.5025 124.54 62.9351 124.194 63.7716C123.848 64.608 124.28 65.5598 125.117 65.906L126.645 66.5117C126.847 66.5982 127.049 66.627 127.251 66.627C127.886 66.627 128.52 66.2232 128.78 65.5887C129.126 64.7522 128.693 63.8004 127.857 63.4543Z" fill="#0093D2"/>
<path d="M107.378 55.2628L105.85 54.6571C105.013 54.3109 104.061 54.7148 103.715 55.5801C103.369 56.4165 103.773 57.3683 104.638 57.7144L106.167 58.3201C106.369 58.4066 106.571 58.4355 106.773 58.4355C107.407 58.4355 108.042 58.0605 108.301 57.3971C108.647 56.5607 108.244 55.6089 107.378 55.2628Z" fill="#0093D2"/>
<path d="M133.74 17.1327C133.74 17.1327 133.683 17.0173 133.625 16.9596C133.452 16.7289 133.25 16.527 132.962 16.4404L92.1201 0.115374H92.0913C91.9182 0.0288455 91.7452 0 91.5433 0C91.5433 0 91.5144 0 91.4856 0H91.4279C91.2548 0 91.0529 0.0288455 90.8799 0.115374L50.0383 16.4693C49.7788 16.5847 49.548 16.7577 49.375 16.9885C49.3461 17.0461 49.2884 17.1038 49.2596 17.1615C49.1154 17.3923 49 17.6807 49 17.9691V67.002V67.0597C49 67.2616 49 67.4347 49.1154 67.6366C49.1154 67.6943 49.2019 67.7231 49.2307 67.7808C49.3173 67.925 49.4038 68.0404 49.5192 68.1269C49.6345 68.2423 49.7499 68.3577 49.8941 68.4442C49.9518 68.4442 49.9807 68.5307 50.0095 68.5596L90.851 84.8846C91.0529 84.9712 91.2548 85 91.4567 85C91.6586 85 91.8606 84.9712 92.0625 84.8846L132.904 68.5596C133.51 68.3 133.942 67.6943 133.942 67.0309V17.9691C133.942 17.6519 133.827 17.3923 133.683 17.1615L133.74 17.1327ZM90.0146 3.95148C90.2742 4.4995 90.8222 4.87446 91.4856 4.87446C92.1489 4.87446 92.6681 4.4995 92.9277 3.95148L127.943 17.9691L93.1008 31.9002V31.0638C93.1008 30.1697 92.3797 29.4197 91.4567 29.4197C90.5338 29.4197 89.8127 30.1408 89.8127 31.0638V31.9002L54.9705 17.9691L89.9858 3.95148H90.0146ZM53.6149 65.7906C53.3841 65.1849 52.8073 64.8388 52.2016 64.7811V20.3631L89.8127 35.4191V80.962L53.7014 66.5117C53.7014 66.281 53.7014 66.0502 53.586 65.7906H53.6149ZM93.1008 80.9331V52.9267C93.7353 52.9267 94.3699 52.5229 94.6006 51.8884C94.9467 51.0519 94.5429 50.1001 93.6777 49.754L93.0719 49.5232V35.3902L130.683 20.3342V65.8772L93.0719 80.9331H93.1008Z" fill="#0093D2"/>
<path d="M91.4571 12.2295C92.3513 12.2295 93.1012 11.5084 93.1012 10.5855V8.94141C93.1012 8.04728 92.3801 7.29736 91.4571 7.29736C90.5342 7.29736 89.8131 8.01843 89.8131 8.94141V10.5855C89.8131 11.4796 90.5342 12.2295 91.4571 12.2295Z" fill="#0093D2"/>
<path d="M91.4571 26.9392C92.3513 26.9392 93.1012 26.2182 93.1012 25.2952V23.6511C93.1012 22.757 92.3801 22.0071 91.4571 22.0071C90.5342 22.0071 89.8131 22.7282 89.8131 23.6511V25.2952C89.8131 26.1893 90.5342 26.9392 91.4571 26.9392Z" fill="#0093D2"/>
<path d="M91.4571 19.5842C92.3513 19.5842 93.1012 18.8632 93.1012 17.9402V16.2961C93.1012 15.402 92.3801 14.6521 91.4571 14.6521C90.5342 14.6521 89.8131 15.3732 89.8131 16.2961V17.9402C89.8131 18.8343 90.5342 19.5842 91.4571 19.5842Z" fill="#0093D2"/>
<path d="M84.7369 139.974C84.9388 139.974 85.1407 139.946 85.3426 139.859L86.8713 139.253C87.7077 138.907 88.1115 137.955 87.7942 137.119C87.4481 136.283 86.4963 135.879 85.6599 136.196L84.1312 136.802C83.2947 137.148 82.8909 138.1 83.2082 138.936C83.4678 139.571 84.0735 139.974 84.7369 139.974Z" fill="#0093D2"/>
<path d="M64.2581 148.195C64.46 148.195 64.6619 148.166 64.8638 148.079L66.3925 147.474C67.2289 147.127 67.6327 146.176 67.3155 145.339C66.9693 144.503 66.0175 144.099 65.1811 144.416L63.6524 145.022C62.816 145.368 62.4122 146.32 62.7295 147.156C62.989 147.791 63.5947 148.195 64.2581 148.195Z" fill="#0093D2"/>
<path d="M77.9008 142.715C78.1027 142.715 78.3046 142.686 78.5065 142.599L80.0352 141.994C80.8716 141.648 81.2754 140.696 80.9582 139.859C80.612 139.023 79.6602 138.619 78.8238 138.936L77.2951 139.542C76.4587 139.888 76.0549 140.84 76.3722 141.676C76.6317 142.311 77.2374 142.715 77.9008 142.715Z" fill="#0093D2"/>
<path d="M71.0942 145.455C71.2961 145.455 71.498 145.426 71.6999 145.339L73.2286 144.734C74.065 144.387 74.4688 143.436 74.1515 142.599C73.8343 141.763 72.8536 141.359 72.0172 141.676L70.4885 142.282C69.6521 142.628 69.2482 143.58 69.5944 144.416C69.8539 145.051 70.4596 145.455 71.123 145.455H71.0942Z" fill="#0093D2"/>
<path d="M57.4221 150.906C57.624 150.906 57.8259 150.877 58.0278 150.791L59.5565 150.185C60.3929 149.839 60.7967 148.887 60.4794 148.051C60.1333 147.214 59.1815 146.81 58.3451 147.128L56.8164 147.733C55.9799 148.079 55.5761 149.031 55.8934 149.868C56.153 150.502 56.7587 150.906 57.4221 150.906Z" fill="#0093D2"/>
<path d="M114.214 143.003L112.685 142.397C111.849 142.051 110.897 142.455 110.551 143.32C110.204 144.186 110.608 145.109 111.474 145.455L113.002 146.06C113.204 146.147 113.406 146.176 113.608 146.176C114.243 146.176 114.877 145.801 115.137 145.137C115.483 144.301 115.079 143.349 114.214 143.003Z" fill="#0093D2"/>
<path d="M121.021 145.714L119.492 145.109C118.656 144.763 117.704 145.195 117.358 146.032C117.012 146.868 117.444 147.82 118.281 148.166L119.809 148.772C120.011 148.858 120.213 148.887 120.415 148.887C121.05 148.887 121.684 148.483 121.944 147.849C122.29 147.012 121.857 146.06 121.021 145.714Z" fill="#0093D2"/>
<path d="M100.542 137.523L99.0135 136.917C98.177 136.571 97.2252 136.975 96.8791 137.84C96.533 138.677 96.9368 139.628 97.8021 139.975L99.3307 140.58C99.5326 140.667 99.7345 140.696 99.9364 140.696C100.571 140.696 101.206 140.321 101.465 139.657C101.811 138.821 101.407 137.869 100.542 137.523Z" fill="#0093D2"/>
<path d="M127.857 148.454L126.328 147.849C125.492 147.503 124.54 147.935 124.194 148.772C123.848 149.608 124.28 150.56 125.117 150.906L126.645 151.512C126.847 151.598 127.049 151.627 127.251 151.627C127.886 151.627 128.52 151.223 128.78 150.589C129.126 149.752 128.693 148.8 127.857 148.454Z" fill="#0093D2"/>
<path d="M107.378 140.263L105.85 139.657C105.013 139.311 104.061 139.715 103.715 140.58C103.369 141.417 103.773 142.368 104.638 142.715L106.167 143.32C106.369 143.407 106.571 143.436 106.773 143.436C107.407 143.436 108.042 143.061 108.301 142.397C108.647 141.561 108.244 140.609 107.378 140.263Z" fill="#0093D2"/>
<path d="M133.74 102.133C133.74 102.133 133.683 102.017 133.625 101.96C133.452 101.729 133.25 101.527 132.962 101.44L92.1201 85.1154H92.0913C91.9182 85.0288 91.7452 85 91.5433 85C91.5433 85 91.5144 85 91.4856 85H91.4279C91.2548 85 91.0529 85.0288 90.8799 85.1154L50.0383 101.469C49.7788 101.585 49.548 101.758 49.375 101.988C49.3461 102.046 49.2884 102.104 49.2596 102.162C49.1154 102.392 49 102.681 49 102.969V152.002V152.06C49 152.262 49 152.435 49.1154 152.637C49.1154 152.694 49.2019 152.723 49.2307 152.781C49.3173 152.925 49.4038 153.04 49.5192 153.127C49.6345 153.242 49.7499 153.358 49.8941 153.444C49.9518 153.444 49.9807 153.531 50.0095 153.56L90.851 169.885C91.0529 169.971 91.2548 170 91.4567 170C91.6586 170 91.8606 169.971 92.0625 169.885L132.904 153.56C133.51 153.3 133.942 152.694 133.942 152.031V102.969C133.942 102.652 133.827 102.392 133.683 102.162L133.74 102.133ZM90.0146 88.9515C90.2742 89.4995 90.8222 89.8745 91.4856 89.8745C92.1489 89.8745 92.6681 89.4995 92.9277 88.9515L127.943 102.969L93.1008 116.9V116.064C93.1008 115.17 92.3797 114.42 91.4567 114.42C90.5338 114.42 89.8127 115.141 89.8127 116.064V116.9L54.9705 102.969L89.9858 88.9515H90.0146ZM53.6149 150.791C53.3841 150.185 52.8073 149.839 52.2016 149.781V105.363L89.8127 120.419V165.962L53.7014 151.512C53.7014 151.281 53.7014 151.05 53.586 150.791H53.6149ZM93.1008 165.933V137.927C93.7353 137.927 94.3699 137.523 94.6006 136.888C94.9467 136.052 94.5429 135.1 93.6777 134.754L93.0719 134.523V120.39L130.683 105.334V150.877L93.0719 165.933H93.1008Z" fill="#0093D2"/>
<path d="M91.4571 97.2295C92.3513 97.2295 93.1012 96.5084 93.1012 95.5855V93.9414C93.1012 93.0473 92.3801 92.2974 91.4571 92.2974C90.5342 92.2974 89.8131 93.0184 89.8131 93.9414V95.5855C89.8131 96.4796 90.5342 97.2295 91.4571 97.2295Z" fill="#0093D2"/>
<path d="M91.4571 111.939C92.3513 111.939 93.1012 111.218 93.1012 110.295V108.651C93.1012 107.757 92.3801 107.007 91.4571 107.007C90.5342 107.007 89.8131 107.728 89.8131 108.651V110.295C89.8131 111.189 90.5342 111.939 91.4571 111.939Z" fill="#0093D2"/>
<path d="M91.4571 104.584C92.3513 104.584 93.1012 103.863 93.1012 102.94V101.296C93.1012 100.402 92.3801 99.6521 91.4571 99.6521C90.5342 99.6521 89.8131 100.373 89.8131 101.296V102.94C89.8131 103.834 90.5342 104.584 91.4571 104.584Z" fill="#0093D2"/>
<path d="M169.737 54.9745C169.939 54.9745 170.141 54.9457 170.343 54.8592L171.871 54.2535C172.708 53.9074 173.111 52.9555 172.794 52.1191C172.448 51.2827 171.496 50.8789 170.66 51.1961L169.131 51.8018C168.295 52.1479 167.891 53.0998 168.208 53.9362C168.468 54.5707 169.073 54.9745 169.737 54.9745Z" fill="#0093D2"/>
<path d="M149.258 63.1945C149.46 63.1945 149.662 63.1657 149.864 63.0792L151.392 62.4735C152.229 62.1273 152.633 61.1755 152.315 60.3391C151.969 59.5026 151.018 59.0988 150.181 59.4161L148.652 60.0218C147.816 60.3679 147.412 61.3197 147.729 62.1562C147.989 62.7907 148.595 63.1945 149.258 63.1945Z" fill="#0093D2"/>
<path d="M162.901 57.7148C163.103 57.7148 163.305 57.6859 163.507 57.5994L165.035 56.9937C165.872 56.6476 166.275 55.6958 165.958 54.8594C165.612 54.0229 164.66 53.6191 163.824 53.9364L162.295 54.5421C161.459 54.8882 161.055 55.84 161.372 56.6764C161.632 57.311 162.237 57.7148 162.901 57.7148Z" fill="#0093D2"/>
<path d="M156.094 60.4548C156.296 60.4548 156.498 60.4259 156.7 60.3394L158.229 59.7337C159.065 59.3876 159.469 58.4358 159.152 57.5993C158.834 56.7629 157.854 56.3591 157.017 56.6764L155.489 57.2821C154.652 57.6282 154.248 58.58 154.594 59.4164C154.854 60.051 155.46 60.4548 156.123 60.4548H156.094Z" fill="#0093D2"/>
<path d="M142.422 65.9059C142.624 65.9059 142.826 65.8771 143.028 65.7906L144.556 65.1849C145.393 64.8387 145.797 63.8869 145.479 63.0505C145.133 62.2141 144.182 61.8103 143.345 62.1275L141.816 62.7332C140.98 63.0793 140.576 64.0311 140.893 64.8676C141.153 65.5021 141.759 65.9059 142.422 65.9059Z" fill="#0093D2"/>
<path d="M199.214 58.0032L197.685 57.3975C196.849 57.0514 195.897 57.4552 195.551 58.3205C195.204 59.1858 195.608 60.1088 196.474 60.4549L198.002 61.0606C198.204 61.1471 198.406 61.176 198.608 61.176C199.243 61.176 199.877 60.801 200.137 60.1376C200.483 59.3012 200.079 58.3494 199.214 58.0032Z" fill="#0093D2"/>
<path d="M206.021 60.7143L204.492 60.1086C203.656 59.7625 202.704 60.1952 202.358 61.0316C202.012 61.868 202.444 62.8199 203.281 63.166L204.809 63.7717C205.011 63.8582 205.213 63.887 205.415 63.887C206.05 63.887 206.684 63.4832 206.944 62.8487C207.29 62.0122 206.857 61.0604 206.021 60.7143Z" fill="#0093D2"/>
<path d="M185.542 52.523L184.013 51.9173C183.177 51.5712 182.225 51.975 181.879 52.8403C181.533 53.6767 181.937 54.6285 182.802 54.9747L184.331 55.5804C184.533 55.6669 184.735 55.6957 184.936 55.6957C185.571 55.6957 186.206 55.3208 186.465 54.6574C186.811 53.8209 186.407 52.8691 185.542 52.523Z" fill="#0093D2"/>
<path d="M212.857 63.4543L211.328 62.8486C210.492 62.5025 209.54 62.9351 209.194 63.7716C208.848 64.608 209.28 65.5598 210.117 65.906L211.645 66.5117C211.847 66.5982 212.049 66.627 212.251 66.627C212.886 66.627 213.52 66.2232 213.78 65.5887C214.126 64.7522 213.693 63.8004 212.857 63.4543Z" fill="#0093D2"/>
<path d="M192.378 55.2628L190.85 54.6571C190.013 54.3109 189.061 54.7148 188.715 55.5801C188.369 56.4165 188.773 57.3683 189.638 57.7144L191.167 58.3201C191.369 58.4066 191.571 58.4355 191.773 58.4355C192.407 58.4355 193.042 58.0605 193.301 57.3971C193.647 56.5607 193.244 55.6089 192.378 55.2628Z" fill="#0093D2"/>
<path d="M218.74 17.1327C218.74 17.1327 218.683 17.0173 218.625 16.9596C218.452 16.7289 218.25 16.527 217.962 16.4404L177.12 0.115374H177.091C176.918 0.0288455 176.745 0 176.543 0C176.543 0 176.514 0 176.486 0H176.428C176.255 0 176.053 0.0288455 175.88 0.115374L135.038 16.4693C134.779 16.5847 134.548 16.7577 134.375 16.9885C134.346 17.0461 134.288 17.1038 134.26 17.1615C134.115 17.3923 134 17.6807 134 17.9691V67.002V67.0597C134 67.2616 134 67.4347 134.115 67.6366C134.115 67.6943 134.202 67.7231 134.231 67.7808C134.317 67.925 134.404 68.0404 134.519 68.1269C134.635 68.2423 134.75 68.3577 134.894 68.4442C134.952 68.4442 134.981 68.5307 135.009 68.5596L175.851 84.8846C176.053 84.9712 176.255 85 176.457 85C176.659 85 176.861 84.9712 177.062 84.8846L217.904 68.5596C218.51 68.3 218.942 67.6943 218.942 67.0309V17.9691C218.942 17.6519 218.827 17.3923 218.683 17.1615L218.74 17.1327ZM175.015 3.95148C175.274 4.4995 175.822 4.87446 176.486 4.87446C177.149 4.87446 177.668 4.4995 177.928 3.95148L212.943 17.9691L178.101 31.9002V31.0638C178.101 30.1697 177.38 29.4197 176.457 29.4197C175.534 29.4197 174.813 30.1408 174.813 31.0638V31.9002L139.97 17.9691L174.986 3.95148H175.015ZM138.615 65.7906C138.384 65.1849 137.807 64.8388 137.202 64.7811V20.3631L174.813 35.4191V80.962L138.701 66.5117C138.701 66.281 138.701 66.0502 138.586 65.7906H138.615ZM178.101 80.9331V52.9267C178.735 52.9267 179.37 52.5229 179.601 51.8884C179.947 51.0519 179.543 50.1001 178.678 49.754L178.072 49.5232V35.3902L215.683 20.3342V65.8772L178.072 80.9331H178.101Z" fill="#0093D2"/>
<path d="M176.457 12.2295C177.351 12.2295 178.101 11.5084 178.101 10.5855V8.94141C178.101 8.04728 177.38 7.29736 176.457 7.29736C175.534 7.29736 174.813 8.01843 174.813 8.94141V10.5855C174.813 11.4796 175.534 12.2295 176.457 12.2295Z" fill="#0093D2"/>
<path d="M176.457 26.9392C177.351 26.9392 178.101 26.2182 178.101 25.2952V23.6511C178.101 22.757 177.38 22.0071 176.457 22.0071C175.534 22.0071 174.813 22.7282 174.813 23.6511V25.2952C174.813 26.1893 175.534 26.9392 176.457 26.9392Z" fill="#0093D2"/>
<path d="M176.457 19.5842C177.351 19.5842 178.101 18.8632 178.101 17.9402V16.2961C178.101 15.402 177.38 14.6521 176.457 14.6521C175.534 14.6521 174.813 15.3732 174.813 16.2961V17.9402C174.813 18.8343 175.534 19.5842 176.457 19.5842Z" fill="#0093D2"/>
<path d="M169.737 139.974C169.939 139.974 170.141 139.946 170.343 139.859L171.871 139.253C172.708 138.907 173.111 137.955 172.794 137.119C172.448 136.283 171.496 135.879 170.66 136.196L169.131 136.802C168.295 137.148 167.891 138.1 168.208 138.936C168.468 139.571 169.073 139.974 169.737 139.974Z" fill="#0093D2"/>
<path d="M149.258 148.195C149.46 148.195 149.662 148.166 149.864 148.079L151.392 147.474C152.229 147.127 152.633 146.176 152.315 145.339C151.969 144.503 151.018 144.099 150.181 144.416L148.652 145.022C147.816 145.368 147.412 146.32 147.729 147.156C147.989 147.791 148.595 148.195 149.258 148.195Z" fill="#0093D2"/>
<path d="M162.901 142.715C163.103 142.715 163.305 142.686 163.507 142.599L165.035 141.994C165.872 141.648 166.275 140.696 165.958 139.859C165.612 139.023 164.66 138.619 163.824 138.936L162.295 139.542C161.459 139.888 161.055 140.84 161.372 141.676C161.632 142.311 162.237 142.715 162.901 142.715Z" fill="#0093D2"/>
<path d="M156.094 145.455C156.296 145.455 156.498 145.426 156.7 145.339L158.229 144.734C159.065 144.387 159.469 143.436 159.152 142.599C158.834 141.763 157.854 141.359 157.017 141.676L155.489 142.282C154.652 142.628 154.248 143.58 154.594 144.416C154.854 145.051 155.46 145.455 156.123 145.455H156.094Z" fill="#0093D2"/>
<path d="M142.422 150.906C142.624 150.906 142.826 150.877 143.028 150.791L144.556 150.185C145.393 149.839 145.797 148.887 145.479 148.051C145.133 147.214 144.182 146.81 143.345 147.128L141.816 147.733C140.98 148.079 140.576 149.031 140.893 149.868C141.153 150.502 141.759 150.906 142.422 150.906Z" fill="#0093D2"/>
<path d="M199.214 143.003L197.685 142.397C196.849 142.051 195.897 142.455 195.551 143.32C195.204 144.186 195.608 145.109 196.474 145.455L198.002 146.06C198.204 146.147 198.406 146.176 198.608 146.176C199.243 146.176 199.877 145.801 200.137 145.137C200.483 144.301 200.079 143.349 199.214 143.003Z" fill="#0093D2"/>
<path d="M206.021 145.714L204.492 145.109C203.656 144.763 202.704 145.195 202.358 146.032C202.012 146.868 202.444 147.82 203.281 148.166L204.809 148.772C205.011 148.858 205.213 148.887 205.415 148.887C206.05 148.887 206.684 148.483 206.944 147.849C207.29 147.012 206.857 146.06 206.021 145.714Z" fill="#0093D2"/>
<path d="M185.542 137.523L184.013 136.917C183.177 136.571 182.225 136.975 181.879 137.84C181.533 138.677 181.937 139.628 182.802 139.975L184.331 140.58C184.533 140.667 184.735 140.696 184.936 140.696C185.571 140.696 186.206 140.321 186.465 139.657C186.811 138.821 186.407 137.869 185.542 137.523Z" fill="#0093D2"/>
<path d="M212.857 148.454L211.328 147.849C210.492 147.503 209.54 147.935 209.194 148.772C208.848 149.608 209.28 150.56 210.117 150.906L211.645 151.512C211.847 151.598 212.049 151.627 212.251 151.627C212.886 151.627 213.52 151.223 213.78 150.589C214.126 149.752 213.693 148.8 212.857 148.454Z" fill="#0093D2"/>
<path d="M192.378 140.263L190.85 139.657C190.013 139.311 189.061 139.715 188.715 140.58C188.369 141.417 188.773 142.368 189.638 142.715L191.167 143.32C191.369 143.407 191.571 143.436 191.773 143.436C192.407 143.436 193.042 143.061 193.301 142.397C193.647 141.561 193.244 140.609 192.378 140.263Z" fill="#0093D2"/>
<path d="M218.74 102.133C218.74 102.133 218.683 102.017 218.625 101.96C218.452 101.729 218.25 101.527 217.962 101.44L177.12 85.1154H177.091C176.918 85.0288 176.745 85 176.543 85C176.543 85 176.514 85 176.486 85H176.428C176.255 85 176.053 85.0288 175.88 85.1154L135.038 101.469C134.779 101.585 134.548 101.758 134.375 101.988C134.346 102.046 134.288 102.104 134.26 102.162C134.115 102.392 134 102.681 134 102.969V152.002V152.06C134 152.262 134 152.435 134.115 152.637C134.115 152.694 134.202 152.723 134.231 152.781C134.317 152.925 134.404 153.04 134.519 153.127C134.635 153.242 134.75 153.358 134.894 153.444C134.952 153.444 134.981 153.531 135.009 153.56L175.851 169.885C176.053 169.971 176.255 170 176.457 170C176.659 170 176.861 169.971 177.062 169.885L217.904 153.56C218.51 153.3 218.942 152.694 218.942 152.031V102.969C218.942 102.652 218.827 102.392 218.683 102.162L218.74 102.133ZM175.015 88.9515C175.274 89.4995 175.822 89.8745 176.486 89.8745C177.149 89.8745 177.668 89.4995 177.928 88.9515L212.943 102.969L178.101 116.9V116.064C178.101 115.17 177.38 114.42 176.457 114.42C175.534 114.42 174.813 115.141 174.813 116.064V116.9L139.97 102.969L174.986 88.9515H175.015ZM138.615 150.791C138.384 150.185 137.807 149.839 137.202 149.781V105.363L174.813 120.419V165.962L138.701 151.512C138.701 151.281 138.701 151.05 138.586 150.791H138.615ZM178.101 165.933V137.927C178.735 137.927 179.37 137.523 179.601 136.888C179.947 136.052 179.543 135.1 178.678 134.754L178.072 134.523V120.39L215.683 105.334V150.877L178.072 165.933H178.101Z" fill="#0093D2"/>
<path d="M176.457 97.2295C177.351 97.2295 178.101 96.5084 178.101 95.5855V93.9414C178.101 93.0473 177.38 92.2974 176.457 92.2974C175.534 92.2974 174.813 93.0184 174.813 93.9414V95.5855C174.813 96.4796 175.534 97.2295 176.457 97.2295Z" fill="#0093D2"/>
<path d="M176.457 111.939C177.351 111.939 178.101 111.218 178.101 110.295V108.651C178.101 107.757 177.38 107.007 176.457 107.007C175.534 107.007 174.813 107.728 174.813 108.651V110.295C174.813 111.189 175.534 111.939 176.457 111.939Z" fill="#0093D2"/>
<path d="M176.457 104.584C177.351 104.584 178.101 103.863 178.101 102.94V101.296C178.101 100.402 177.38 99.6521 176.457 99.6521C175.534 99.6521 174.813 100.373 174.813 101.296V102.94C174.813 103.834 175.534 104.584 176.457 104.584Z" fill="#0093D2"/>
<path d="M254.737 54.9745C254.939 54.9745 255.141 54.9457 255.343 54.8592L256.871 54.2535C257.708 53.9074 258.111 52.9555 257.794 52.1191C257.448 51.2827 256.496 50.8789 255.66 51.1961L254.131 51.8018C253.295 52.1479 252.891 53.0998 253.208 53.9362C253.468 54.5707 254.073 54.9745 254.737 54.9745Z" fill="#0093D2"/>
<path d="M234.258 63.1945C234.46 63.1945 234.662 63.1657 234.864 63.0792L236.392 62.4735C237.229 62.1273 237.633 61.1755 237.315 60.3391C236.969 59.5026 236.018 59.0988 235.181 59.4161L233.652 60.0218C232.816 60.3679 232.412 61.3197 232.729 62.1562C232.989 62.7907 233.595 63.1945 234.258 63.1945Z" fill="#0093D2"/>
<path d="M247.901 57.7148C248.103 57.7148 248.305 57.6859 248.507 57.5994L250.035 56.9937C250.872 56.6476 251.275 55.6958 250.958 54.8594C250.612 54.0229 249.66 53.6191 248.824 53.9364L247.295 54.5421C246.459 54.8882 246.055 55.84 246.372 56.6764C246.632 57.311 247.237 57.7148 247.901 57.7148Z" fill="#0093D2"/>
<path d="M241.094 60.4548C241.296 60.4548 241.498 60.4259 241.7 60.3394L243.229 59.7337C244.065 59.3876 244.469 58.4358 244.152 57.5993C243.834 56.7629 242.854 56.3591 242.017 56.6764L240.489 57.2821C239.652 57.6282 239.248 58.58 239.594 59.4164C239.854 60.051 240.46 60.4548 241.123 60.4548H241.094Z" fill="#0093D2"/>
<path d="M227.422 65.9059C227.624 65.9059 227.826 65.8771 228.028 65.7906L229.556 65.1849C230.393 64.8387 230.797 63.8869 230.479 63.0505C230.133 62.2141 229.182 61.8103 228.345 62.1275L226.816 62.7332C225.98 63.0793 225.576 64.0311 225.893 64.8676C226.153 65.5021 226.759 65.9059 227.422 65.9059Z" fill="#0093D2"/>
<path d="M284.214 58.0032L282.685 57.3975C281.849 57.0514 280.897 57.4552 280.551 58.3205C280.204 59.1858 280.608 60.1088 281.474 60.4549L283.002 61.0606C283.204 61.1471 283.406 61.176 283.608 61.176C284.243 61.176 284.877 60.801 285.137 60.1376C285.483 59.3012 285.079 58.3494 284.214 58.0032Z" fill="#0093D2"/>
<path d="M291.021 60.7143L289.492 60.1086C288.656 59.7625 287.704 60.1952 287.358 61.0316C287.012 61.868 287.444 62.8199 288.281 63.166L289.809 63.7717C290.011 63.8582 290.213 63.887 290.415 63.887C291.05 63.887 291.684 63.4832 291.944 62.8487C292.29 62.0122 291.857 61.0604 291.021 60.7143Z" fill="#0093D2"/>
<path d="M270.542 52.523L269.013 51.9173C268.177 51.5712 267.225 51.975 266.879 52.8403C266.533 53.6767 266.937 54.6285 267.802 54.9747L269.331 55.5804C269.533 55.6669 269.735 55.6957 269.936 55.6957C270.571 55.6957 271.206 55.3208 271.465 54.6574C271.811 53.8209 271.407 52.8691 270.542 52.523Z" fill="#0093D2"/>
<path d="M297.857 63.4543L296.328 62.8486C295.492 62.5025 294.54 62.9351 294.194 63.7716C293.848 64.608 294.28 65.5598 295.117 65.906L296.645 66.5117C296.847 66.5982 297.049 66.627 297.251 66.627C297.886 66.627 298.52 66.2232 298.78 65.5887C299.126 64.7522 298.693 63.8004 297.857 63.4543Z" fill="#0093D2"/>
<path d="M277.378 55.2628L275.85 54.6571C275.013 54.3109 274.061 54.7148 273.715 55.5801C273.369 56.4165 273.773 57.3683 274.638 57.7144L276.167 58.3201C276.369 58.4066 276.571 58.4355 276.773 58.4355C277.407 58.4355 278.042 58.0605 278.301 57.3971C278.647 56.5607 278.244 55.6089 277.378 55.2628Z" fill="#0093D2"/>
<path d="M303.74 17.1327C303.74 17.1327 303.683 17.0173 303.625 16.9596C303.452 16.7289 303.25 16.527 302.962 16.4404L262.12 0.115374H262.091C261.918 0.0288455 261.745 0 261.543 0C261.543 0 261.514 0 261.486 0H261.428C261.255 0 261.053 0.0288455 260.88 0.115374L220.038 16.4693C219.779 16.5847 219.548 16.7577 219.375 16.9885C219.346 17.0461 219.288 17.1038 219.26 17.1615C219.115 17.3923 219 17.6807 219 17.9691V67.002V67.0597C219 67.2616 219 67.4347 219.115 67.6366C219.115 67.6943 219.202 67.7231 219.231 67.7808C219.317 67.925 219.404 68.0404 219.519 68.1269C219.635 68.2423 219.75 68.3577 219.894 68.4442C219.952 68.4442 219.981 68.5307 220.009 68.5596L260.851 84.8846C261.053 84.9712 261.255 85 261.457 85C261.659 85 261.861 84.9712 262.062 84.8846L302.904 68.5596C303.51 68.3 303.942 67.6943 303.942 67.0309V17.9691C303.942 17.6519 303.827 17.3923 303.683 17.1615L303.74 17.1327ZM260.015 3.95148C260.274 4.4995 260.822 4.87446 261.486 4.87446C262.149 4.87446 262.668 4.4995 262.928 3.95148L297.943 17.9691L263.101 31.9002V31.0638C263.101 30.1697 262.38 29.4197 261.457 29.4197C260.534 29.4197 259.813 30.1408 259.813 31.0638V31.9002L224.97 17.9691L259.986 3.95148H260.015ZM223.615 65.7906C223.384 65.1849 222.807 64.8388 222.202 64.7811V20.3631L259.813 35.4191V80.962L223.701 66.5117C223.701 66.281 223.701 66.0502 223.586 65.7906H223.615ZM263.101 80.9331V52.9267C263.735 52.9267 264.37 52.5229 264.601 51.8884C264.947 51.0519 264.543 50.1001 263.678 49.754L263.072 49.5232V35.3902L300.683 20.3342V65.8772L263.072 80.9331H263.101Z" fill="#0093D2"/>
<path d="M261.457 12.2295C262.351 12.2295 263.101 11.5084 263.101 10.5855V8.94141C263.101 8.04728 262.38 7.29736 261.457 7.29736C260.534 7.29736 259.813 8.01843 259.813 8.94141V10.5855C259.813 11.4796 260.534 12.2295 261.457 12.2295Z" fill="#0093D2"/>
<path d="M261.457 26.9392C262.351 26.9392 263.101 26.2182 263.101 25.2952V23.6511C263.101 22.757 262.38 22.0071 261.457 22.0071C260.534 22.0071 259.813 22.7282 259.813 23.6511V25.2952C259.813 26.1893 260.534 26.9392 261.457 26.9392Z" fill="#0093D2"/>
<path d="M261.457 19.5842C262.351 19.5842 263.101 18.8632 263.101 17.9402V16.2961C263.101 15.402 262.38 14.6521 261.457 14.6521C260.534 14.6521 259.813 15.3732 259.813 16.2961V17.9402C259.813 18.8343 260.534 19.5842 261.457 19.5842Z" fill="#0093D2"/>
<path d="M254.737 139.974C254.939 139.974 255.141 139.946 255.343 139.859L256.871 139.253C257.708 138.907 258.111 137.955 257.794 137.119C257.448 136.283 256.496 135.879 255.66 136.196L254.131 136.802C253.295 137.148 252.891 138.1 253.208 138.936C253.468 139.571 254.073 139.974 254.737 139.974Z" fill="#0093D2"/>
<path d="M234.258 148.195C234.46 148.195 234.662 148.166 234.864 148.079L236.392 147.474C237.229 147.127 237.633 146.176 237.315 145.339C236.969 144.503 236.018 144.099 235.181 144.416L233.652 145.022C232.816 145.368 232.412 146.32 232.729 147.156C232.989 147.791 233.595 148.195 234.258 148.195Z" fill="#0093D2"/>
<path d="M247.901 142.715C248.103 142.715 248.305 142.686 248.507 142.599L250.035 141.994C250.872 141.648 251.275 140.696 250.958 139.859C250.612 139.023 249.66 138.619 248.824 138.936L247.295 139.542C246.459 139.888 246.055 140.84 246.372 141.676C246.632 142.311 247.237 142.715 247.901 142.715Z" fill="#0093D2"/>
<path d="M241.094 145.455C241.296 145.455 241.498 145.426 241.7 145.339L243.229 144.734C244.065 144.387 244.469 143.436 244.152 142.599C243.834 141.763 242.854 141.359 242.017 141.676L240.489 142.282C239.652 142.628 239.248 143.58 239.594 144.416C239.854 145.051 240.46 145.455 241.123 145.455H241.094Z" fill="#0093D2"/>
<path d="M227.422 150.906C227.624 150.906 227.826 150.877 228.028 150.791L229.556 150.185C230.393 149.839 230.797 148.887 230.479 148.051C230.133 147.214 229.182 146.81 228.345 147.128L226.816 147.733C225.98 148.079 225.576 149.031 225.893 149.868C226.153 150.502 226.759 150.906 227.422 150.906Z" fill="#0093D2"/>
<path d="M284.214 143.003L282.685 142.397C281.849 142.051 280.897 142.455 280.551 143.32C280.204 144.186 280.608 145.109 281.474 145.455L283.002 146.06C283.204 146.147 283.406 146.176 283.608 146.176C284.243 146.176 284.877 145.801 285.137 145.137C285.483 144.301 285.079 143.349 284.214 143.003Z" fill="#0093D2"/>
<path d="M291.021 145.714L289.492 145.109C288.656 144.763 287.704 145.195 287.358 146.032C287.012 146.868 287.444 147.82 288.281 148.166L289.809 148.772C290.011 148.858 290.213 148.887 290.415 148.887C291.05 148.887 291.684 148.483 291.944 147.849C292.29 147.012 291.857 146.06 291.021 145.714Z" fill="#0093D2"/>
<path d="M270.542 137.523L269.013 136.917C268.177 136.571 267.225 136.975 266.879 137.84C266.533 138.677 266.937 139.628 267.802 139.975L269.331 140.58C269.533 140.667 269.735 140.696 269.936 140.696C270.571 140.696 271.206 140.321 271.465 139.657C271.811 138.821 271.407 137.869 270.542 137.523Z" fill="#0093D2"/>
<path d="M297.857 148.454L296.328 147.849C295.492 147.503 294.54 147.935 294.194 148.772C293.848 149.608 294.28 150.56 295.117 150.906L296.645 151.512C296.847 151.598 297.049 151.627 297.251 151.627C297.886 151.627 298.52 151.223 298.78 150.589C299.126 149.752 298.693 148.8 297.857 148.454Z" fill="#0093D2"/>
<path d="M277.378 140.263L275.85 139.657C275.013 139.311 274.061 139.715 273.715 140.58C273.369 141.417 273.773 142.368 274.638 142.715L276.167 143.32C276.369 143.407 276.571 143.436 276.773 143.436C277.407 143.436 278.042 143.061 278.301 142.397C278.647 141.561 278.244 140.609 277.378 140.263Z" fill="#0093D2"/>
<path d="M303.74 102.133C303.74 102.133 303.683 102.017 303.625 101.96C303.452 101.729 303.25 101.527 302.962 101.44L262.12 85.1154H262.091C261.918 85.0288 261.745 85 261.543 85C261.543 85 261.514 85 261.486 85H261.428C261.255 85 261.053 85.0288 260.88 85.1154L220.038 101.469C219.779 101.585 219.548 101.758 219.375 101.988C219.346 102.046 219.288 102.104 219.26 102.162C219.115 102.392 219 102.681 219 102.969V152.002V152.06C219 152.262 219 152.435 219.115 152.637C219.115 152.694 219.202 152.723 219.231 152.781C219.317 152.925 219.404 153.04 219.519 153.127C219.635 153.242 219.75 153.358 219.894 153.444C219.952 153.444 219.981 153.531 220.009 153.56L260.851 169.885C261.053 169.971 261.255 170 261.457 170C261.659 170 261.861 169.971 262.062 169.885L302.904 153.56C303.51 153.3 303.942 152.694 303.942 152.031V102.969C303.942 102.652 303.827 102.392 303.683 102.162L303.74 102.133ZM260.015 88.9515C260.274 89.4995 260.822 89.8745 261.486 89.8745C262.149 89.8745 262.668 89.4995 262.928 88.9515L297.943 102.969L263.101 116.9V116.064C263.101 115.17 262.38 114.42 261.457 114.42C260.534 114.42 259.813 115.141 259.813 116.064V116.9L224.97 102.969L259.986 88.9515H260.015ZM223.615 150.791C223.384 150.185 222.807 149.839 222.202 149.781V105.363L259.813 120.419V165.962L223.701 151.512C223.701 151.281 223.701 151.05 223.586 150.791H223.615ZM263.101 165.933V137.927C263.735 137.927 264.37 137.523 264.601 136.888C264.947 136.052 264.543 135.1 263.678 134.754L263.072 134.523V120.39L300.683 105.334V150.877L263.072 165.933H263.101Z" fill="#0093D2"/>
<path d="M261.457 97.2295C262.351 97.2295 263.101 96.5084 263.101 95.5855V93.9414C263.101 93.0473 262.38 92.2974 261.457 92.2974C260.534 92.2974 259.813 93.0184 259.813 93.9414V95.5855C259.813 96.4796 260.534 97.2295 261.457 97.2295Z" fill="#0093D2"/>
<path d="M261.457 111.939C262.351 111.939 263.101 111.218 263.101 110.295V108.651C263.101 107.757 262.38 107.007 261.457 107.007C260.534 107.007 259.813 107.728 259.813 108.651V110.295C259.813 111.189 260.534 111.939 261.457 111.939Z" fill="#0093D2"/>
<path d="M261.457 104.584C262.351 104.584 263.101 103.863 263.101 102.94V101.296C263.101 100.402 262.38 99.6521 261.457 99.6521C260.534 99.6521 259.813 100.373 259.813 101.296V102.94C259.813 103.834 260.534 104.584 261.457 104.584Z" fill="#0093D2"/>
<path d="M339.737 54.9745C339.939 54.9745 340.141 54.9457 340.343 54.8592L341.871 54.2535C342.708 53.9074 343.111 52.9555 342.794 52.1191C342.448 51.2827 341.496 50.8789 340.66 51.1961L339.131 51.8018C338.295 52.1479 337.891 53.0998 338.208 53.9362C338.468 54.5707 339.073 54.9745 339.737 54.9745Z" fill="#0093D2"/>
<path d="M319.258 63.1945C319.46 63.1945 319.662 63.1657 319.864 63.0792L321.392 62.4735C322.229 62.1273 322.633 61.1755 322.315 60.3391C321.969 59.5026 321.018 59.0988 320.181 59.4161L318.652 60.0218C317.816 60.3679 317.412 61.3197 317.729 62.1562C317.989 62.7907 318.595 63.1945 319.258 63.1945Z" fill="#0093D2"/>
<path d="M332.901 57.7148C333.103 57.7148 333.305 57.6859 333.507 57.5994L335.035 56.9937C335.872 56.6476 336.275 55.6958 335.958 54.8594C335.612 54.0229 334.66 53.6191 333.824 53.9364L332.295 54.5421C331.459 54.8882 331.055 55.84 331.372 56.6764C331.632 57.311 332.237 57.7148 332.901 57.7148Z" fill="#0093D2"/>
<path d="M326.094 60.4548C326.296 60.4548 326.498 60.4259 326.7 60.3394L328.229 59.7337C329.065 59.3876 329.469 58.4358 329.152 57.5993C328.834 56.7629 327.854 56.3591 327.017 56.6764L325.489 57.2821C324.652 57.6282 324.248 58.58 324.594 59.4164C324.854 60.051 325.46 60.4548 326.123 60.4548H326.094Z" fill="#0093D2"/>
<path d="M312.422 65.9059C312.624 65.9059 312.826 65.8771 313.028 65.7906L314.556 65.1849C315.393 64.8387 315.797 63.8869 315.479 63.0505C315.133 62.2141 314.182 61.8103 313.345 62.1275L311.816 62.7332C310.98 63.0793 310.576 64.0311 310.893 64.8676C311.153 65.5021 311.759 65.9059 312.422 65.9059Z" fill="#0093D2"/>
<path d="M355.542 52.523L354.013 51.9173C353.177 51.5712 352.225 51.975 351.879 52.8403C351.533 53.6767 351.937 54.6285 352.802 54.9747L354.331 55.5804C354.533 55.6669 354.735 55.6957 354.936 55.6957C355.571 55.6957 356.206 55.3208 356.465 54.6574C356.811 53.8209 356.407 52.8691 355.542 52.523Z" fill="#0093D2"/>
<path d="M388.74 17.1327C388.74 17.1327 388.683 17.0173 388.625 16.9596C388.452 16.7289 388.25 16.527 387.962 16.4404L347.12 0.115374H347.091C346.918 0.0288455 346.745 0 346.543 0C346.543 0 346.514 0 346.486 0H346.428C346.255 0 346.053 0.0288455 345.88 0.115374L305.038 16.4693C304.779 16.5847 304.548 16.7577 304.375 16.9885C304.346 17.0461 304.288 17.1038 304.26 17.1615C304.115 17.3923 304 17.6807 304 17.9691V67.002V67.0597C304 67.2616 304 67.4347 304.115 67.6366C304.115 67.6943 304.202 67.7231 304.231 67.7808C304.317 67.925 304.404 68.0404 304.519 68.1269C304.635 68.2423 304.75 68.3577 304.894 68.4442C304.952 68.4442 304.981 68.5307 305.009 68.5596L345.851 84.8846C346.053 84.9712 346.255 85 346.457 85C346.659 85 346.861 84.9712 347.062 84.8846L387.904 68.5596C388.51 68.3 388.942 67.6943 388.942 67.0309V17.9691C388.942 17.6519 388.827 17.3923 388.683 17.1615L388.74 17.1327ZM345.015 3.95148C345.274 4.4995 345.822 4.87446 346.486 4.87446C347.149 4.87446 347.668 4.4995 347.928 3.95148L382.943 17.9691L348.101 31.9002V31.0638C348.101 30.1697 347.38 29.4197 346.457 29.4197C345.534 29.4197 344.813 30.1408 344.813 31.0638V31.9002L309.97 17.9691L344.986 3.95148H345.015ZM308.615 65.7906C308.384 65.1849 307.807 64.8388 307.202 64.7811V20.3631L344.813 35.4191V80.962L308.701 66.5117C308.701 66.281 308.701 66.0502 308.586 65.7906H308.615ZM348.101 80.9331V52.9267C348.735 52.9267 349.37 52.5229 349.601 51.8884C349.947 51.0519 349.543 50.1001 348.678 49.754L348.072 49.5232V35.3902L385.683 20.3342V65.8772L348.072 80.9331H348.101Z" fill="#0093D2"/>
<path d="M346.457 12.2295C347.351 12.2295 348.101 11.5084 348.101 10.5855V8.94141C348.101 8.04728 347.38 7.29736 346.457 7.29736C345.534 7.29736 344.813 8.01843 344.813 8.94141V10.5855C344.813 11.4796 345.534 12.2295 346.457 12.2295Z" fill="#0093D2"/>
<path d="M346.457 26.9392C347.351 26.9392 348.101 26.2182 348.101 25.2952V23.6511C348.101 22.757 347.38 22.0071 346.457 22.0071C345.534 22.0071 344.813 22.7282 344.813 23.6511V25.2952C344.813 26.1893 345.534 26.9392 346.457 26.9392Z" fill="#0093D2"/>
<path d="M346.457 19.5842C347.351 19.5842 348.101 18.8632 348.101 17.9402V16.2961C348.101 15.402 347.38 14.6521 346.457 14.6521C345.534 14.6521 344.813 15.3732 344.813 16.2961V17.9402C344.813 18.8343 345.534 19.5842 346.457 19.5842Z" fill="#0093D2"/>
<path d="M339.737 139.974C339.939 139.974 340.141 139.946 340.343 139.859L341.871 139.253C342.708 138.907 343.111 137.955 342.794 137.119C342.448 136.283 341.496 135.879 340.66 136.196L339.131 136.802C338.295 137.148 337.891 138.1 338.208 138.936C338.468 139.571 339.073 139.974 339.737 139.974Z" fill="#0093D2"/>
<path d="M319.258 148.195C319.46 148.195 319.662 148.166 319.864 148.079L321.392 147.474C322.229 147.127 322.633 146.176 322.315 145.339C321.969 144.503 321.018 144.099 320.181 144.416L318.652 145.022C317.816 145.368 317.412 146.32 317.729 147.156C317.989 147.791 318.595 148.195 319.258 148.195Z" fill="#0093D2"/>
<path d="M332.901 142.715C333.103 142.715 333.305 142.686 333.507 142.599L335.035 141.994C335.872 141.648 336.275 140.696 335.958 139.859C335.612 139.023 334.66 138.619 333.824 138.936L332.295 139.542C331.459 139.888 331.055 140.84 331.372 141.676C331.632 142.311 332.237 142.715 332.901 142.715Z" fill="#0093D2"/>
<path d="M326.094 145.455C326.296 145.455 326.498 145.426 326.7 145.339L328.229 144.734C329.065 144.387 329.469 143.436 329.152 142.599C328.834 141.763 327.854 141.359 327.017 141.676L325.489 142.282C324.652 142.628 324.248 143.58 324.594 144.416C324.854 145.051 325.46 145.455 326.123 145.455H326.094Z" fill="#0093D2"/>
<path d="M312.422 150.906C312.624 150.906 312.826 150.877 313.028 150.791L314.556 150.185C315.393 149.839 315.797 148.887 315.479 148.051C315.133 147.214 314.182 146.81 313.345 147.128L311.816 147.733C310.98 148.079 310.576 149.031 310.893 149.868C311.153 150.502 311.759 150.906 312.422 150.906Z" fill="#0093D2"/>
<path d="M355.542 137.523L354.013 136.917C353.177 136.571 352.225 136.975 351.879 137.84C351.533 138.677 351.937 139.628 352.802 139.975L354.331 140.58C354.533 140.667 354.735 140.696 354.936 140.696C355.571 140.696 356.206 140.321 356.465 139.657C356.811 138.821 356.407 137.869 355.542 137.523Z" fill="#0093D2"/>
<path d="M388.74 102.133C388.74 102.133 388.683 102.017 388.625 101.96C388.452 101.729 388.25 101.527 387.962 101.44L347.12 85.1154H347.091C346.918 85.0288 346.745 85 346.543 85C346.543 85 346.514 85 346.486 85H346.428C346.255 85 346.053 85.0288 345.88 85.1154L305.038 101.469C304.779 101.585 304.548 101.758 304.375 101.988C304.346 102.046 304.288 102.104 304.26 102.162C304.115 102.392 304 102.681 304 102.969V152.002V152.06C304 152.262 304 152.435 304.115 152.637C304.115 152.694 304.202 152.723 304.231 152.781C304.317 152.925 304.404 153.04 304.519 153.127C304.635 153.242 304.75 153.358 304.894 153.444C304.952 153.444 304.981 153.531 305.009 153.56L345.851 169.885C346.053 169.971 346.255 170 346.457 170C346.659 170 346.861 169.971 347.062 169.885L387.904 153.56C388.51 153.3 388.942 152.694 388.942 152.031V102.969C388.942 102.652 388.827 102.392 388.683 102.162L388.74 102.133ZM345.015 88.9515C345.274 89.4995 345.822 89.8745 346.486 89.8745C347.149 89.8745 347.668 89.4995 347.928 88.9515L382.943 102.969L348.101 116.9V116.064C348.101 115.17 347.38 114.42 346.457 114.42C345.534 114.42 344.813 115.141 344.813 116.064V116.9L309.97 102.969L344.986 88.9515H345.015ZM308.615 150.791C308.384 150.185 307.807 149.839 307.202 149.781V105.363L344.813 120.419V165.962L308.701 151.512C308.701 151.281 308.701 151.05 308.586 150.791H308.615ZM348.101 165.933V137.927C348.735 137.927 349.37 137.523 349.601 136.888C349.947 136.052 349.543 135.1 348.678 134.754L348.072 134.523V120.39L385.683 105.334V150.877L348.072 165.933H348.101Z" fill="#0093D2"/>
<path d="M346.457 97.2295C347.351 97.2295 348.101 96.5084 348.101 95.5855V93.9414C348.101 93.0473 347.38 92.2974 346.457 92.2974C345.534 92.2974 344.813 93.0184 344.813 93.9414V95.5855C344.813 96.4796 345.534 97.2295 346.457 97.2295Z" fill="#0093D2"/>
<path d="M346.457 111.939C347.351 111.939 348.101 111.218 348.101 110.295V108.651C348.101 107.757 347.38 107.007 346.457 107.007C345.534 107.007 344.813 107.728 344.813 108.651V110.295C344.813 111.189 345.534 111.939 346.457 111.939Z" fill="#0093D2"/>
<path d="M346.457 104.584C347.351 104.584 348.101 103.863 348.101 102.94V101.296C348.101 100.402 347.38 99.6521 346.457 99.6521C345.534 99.6521 344.813 100.373 344.813 101.296V102.94C344.813 103.834 345.534 104.584 346.457 104.584Z" fill="#0093D2"/>
</g>
<path d="M169.737 97.9745C169.939 97.9745 170.141 97.9457 170.343 97.8592L171.871 97.2535C172.708 96.9074 173.111 95.9555 172.794 95.1191C172.448 94.2827 171.496 93.8789 170.66 94.1961L169.131 94.8018C168.295 95.1479 167.891 96.0998 168.208 96.9362C168.468 97.5707 169.073 97.9745 169.737 97.9745Z" fill="#0085BD"/>
<path d="M149.258 106.195C149.46 106.195 149.662 106.166 149.864 106.079L151.392 105.474C152.229 105.127 152.633 104.176 152.315 103.339C151.969 102.503 151.018 102.099 150.181 102.416L148.652 103.022C147.816 103.368 147.412 104.32 147.729 105.156C147.989 105.791 148.595 106.195 149.258 106.195Z" fill="#0085BD"/>
<path d="M162.901 100.715C163.103 100.715 163.305 100.686 163.507 100.599L165.035 99.9937C165.872 99.6476 166.275 98.6958 165.958 97.8594C165.612 97.0229 164.66 96.6191 163.824 96.9364L162.295 97.5421C161.459 97.8882 161.055 98.84 161.372 99.6764C161.632 100.311 162.237 100.715 162.901 100.715Z" fill="#0085BD"/>
<path d="M156.094 103.455C156.296 103.455 156.498 103.426 156.7 103.339L158.229 102.734C159.065 102.388 159.469 101.436 159.152 100.599C158.834 99.7629 157.854 99.3591 157.017 99.6764L155.489 100.282C154.652 100.628 154.248 101.58 154.594 102.416C154.854 103.051 155.46 103.455 156.123 103.455H156.094Z" fill="#0085BD"/>
<path d="M142.422 108.906C142.624 108.906 142.826 108.877 143.028 108.791L144.556 108.185C145.393 107.839 145.797 106.887 145.479 106.051C145.133 105.214 144.182 104.81 143.345 105.128L141.816 105.733C140.98 106.079 140.576 107.031 140.893 107.868C141.153 108.502 141.759 108.906 142.422 108.906Z" fill="#0085BD"/>
<path d="M199.214 101.003L197.685 100.398C196.849 100.051 195.897 100.455 195.551 101.321C195.204 102.186 195.608 103.109 196.474 103.455L198.002 104.061C198.204 104.147 198.406 104.176 198.608 104.176C199.243 104.176 199.877 103.801 200.137 103.138C200.483 102.301 200.079 101.349 199.214 101.003Z" fill="#0085BD"/>
<path d="M206.021 103.714L204.492 103.109C203.656 102.763 202.704 103.195 202.358 104.032C202.012 104.868 202.444 105.82 203.281 106.166L204.809 106.772C205.011 106.858 205.213 106.887 205.415 106.887C206.05 106.887 206.684 106.483 206.944 105.849C207.29 105.012 206.857 104.06 206.021 103.714Z" fill="#0085BD"/>
<path d="M185.542 95.523L184.013 94.9173C183.177 94.5712 182.225 94.975 181.879 95.8403C181.533 96.6767 181.937 97.6285 182.802 97.9747L184.331 98.5804C184.533 98.6669 184.735 98.6957 184.936 98.6957C185.571 98.6957 186.206 98.3208 186.465 97.6574C186.811 96.8209 186.407 95.8691 185.542 95.523Z" fill="#0085BD"/>
<path d="M212.857 106.454L211.328 105.849C210.492 105.503 209.54 105.935 209.194 106.772C208.848 107.608 209.28 108.56 210.117 108.906L211.645 109.512C211.847 109.598 212.049 109.627 212.251 109.627C212.886 109.627 213.52 109.223 213.78 108.589C214.126 107.752 213.693 106.8 212.857 106.454Z" fill="#0085BD"/>
<path d="M192.378 98.2628L190.85 97.6571C190.013 97.3109 189.061 97.7148 188.715 98.5801C188.369 99.4165 188.773 100.368 189.638 100.714L191.167 101.32C191.369 101.407 191.571 101.435 191.773 101.435C192.407 101.435 193.042 101.061 193.301 100.397C193.647 99.5607 193.244 98.6089 192.378 98.2628Z" fill="#0085BD"/>
<path d="M218.74 60.1327C218.74 60.1327 218.683 60.0173 218.625 59.9596C218.452 59.7289 218.25 59.527 217.962 59.4404L177.12 43.1154H177.091C176.918 43.0288 176.745 43 176.543 43C176.543 43 176.514 43 176.486 43H176.428C176.255 43 176.053 43.0288 175.88 43.1154L135.038 59.4693C134.779 59.5847 134.548 59.7577 134.375 59.9885C134.346 60.0461 134.288 60.1038 134.26 60.1615C134.115 60.3923 134 60.6807 134 60.9691V110.002V110.06C134 110.262 134 110.435 134.115 110.637C134.115 110.694 134.202 110.723 134.231 110.781C134.317 110.925 134.404 111.04 134.519 111.127C134.635 111.242 134.75 111.358 134.894 111.444C134.952 111.444 134.981 111.531 135.009 111.56L175.851 127.885C176.053 127.971 176.255 128 176.457 128C176.659 128 176.861 127.971 177.062 127.885L217.904 111.56C218.51 111.3 218.942 110.694 218.942 110.031V60.9691C218.942 60.6519 218.827 60.3923 218.683 60.1615L218.74 60.1327ZM175.015 46.9515C175.274 47.4995 175.822 47.8745 176.486 47.8745C177.149 47.8745 177.668 47.4995 177.928 46.9515L212.943 60.9691L178.101 74.9002V74.0638C178.101 73.1697 177.38 72.4197 176.457 72.4197C175.534 72.4197 174.813 73.1408 174.813 74.0638V74.9002L139.97 60.9691L174.986 46.9515H175.015ZM138.615 108.791C138.384 108.185 137.807 107.839 137.202 107.781V63.3631L174.813 78.4191V123.962L138.701 109.512C138.701 109.281 138.701 109.05 138.586 108.791H138.615ZM178.101 123.933V95.9267C178.735 95.9267 179.37 95.5229 179.601 94.8884C179.947 94.0519 179.543 93.1001 178.678 92.754L178.072 92.5232V78.3902L215.683 63.3342V108.877L178.072 123.933H178.101Z" fill="#0085BD"/>
<path d="M176.457 55.2295C177.351 55.2295 178.101 54.5084 178.101 53.5855V51.9414C178.101 51.0473 177.38 50.2974 176.457 50.2974C175.534 50.2974 174.813 51.0184 174.813 51.9414V53.5855C174.813 54.4796 175.534 55.2295 176.457 55.2295Z" fill="#0085BD"/>
<path d="M176.457 69.9392C177.351 69.9392 178.101 69.2182 178.101 68.2952V66.6511C178.101 65.757 177.38 65.0071 176.457 65.0071C175.534 65.0071 174.813 65.7282 174.813 66.6511V68.2952C174.813 69.1893 175.534 69.9392 176.457 69.9392Z" fill="#0085BD"/>
<path d="M176.457 62.5842C177.351 62.5842 178.101 61.8632 178.101 60.9402V59.2961C178.101 58.402 177.38 57.6521 176.457 57.6521C175.534 57.6521 174.813 58.3732 174.813 59.2961V60.9402C174.813 61.8343 175.534 62.5842 176.457 62.5842Z" fill="#0085BD"/>
</g>
<defs>
<filter id="filter0_f_68_7581" x="-40" y="-4" width="432.942" height="178" filterUnits="userSpaceOnUse" color-interpolation-filters="sRGB">
<feFlood flood-opacity="0" result="BackgroundImageFix"/>
<feBlend mode="normal" in="SourceGraphic" in2="BackgroundImageFix" result="shape"/>
<feGaussianBlur stdDeviation="2" result="effect1_foregroundBlur_68_7581"/>
</filter>
<clipPath id="clip0_68_7581">
<rect width="352" height="170" fill="white"/>
</clipPath>
</defs>
</svg>
