<svg width="352" height="170" viewBox="0 0 352 170" fill="none" xmlns="http://www.w3.org/2000/svg">
<g clip-path="url(#clip0_68_7050)">
<rect width="352" height="170" fill="#A4DBF7"/>
<g opacity="0.16" filter="url(#filter0_f_68_7050)">
<path d="M42.4045 158.578H39.9529V86.644C39.9529 85.7499 39.2318 85 38.3089 85C37.3859 85 36.6648 85.7211 36.6648 86.644V93.1914H33.867C33.2325 91.7492 31.7904 90.7397 30.1175 90.7397C28.4446 90.7397 27.0024 91.7492 26.3678 93.1914H5.22604C4.5915 91.7492 3.1493 90.7397 1.47641 90.7397C-0.196472 90.7397 -1.63858 91.7492 -2.27313 93.1914H-5.01324C-5.64778 91.7492 -7.08989 90.7397 -8.76278 90.7397C-10.4357 90.7397 -11.8778 91.7492 -12.5123 93.1914H-15.2524C-15.887 91.7492 -17.3291 90.7397 -19.002 90.7397C-20.6749 90.7397 -22.1171 91.7492 -22.7516 93.1914H-25.5494V86.644C-25.5494 85.7499 -26.2705 85 -27.1934 85C-28.1164 85 -28.8374 85.7211 -28.8374 86.644V158.578H-31.2891C-33.5965 158.578 -37 160.107 -37 164.289V168.356C-37 168.789 -36.8269 169.221 -36.5385 169.51C-36.2212 169.827 -35.8174 170 -35.3848 170H46.356C47.2501 170 48 169.279 48 168.356V164.26C48 161.953 46.4714 158.549 42.2892 158.549L42.4045 158.578ZM25.7045 129.966C25.07 128.524 23.6278 127.514 21.9549 127.514C20.282 127.514 18.8399 128.524 18.2053 129.966H15.4652C14.8307 128.524 13.3886 127.514 11.7157 127.514C10.0428 127.514 8.60061 128.524 7.96607 129.966H5.22604C4.5915 128.524 3.1493 127.514 1.47641 127.514C-0.196472 127.514 -1.63858 128.524 -2.27313 129.966H-5.01324C-5.64778 128.524 -7.08989 127.514 -8.76278 127.514C-10.4357 127.514 -11.8778 128.524 -12.5123 129.966H-15.2524C-15.887 128.524 -17.3291 127.514 -19.002 127.514C-20.6749 127.514 -22.1171 128.524 -22.7516 129.966H-25.5494V120.967H-22.7516C-22.1171 122.409 -20.6749 123.419 -19.002 123.419C-17.3291 123.419 -15.887 122.409 -15.2524 120.967H5.88937C6.52392 122.409 7.96611 123.419 9.639 123.419C11.3119 123.419 12.754 122.409 13.3885 120.967H16.1287C16.7632 122.409 18.2053 123.419 19.8782 123.419C21.5511 123.419 22.9933 122.409 23.6278 120.967H26.3678C27.0024 122.409 28.4446 123.419 30.1175 123.419C31.7904 123.419 33.2325 122.409 33.867 120.967H36.6648V129.966H25.7045ZM-22.6651 108.709C-22.0305 110.151 -20.5883 111.161 -18.9154 111.161C-17.2426 111.161 -15.8004 110.151 -15.1659 108.709H-12.4258C-11.7913 110.151 -10.3491 111.161 -8.67625 111.161C-7.00337 111.161 -5.56126 110.151 -4.92671 108.709H-2.1866C-1.55206 110.151 -0.109947 111.161 1.56294 111.161C3.23583 111.161 4.67802 110.151 5.31257 108.709H8.05259C8.68713 110.151 10.1293 111.161 11.8022 111.161C13.4751 111.161 14.9172 110.151 15.5518 108.709H18.2919C18.9264 110.151 20.3685 111.161 22.0414 111.161C23.7143 111.161 25.1565 110.151 25.791 108.709H36.7513V117.708H33.9535C33.319 116.266 31.8769 115.256 30.204 115.256C28.5311 115.256 27.0889 116.266 26.4544 117.708H23.7144C23.0798 116.266 21.6376 115.256 19.9647 115.256C18.2918 115.256 16.8497 116.266 16.2152 117.708H13.4751C12.8405 116.266 11.3984 115.256 9.72553 115.256C8.05264 115.256 6.61044 116.266 5.9759 117.708H-15.1659C-15.8004 116.266 -17.2426 115.256 -18.9154 115.256C-20.5883 115.256 -22.0305 116.266 -22.6651 117.708H-25.4628V108.709H-22.6651ZM-22.6651 96.4506C-22.0305 97.8928 -20.5883 98.9023 -18.9154 98.9023C-17.2426 98.9023 -15.8004 97.8928 -15.1659 96.4506H-12.4258C-11.7913 97.8928 -10.3491 98.9023 -8.67625 98.9023C-7.00337 98.9023 -5.56126 97.8928 -4.92671 96.4506H-2.1866C-1.55206 97.8928 -0.109947 98.9023 1.56294 98.9023C3.23583 98.9023 4.67802 97.8928 5.31257 96.4506H26.4544C27.0889 97.8928 28.5311 98.9023 30.204 98.9023C31.8769 98.9023 33.319 97.8928 33.9535 96.4506H36.7513V105.45H25.791C25.1565 104.007 23.7143 102.998 22.0414 102.998C20.3685 102.998 18.9264 104.007 18.2919 105.45H15.5518C14.9172 104.007 13.4751 102.998 11.8022 102.998C10.1293 102.998 8.68713 104.007 8.05259 105.45H5.31257C4.67802 104.007 3.23583 102.998 1.56294 102.998C-0.109947 102.998 -1.55206 104.007 -2.1866 105.45H-4.92671C-5.56126 104.007 -7.00337 102.998 -8.67625 102.998C-10.3491 102.998 -11.7913 104.007 -12.4258 105.45H-15.1659C-15.8004 104.007 -17.2426 102.998 -18.9154 102.998C-20.5883 102.998 -22.0305 104.007 -22.6651 105.45H-25.4628V96.4506H-22.6651ZM-25.4628 133.254H-22.6651C-22.0305 134.696 -20.5883 135.706 -18.9154 135.706C-17.2426 135.706 -15.8004 134.696 -15.1659 133.254H-12.4258C-11.7913 134.696 -10.3491 135.706 -8.67625 135.706C-7.00337 135.706 -5.56126 134.696 -4.92671 133.254H-2.1866C-1.55206 134.696 -0.109947 135.706 1.56294 135.706C3.23583 135.706 4.67802 134.696 5.31257 133.254H8.05259C8.68713 134.696 10.1293 135.706 11.8022 135.706C13.4751 135.706 14.9172 134.696 15.5518 133.254H18.2919C18.9264 134.696 20.3685 135.706 22.0414 135.706C23.7143 135.706 25.1565 134.696 25.791 133.254H36.7513V158.607H-25.3763V133.254H-25.4628ZM44.8562 166.77H-33.6253C-33.6253 166.106 -33.6253 165.299 -33.6253 164.318C-33.6253 162.155 -31.8948 161.866 -31.1737 161.866H42.4045C44.5677 161.866 44.8273 163.597 44.8562 164.318V166.77Z" fill="#0093D2"/>
<path d="M127.404 158.578H124.953V86.644C124.953 85.7499 124.232 85 123.309 85C122.386 85 121.665 85.7211 121.665 86.644V93.1914H118.867C118.232 91.7492 116.79 90.7397 115.117 90.7397C113.445 90.7397 112.002 91.7492 111.368 93.1914H90.226C89.5915 91.7492 88.1493 90.7397 86.4764 90.7397C84.8035 90.7397 83.3614 91.7492 82.7269 93.1914H79.9868C79.3522 91.7492 77.9101 90.7397 76.2372 90.7397C74.5643 90.7397 73.1222 91.7492 72.4877 93.1914H69.7476C69.113 91.7492 67.6709 90.7397 65.998 90.7397C64.3251 90.7397 62.8829 91.7492 62.2484 93.1914H59.4506V86.644C59.4506 85.7499 58.7295 85 57.8066 85C56.8836 85 56.1626 85.7211 56.1626 86.644V158.578H53.7109C51.4035 158.578 48 160.107 48 164.289V168.356C48 168.789 48.1731 169.221 48.4615 169.51C48.7788 169.827 49.1826 170 49.6152 170H131.356C132.25 170 133 169.279 133 168.356V164.26C133 161.953 131.471 158.549 127.289 158.549L127.404 158.578ZM110.705 129.966C110.07 128.524 108.628 127.514 106.955 127.514C105.282 127.514 103.84 128.524 103.205 129.966H100.465C99.8307 128.524 98.3886 127.514 96.7157 127.514C95.0428 127.514 93.6006 128.524 92.9661 129.966H90.226C89.5915 128.524 88.1493 127.514 86.4764 127.514C84.8035 127.514 83.3614 128.524 82.7269 129.966H79.9868C79.3522 128.524 77.9101 127.514 76.2372 127.514C74.5643 127.514 73.1222 128.524 72.4877 129.966H69.7476C69.113 128.524 67.6709 127.514 65.998 127.514C64.3251 127.514 62.8829 128.524 62.2484 129.966H59.4506V120.967H62.2484C62.8829 122.409 64.3251 123.419 65.998 123.419C67.6709 123.419 69.113 122.409 69.7476 120.967H90.8894C91.5239 122.409 92.9661 123.419 94.639 123.419C96.3119 123.419 97.754 122.409 98.3885 120.967H101.129C101.763 122.409 103.205 123.419 104.878 123.419C106.551 123.419 107.993 122.409 108.628 120.967H111.368C112.002 122.409 113.445 123.419 115.117 123.419C116.79 123.419 118.232 122.409 118.867 120.967H121.665V129.966H110.705ZM62.3349 108.709C62.9695 110.151 64.4117 111.161 66.0846 111.161C67.7574 111.161 69.1996 110.151 69.8341 108.709H72.5742C73.2087 110.151 74.6509 111.161 76.3237 111.161C77.9966 111.161 79.4387 110.151 80.0733 108.709H82.8134C83.4479 110.151 84.8901 111.161 86.5629 111.161C88.2358 111.161 89.678 110.151 90.3126 108.709H93.0526C93.6871 110.151 95.1293 111.161 96.8022 111.161C98.4751 111.161 99.9172 110.151 100.552 108.709H103.292C103.926 110.151 105.369 111.161 107.041 111.161C108.714 111.161 110.157 110.151 110.791 108.709H121.751V117.708H118.954C118.319 116.266 116.877 115.256 115.204 115.256C113.531 115.256 112.089 116.266 111.454 117.708H108.714C108.08 116.266 106.638 115.256 104.965 115.256C103.292 115.256 101.85 116.266 101.215 117.708H98.4751C97.8405 116.266 96.3984 115.256 94.7255 115.256C93.0526 115.256 91.6104 116.266 90.9759 117.708H69.8341C69.1996 116.266 67.7574 115.256 66.0846 115.256C64.4117 115.256 62.9695 116.266 62.3349 117.708H59.5372V108.709H62.3349ZM62.3349 96.4506C62.9695 97.8928 64.4117 98.9023 66.0846 98.9023C67.7574 98.9023 69.1996 97.8928 69.8341 96.4506H72.5742C73.2087 97.8928 74.6509 98.9023 76.3237 98.9023C77.9966 98.9023 79.4387 97.8928 80.0733 96.4506H82.8134C83.4479 97.8928 84.8901 98.9023 86.5629 98.9023C88.2358 98.9023 89.678 97.8928 90.3126 96.4506H111.454C112.089 97.8928 113.531 98.9023 115.204 98.9023C116.877 98.9023 118.319 97.8928 118.954 96.4506H121.751V105.45H110.791C110.157 104.007 108.714 102.998 107.041 102.998C105.369 102.998 103.926 104.007 103.292 105.45H100.552C99.9172 104.007 98.4751 102.998 96.8022 102.998C95.1293 102.998 93.6871 104.007 93.0526 105.45H90.3126C89.678 104.007 88.2358 102.998 86.5629 102.998C84.8901 102.998 83.4479 104.007 82.8134 105.45H80.0733C79.4387 104.007 77.9966 102.998 76.3237 102.998C74.6509 102.998 73.2087 104.007 72.5742 105.45H69.8341C69.1996 104.007 67.7574 102.998 66.0846 102.998C64.4117 102.998 62.9695 104.007 62.3349 105.45H59.5372V96.4506H62.3349ZM59.5372 133.254H62.3349C62.9695 134.696 64.4117 135.706 66.0846 135.706C67.7574 135.706 69.1996 134.696 69.8341 133.254H72.5742C73.2087 134.696 74.6509 135.706 76.3237 135.706C77.9966 135.706 79.4387 134.696 80.0733 133.254H82.8134C83.4479 134.696 84.8901 135.706 86.5629 135.706C88.2358 135.706 89.678 134.696 90.3126 133.254H93.0526C93.6871 134.696 95.1293 135.706 96.8022 135.706C98.4751 135.706 99.9172 134.696 100.552 133.254H103.292C103.926 134.696 105.369 135.706 107.041 135.706C108.714 135.706 110.157 134.696 110.791 133.254H121.751V158.607H59.6237V133.254H59.5372ZM129.856 166.77H51.3747C51.3747 166.106 51.3747 165.299 51.3747 164.318C51.3747 162.155 53.1052 161.866 53.8263 161.866H127.404C129.568 161.866 129.827 163.597 129.856 164.318V166.77Z" fill="#0093D2"/>
<path d="M212.404 158.578H209.953V86.644C209.953 85.7499 209.232 85 208.309 85C207.386 85 206.665 85.7211 206.665 86.644V93.1914H203.867C203.232 91.7492 201.79 90.7397 200.117 90.7397C198.445 90.7397 197.002 91.7492 196.368 93.1914H175.226C174.591 91.7492 173.149 90.7397 171.476 90.7397C169.804 90.7397 168.361 91.7492 167.727 93.1914H164.987C164.352 91.7492 162.91 90.7397 161.237 90.7397C159.564 90.7397 158.122 91.7492 157.488 93.1914H154.748C154.113 91.7492 152.671 90.7397 150.998 90.7397C149.325 90.7397 147.883 91.7492 147.248 93.1914H144.451V86.644C144.451 85.7499 143.73 85 142.807 85C141.884 85 141.163 85.7211 141.163 86.644V158.578H138.711C136.403 158.578 133 160.107 133 164.289V168.356C133 168.789 133.173 169.221 133.461 169.51C133.779 169.827 134.183 170 134.615 170H216.356C217.25 170 218 169.279 218 168.356V164.26C218 161.953 216.471 158.549 212.289 158.549L212.404 158.578ZM195.705 129.966C195.07 128.524 193.628 127.514 191.955 127.514C190.282 127.514 188.84 128.524 188.205 129.966H185.465C184.831 128.524 183.389 127.514 181.716 127.514C180.043 127.514 178.601 128.524 177.966 129.966H175.226C174.591 128.524 173.149 127.514 171.476 127.514C169.804 127.514 168.361 128.524 167.727 129.966H164.987C164.352 128.524 162.91 127.514 161.237 127.514C159.564 127.514 158.122 128.524 157.488 129.966H154.748C154.113 128.524 152.671 127.514 150.998 127.514C149.325 127.514 147.883 128.524 147.248 129.966H144.451V120.967H147.248C147.883 122.409 149.325 123.419 150.998 123.419C152.671 123.419 154.113 122.409 154.748 120.967H175.889C176.524 122.409 177.966 123.419 179.639 123.419C181.312 123.419 182.754 122.409 183.389 120.967H186.129C186.763 122.409 188.205 123.419 189.878 123.419C191.551 123.419 192.993 122.409 193.628 120.967H196.368C197.002 122.409 198.445 123.419 200.117 123.419C201.79 123.419 203.232 122.409 203.867 120.967H206.665V129.966H195.705ZM147.335 108.709C147.969 110.151 149.412 111.161 151.085 111.161C152.757 111.161 154.2 110.151 154.834 108.709H157.574C158.209 110.151 159.651 111.161 161.324 111.161C162.997 111.161 164.439 110.151 165.073 108.709H167.813C168.448 110.151 169.89 111.161 171.563 111.161C173.236 111.161 174.678 110.151 175.313 108.709H178.053C178.687 110.151 180.129 111.161 181.802 111.161C183.475 111.161 184.917 110.151 185.552 108.709H188.292C188.926 110.151 190.369 111.161 192.041 111.161C193.714 111.161 195.157 110.151 195.791 108.709H206.751V117.708H203.954C203.319 116.266 201.877 115.256 200.204 115.256C198.531 115.256 197.089 116.266 196.454 117.708H193.714C193.08 116.266 191.638 115.256 189.965 115.256C188.292 115.256 186.85 116.266 186.215 117.708H183.475C182.841 116.266 181.398 115.256 179.726 115.256C178.053 115.256 176.61 116.266 175.976 117.708H154.834C154.2 116.266 152.757 115.256 151.085 115.256C149.412 115.256 147.969 116.266 147.335 117.708H144.537V108.709H147.335ZM147.335 96.4506C147.969 97.8928 149.412 98.9023 151.085 98.9023C152.757 98.9023 154.2 97.8928 154.834 96.4506H157.574C158.209 97.8928 159.651 98.9023 161.324 98.9023C162.997 98.9023 164.439 97.8928 165.073 96.4506H167.813C168.448 97.8928 169.89 98.9023 171.563 98.9023C173.236 98.9023 174.678 97.8928 175.313 96.4506H196.454C197.089 97.8928 198.531 98.9023 200.204 98.9023C201.877 98.9023 203.319 97.8928 203.954 96.4506H206.751V105.45H195.791C195.157 104.007 193.714 102.998 192.041 102.998C190.369 102.998 188.926 104.007 188.292 105.45H185.552C184.917 104.007 183.475 102.998 181.802 102.998C180.129 102.998 178.687 104.007 178.053 105.45H175.313C174.678 104.007 173.236 102.998 171.563 102.998C169.89 102.998 168.448 104.007 167.813 105.45H165.073C164.439 104.007 162.997 102.998 161.324 102.998C159.651 102.998 158.209 104.007 157.574 105.45H154.834C154.2 104.007 152.757 102.998 151.085 102.998C149.412 102.998 147.969 104.007 147.335 105.45H144.537V96.4506H147.335ZM144.537 133.254H147.335C147.969 134.696 149.412 135.706 151.085 135.706C152.757 135.706 154.2 134.696 154.834 133.254H157.574C158.209 134.696 159.651 135.706 161.324 135.706C162.997 135.706 164.439 134.696 165.073 133.254H167.813C168.448 134.696 169.89 135.706 171.563 135.706C173.236 135.706 174.678 134.696 175.313 133.254H178.053C178.687 134.696 180.129 135.706 181.802 135.706C183.475 135.706 184.917 134.696 185.552 133.254H188.292C188.926 134.696 190.369 135.706 192.041 135.706C193.714 135.706 195.157 134.696 195.791 133.254H206.751V158.607H144.624V133.254H144.537ZM214.856 166.77H136.375C136.375 166.106 136.375 165.299 136.375 164.318C136.375 162.155 138.105 161.866 138.826 161.866H212.404C214.568 161.866 214.827 163.597 214.856 164.318V166.77Z" fill="#0093D2"/>
<path d="M297.404 158.578H294.953V86.644C294.953 85.7499 294.232 85 293.309 85C292.386 85 291.665 85.7211 291.665 86.644V93.1914H288.867C288.232 91.7492 286.79 90.7397 285.117 90.7397C283.445 90.7397 282.002 91.7492 281.368 93.1914H260.226C259.591 91.7492 258.149 90.7397 256.476 90.7397C254.804 90.7397 253.361 91.7492 252.727 93.1914H249.987C249.352 91.7492 247.91 90.7397 246.237 90.7397C244.564 90.7397 243.122 91.7492 242.488 93.1914H239.748C239.113 91.7492 237.671 90.7397 235.998 90.7397C234.325 90.7397 232.883 91.7492 232.248 93.1914H229.451V86.644C229.451 85.7499 228.73 85 227.807 85C226.884 85 226.163 85.7211 226.163 86.644V158.578H223.711C221.403 158.578 218 160.107 218 164.289V168.356C218 168.789 218.173 169.221 218.461 169.51C218.779 169.827 219.183 170 219.615 170H301.356C302.25 170 303 169.279 303 168.356V164.26C303 161.953 301.471 158.549 297.289 158.549L297.404 158.578ZM280.705 129.966C280.07 128.524 278.628 127.514 276.955 127.514C275.282 127.514 273.84 128.524 273.205 129.966H270.465C269.831 128.524 268.389 127.514 266.716 127.514C265.043 127.514 263.601 128.524 262.966 129.966H260.226C259.591 128.524 258.149 127.514 256.476 127.514C254.804 127.514 253.361 128.524 252.727 129.966H249.987C249.352 128.524 247.91 127.514 246.237 127.514C244.564 127.514 243.122 128.524 242.488 129.966H239.748C239.113 128.524 237.671 127.514 235.998 127.514C234.325 127.514 232.883 128.524 232.248 129.966H229.451V120.967H232.248C232.883 122.409 234.325 123.419 235.998 123.419C237.671 123.419 239.113 122.409 239.748 120.967H260.889C261.524 122.409 262.966 123.419 264.639 123.419C266.312 123.419 267.754 122.409 268.389 120.967H271.129C271.763 122.409 273.205 123.419 274.878 123.419C276.551 123.419 277.993 122.409 278.628 120.967H281.368C282.002 122.409 283.445 123.419 285.117 123.419C286.79 123.419 288.232 122.409 288.867 120.967H291.665V129.966H280.705ZM232.335 108.709C232.969 110.151 234.412 111.161 236.085 111.161C237.757 111.161 239.2 110.151 239.834 108.709H242.574C243.209 110.151 244.651 111.161 246.324 111.161C247.997 111.161 249.439 110.151 250.073 108.709H252.813C253.448 110.151 254.89 111.161 256.563 111.161C258.236 111.161 259.678 110.151 260.313 108.709H263.053C263.687 110.151 265.129 111.161 266.802 111.161C268.475 111.161 269.917 110.151 270.552 108.709H273.292C273.926 110.151 275.369 111.161 277.041 111.161C278.714 111.161 280.157 110.151 280.791 108.709H291.751V117.708H288.954C288.319 116.266 286.877 115.256 285.204 115.256C283.531 115.256 282.089 116.266 281.454 117.708H278.714C278.08 116.266 276.638 115.256 274.965 115.256C273.292 115.256 271.85 116.266 271.215 117.708H268.475C267.841 116.266 266.398 115.256 264.726 115.256C263.053 115.256 261.61 116.266 260.976 117.708H239.834C239.2 116.266 237.757 115.256 236.085 115.256C234.412 115.256 232.969 116.266 232.335 117.708H229.537V108.709H232.335ZM232.335 96.4506C232.969 97.8928 234.412 98.9023 236.085 98.9023C237.757 98.9023 239.2 97.8928 239.834 96.4506H242.574C243.209 97.8928 244.651 98.9023 246.324 98.9023C247.997 98.9023 249.439 97.8928 250.073 96.4506H252.813C253.448 97.8928 254.89 98.9023 256.563 98.9023C258.236 98.9023 259.678 97.8928 260.313 96.4506H281.454C282.089 97.8928 283.531 98.9023 285.204 98.9023C286.877 98.9023 288.319 97.8928 288.954 96.4506H291.751V105.45H280.791C280.157 104.007 278.714 102.998 277.041 102.998C275.369 102.998 273.926 104.007 273.292 105.45H270.552C269.917 104.007 268.475 102.998 266.802 102.998C265.129 102.998 263.687 104.007 263.053 105.45H260.313C259.678 104.007 258.236 102.998 256.563 102.998C254.89 102.998 253.448 104.007 252.813 105.45H250.073C249.439 104.007 247.997 102.998 246.324 102.998C244.651 102.998 243.209 104.007 242.574 105.45H239.834C239.2 104.007 237.757 102.998 236.085 102.998C234.412 102.998 232.969 104.007 232.335 105.45H229.537V96.4506H232.335ZM229.537 133.254H232.335C232.969 134.696 234.412 135.706 236.085 135.706C237.757 135.706 239.2 134.696 239.834 133.254H242.574C243.209 134.696 244.651 135.706 246.324 135.706C247.997 135.706 249.439 134.696 250.073 133.254H252.813C253.448 134.696 254.89 135.706 256.563 135.706C258.236 135.706 259.678 134.696 260.313 133.254H263.053C263.687 134.696 265.129 135.706 266.802 135.706C268.475 135.706 269.917 134.696 270.552 133.254H273.292C273.926 134.696 275.369 135.706 277.041 135.706C278.714 135.706 280.157 134.696 280.791 133.254H291.751V158.607H229.624V133.254H229.537ZM299.856 166.77H221.375C221.375 166.106 221.375 165.299 221.375 164.318C221.375 162.155 223.105 161.866 223.826 161.866H297.404C299.568 161.866 299.827 163.597 299.856 164.318V166.77Z" fill="#0093D2"/>
<path d="M382.404 158.578H379.953V86.644C379.953 85.7499 379.232 85 378.309 85C377.386 85 376.665 85.7211 376.665 86.644V93.1914H373.867C373.232 91.7492 371.79 90.7397 370.117 90.7397C368.445 90.7397 367.002 91.7492 366.368 93.1914H345.226C344.591 91.7492 343.149 90.7397 341.476 90.7397C339.804 90.7397 338.361 91.7492 337.727 93.1914H334.987C334.352 91.7492 332.91 90.7397 331.237 90.7397C329.564 90.7397 328.122 91.7492 327.488 93.1914H324.748C324.113 91.7492 322.671 90.7397 320.998 90.7397C319.325 90.7397 317.883 91.7492 317.248 93.1914H314.451V86.644C314.451 85.7499 313.73 85 312.807 85C311.884 85 311.163 85.7211 311.163 86.644V158.578H308.711C306.403 158.578 303 160.107 303 164.289V168.356C303 168.789 303.173 169.221 303.461 169.51C303.779 169.827 304.183 170 304.615 170H386.356C387.25 170 388 169.279 388 168.356V164.26C388 161.953 386.471 158.549 382.289 158.549L382.404 158.578ZM365.705 129.966C365.07 128.524 363.628 127.514 361.955 127.514C360.282 127.514 358.84 128.524 358.205 129.966H355.465C354.831 128.524 353.389 127.514 351.716 127.514C350.043 127.514 348.601 128.524 347.966 129.966H345.226C344.591 128.524 343.149 127.514 341.476 127.514C339.804 127.514 338.361 128.524 337.727 129.966H334.987C334.352 128.524 332.91 127.514 331.237 127.514C329.564 127.514 328.122 128.524 327.488 129.966H324.748C324.113 128.524 322.671 127.514 320.998 127.514C319.325 127.514 317.883 128.524 317.248 129.966H314.451V120.967H317.248C317.883 122.409 319.325 123.419 320.998 123.419C322.671 123.419 324.113 122.409 324.748 120.967H345.889C346.524 122.409 347.966 123.419 349.639 123.419C351.312 123.419 352.754 122.409 353.389 120.967H356.129C356.763 122.409 358.205 123.419 359.878 123.419C361.551 123.419 362.993 122.409 363.628 120.967H366.368C367.002 122.409 368.445 123.419 370.117 123.419C371.79 123.419 373.232 122.409 373.867 120.967H376.665V129.966H365.705ZM317.335 108.709C317.969 110.151 319.412 111.161 321.085 111.161C322.757 111.161 324.2 110.151 324.834 108.709H327.574C328.209 110.151 329.651 111.161 331.324 111.161C332.997 111.161 334.439 110.151 335.073 108.709H337.813C338.448 110.151 339.89 111.161 341.563 111.161C343.236 111.161 344.678 110.151 345.313 108.709H348.053C348.687 110.151 350.129 111.161 351.802 111.161C353.475 111.161 354.917 110.151 355.552 108.709H358.292C358.926 110.151 360.369 111.161 362.041 111.161C363.714 111.161 365.157 110.151 365.791 108.709H376.751V117.708H373.954C373.319 116.266 371.877 115.256 370.204 115.256C368.531 115.256 367.089 116.266 366.454 117.708H363.714C363.08 116.266 361.638 115.256 359.965 115.256C358.292 115.256 356.85 116.266 356.215 117.708H353.475C352.841 116.266 351.398 115.256 349.726 115.256C348.053 115.256 346.61 116.266 345.976 117.708H324.834C324.2 116.266 322.757 115.256 321.085 115.256C319.412 115.256 317.969 116.266 317.335 117.708H314.537V108.709H317.335ZM317.335 96.4506C317.969 97.8928 319.412 98.9023 321.085 98.9023C322.757 98.9023 324.2 97.8928 324.834 96.4506H327.574C328.209 97.8928 329.651 98.9023 331.324 98.9023C332.997 98.9023 334.439 97.8928 335.073 96.4506H337.813C338.448 97.8928 339.89 98.9023 341.563 98.9023C343.236 98.9023 344.678 97.8928 345.313 96.4506H366.454C367.089 97.8928 368.531 98.9023 370.204 98.9023C371.877 98.9023 373.319 97.8928 373.954 96.4506H376.751V105.45H365.791C365.157 104.007 363.714 102.998 362.041 102.998C360.369 102.998 358.926 104.007 358.292 105.45H355.552C354.917 104.007 353.475 102.998 351.802 102.998C350.129 102.998 348.687 104.007 348.053 105.45H345.313C344.678 104.007 343.236 102.998 341.563 102.998C339.89 102.998 338.448 104.007 337.813 105.45H335.073C334.439 104.007 332.997 102.998 331.324 102.998C329.651 102.998 328.209 104.007 327.574 105.45H324.834C324.2 104.007 322.757 102.998 321.085 102.998C319.412 102.998 317.969 104.007 317.335 105.45H314.537V96.4506H317.335ZM314.537 133.254H317.335C317.969 134.696 319.412 135.706 321.085 135.706C322.757 135.706 324.2 134.696 324.834 133.254H327.574C328.209 134.696 329.651 135.706 331.324 135.706C332.997 135.706 334.439 134.696 335.073 133.254H337.813C338.448 134.696 339.89 135.706 341.563 135.706C343.236 135.706 344.678 134.696 345.313 133.254H348.053C348.687 134.696 350.129 135.706 351.802 135.706C353.475 135.706 354.917 134.696 355.552 133.254H358.292C358.926 134.696 360.369 135.706 362.041 135.706C363.714 135.706 365.157 134.696 365.791 133.254H376.751V158.607H314.624V133.254H314.537ZM384.856 166.77H306.375C306.375 166.106 306.375 165.299 306.375 164.318C306.375 162.155 308.105 161.866 308.826 161.866H382.404C384.568 161.866 384.827 163.597 384.856 164.318V166.77Z" fill="#0093D2"/>
<path d="M42.4045 73.5782H39.9529V1.64404C39.9529 0.749914 39.2318 0 38.3089 0C37.3859 0 36.6648 0.721072 36.6648 1.64404V8.19137H33.867C33.2325 6.74923 31.7904 5.73973 30.1175 5.73973C28.4446 5.73973 27.0024 6.74923 26.3678 8.19137H5.22604C4.5915 6.74923 3.1493 5.73973 1.47641 5.73973C-0.196472 5.73973 -1.63858 6.74923 -2.27313 8.19137H-5.01324C-5.64778 6.74923 -7.08989 5.73973 -8.76278 5.73973C-10.4357 5.73973 -11.8778 6.74923 -12.5123 8.19137H-15.2524C-15.887 6.74923 -17.3291 5.73973 -19.002 5.73973C-20.6749 5.73973 -22.1171 6.74923 -22.7516 8.19137H-25.5494V1.64404C-25.5494 0.749914 -26.2705 0 -27.1934 0C-28.1164 0 -28.8374 0.721072 -28.8374 1.64404V73.5782H-31.2891C-33.5965 73.5782 -37 75.1069 -37 79.2891V83.356C-37 83.7886 -36.8269 84.2212 -36.5385 84.5097C-36.2212 84.827 -35.8174 85 -35.3848 85H46.356C47.2501 85 48 84.279 48 83.356V79.2603C48 76.9529 46.4714 73.5494 42.2892 73.5494L42.4045 73.5782ZM25.7045 44.9661C25.07 43.5239 23.6278 42.5144 21.9549 42.5144C20.282 42.5144 18.8399 43.5239 18.2053 44.9661H15.4652C14.8307 43.5239 13.3886 42.5144 11.7157 42.5144C10.0428 42.5144 8.60061 43.5239 7.96607 44.9661H5.22604C4.5915 43.5239 3.1493 42.5144 1.47641 42.5144C-0.196472 42.5144 -1.63858 43.5239 -2.27313 44.9661H-5.01324C-5.64778 43.5239 -7.08989 42.5144 -8.76278 42.5144C-10.4357 42.5144 -11.8778 43.5239 -12.5123 44.9661H-15.2524C-15.887 43.5239 -17.3291 42.5144 -19.002 42.5144C-20.6749 42.5144 -22.1171 43.5239 -22.7516 44.9661H-25.5494V35.9671H-22.7516C-22.1171 37.4092 -20.6749 38.4187 -19.002 38.4187C-17.3291 38.4187 -15.887 37.4092 -15.2524 35.9671H5.88937C6.52392 37.4092 7.96611 38.4187 9.639 38.4187C11.3119 38.4187 12.754 37.4092 13.3885 35.9671H16.1287C16.7632 37.4092 18.2053 38.4187 19.8782 38.4187C21.5511 38.4187 22.9933 37.4092 23.6278 35.9671H26.3678C27.0024 37.4092 28.4446 38.4187 30.1175 38.4187C31.7904 38.4187 33.2325 37.4092 33.867 35.9671H36.6648V44.9661H25.7045ZM-22.6651 23.7089C-22.0305 25.151 -20.5883 26.1605 -18.9154 26.1605C-17.2426 26.1605 -15.8004 25.151 -15.1659 23.7089H-12.4258C-11.7913 25.151 -10.3491 26.1605 -8.67625 26.1605C-7.00337 26.1605 -5.56126 25.151 -4.92671 23.7089H-2.1866C-1.55206 25.151 -0.109947 26.1605 1.56294 26.1605C3.23583 26.1605 4.67802 25.151 5.31257 23.7089H8.05259C8.68713 25.151 10.1293 26.1605 11.8022 26.1605C13.4751 26.1605 14.9172 25.151 15.5518 23.7089H18.2919C18.9264 25.151 20.3685 26.1605 22.0414 26.1605C23.7143 26.1605 25.1565 25.151 25.791 23.7089H36.7513V32.7078H33.9535C33.319 31.2657 31.8769 30.2562 30.204 30.2562C28.5311 30.2562 27.0889 31.2657 26.4544 32.7078H23.7144C23.0798 31.2657 21.6376 30.2562 19.9647 30.2562C18.2918 30.2562 16.8497 31.2657 16.2152 32.7078H13.4751C12.8405 31.2657 11.3984 30.2562 9.72553 30.2562C8.05264 30.2562 6.61044 31.2657 5.9759 32.7078H-15.1659C-15.8004 31.2657 -17.2426 30.2562 -18.9154 30.2562C-20.5883 30.2562 -22.0305 31.2657 -22.6651 32.7078H-25.4628V23.7089H-22.6651ZM-22.6651 11.4506C-22.0305 12.8928 -20.5883 13.9023 -18.9154 13.9023C-17.2426 13.9023 -15.8004 12.8928 -15.1659 11.4506H-12.4258C-11.7913 12.8928 -10.3491 13.9023 -8.67625 13.9023C-7.00337 13.9023 -5.56126 12.8928 -4.92671 11.4506H-2.1866C-1.55206 12.8928 -0.109947 13.9023 1.56294 13.9023C3.23583 13.9023 4.67802 12.8928 5.31257 11.4506H26.4544C27.0889 12.8928 28.5311 13.9023 30.204 13.9023C31.8769 13.9023 33.319 12.8928 33.9535 11.4506H36.7513V20.4496H25.791C25.1565 19.0075 23.7143 17.998 22.0414 17.998C20.3685 17.998 18.9264 19.0075 18.2919 20.4496H15.5518C14.9172 19.0075 13.4751 17.998 11.8022 17.998C10.1293 17.998 8.68713 19.0075 8.05259 20.4496H5.31257C4.67802 19.0075 3.23583 17.998 1.56294 17.998C-0.109947 17.998 -1.55206 19.0075 -2.1866 20.4496H-4.92671C-5.56126 19.0075 -7.00337 17.998 -8.67625 17.998C-10.3491 17.998 -11.7913 19.0075 -12.4258 20.4496H-15.1659C-15.8004 19.0075 -17.2426 17.998 -18.9154 17.998C-20.5883 17.998 -22.0305 19.0075 -22.6651 20.4496H-25.4628V11.4506H-22.6651ZM-25.4628 48.2542H-22.6651C-22.0305 49.6963 -20.5883 50.7058 -18.9154 50.7058C-17.2426 50.7058 -15.8004 49.6963 -15.1659 48.2542H-12.4258C-11.7913 49.6963 -10.3491 50.7058 -8.67625 50.7058C-7.00337 50.7058 -5.56126 49.6963 -4.92671 48.2542H-2.1866C-1.55206 49.6963 -0.109947 50.7058 1.56294 50.7058C3.23583 50.7058 4.67802 49.6963 5.31257 48.2542H8.05259C8.68713 49.6963 10.1293 50.7058 11.8022 50.7058C13.4751 50.7058 14.9172 49.6963 15.5518 48.2542H18.2919C18.9264 49.6963 20.3685 50.7058 22.0414 50.7058C23.7143 50.7058 25.1565 49.6963 25.791 48.2542H36.7513V73.6071H-25.3763V48.2542H-25.4628ZM44.8562 81.7696H-33.6253C-33.6253 81.1062 -33.6253 80.2986 -33.6253 79.3179C-33.6253 77.1547 -31.8948 76.8663 -31.1737 76.8663H42.4045C44.5677 76.8663 44.8273 78.5969 44.8562 79.3179V81.7696Z" fill="#0093D2"/>
<path d="M127.404 73.5782H124.953V1.64404C124.953 0.749914 124.232 0 123.309 0C122.386 0 121.665 0.721072 121.665 1.64404V8.19137H118.867C118.232 6.74923 116.79 5.73973 115.117 5.73973C113.445 5.73973 112.002 6.74923 111.368 8.19137H90.226C89.5915 6.74923 88.1493 5.73973 86.4764 5.73973C84.8035 5.73973 83.3614 6.74923 82.7269 8.19137H79.9868C79.3522 6.74923 77.9101 5.73973 76.2372 5.73973C74.5643 5.73973 73.1222 6.74923 72.4877 8.19137H69.7476C69.113 6.74923 67.6709 5.73973 65.998 5.73973C64.3251 5.73973 62.8829 6.74923 62.2484 8.19137H59.4506V1.64404C59.4506 0.749914 58.7295 0 57.8066 0C56.8836 0 56.1626 0.721072 56.1626 1.64404V73.5782H53.7109C51.4035 73.5782 48 75.1069 48 79.2891V83.356C48 83.7886 48.1731 84.2212 48.4615 84.5097C48.7788 84.827 49.1826 85 49.6152 85H131.356C132.25 85 133 84.279 133 83.356V79.2603C133 76.9529 131.471 73.5494 127.289 73.5494L127.404 73.5782ZM110.705 44.9661C110.07 43.5239 108.628 42.5144 106.955 42.5144C105.282 42.5144 103.84 43.5239 103.205 44.9661H100.465C99.8307 43.5239 98.3886 42.5144 96.7157 42.5144C95.0428 42.5144 93.6006 43.5239 92.9661 44.9661H90.226C89.5915 43.5239 88.1493 42.5144 86.4764 42.5144C84.8035 42.5144 83.3614 43.5239 82.7269 44.9661H79.9868C79.3522 43.5239 77.9101 42.5144 76.2372 42.5144C74.5643 42.5144 73.1222 43.5239 72.4877 44.9661H69.7476C69.113 43.5239 67.6709 42.5144 65.998 42.5144C64.3251 42.5144 62.8829 43.5239 62.2484 44.9661H59.4506V35.9671H62.2484C62.8829 37.4092 64.3251 38.4187 65.998 38.4187C67.6709 38.4187 69.113 37.4092 69.7476 35.9671H90.8894C91.5239 37.4092 92.9661 38.4187 94.639 38.4187C96.3119 38.4187 97.754 37.4092 98.3885 35.9671H101.129C101.763 37.4092 103.205 38.4187 104.878 38.4187C106.551 38.4187 107.993 37.4092 108.628 35.9671H111.368C112.002 37.4092 113.445 38.4187 115.117 38.4187C116.79 38.4187 118.232 37.4092 118.867 35.9671H121.665V44.9661H110.705ZM62.3349 23.7089C62.9695 25.151 64.4117 26.1605 66.0846 26.1605C67.7574 26.1605 69.1996 25.151 69.8341 23.7089H72.5742C73.2087 25.151 74.6509 26.1605 76.3237 26.1605C77.9966 26.1605 79.4387 25.151 80.0733 23.7089H82.8134C83.4479 25.151 84.8901 26.1605 86.5629 26.1605C88.2358 26.1605 89.678 25.151 90.3126 23.7089H93.0526C93.6871 25.151 95.1293 26.1605 96.8022 26.1605C98.4751 26.1605 99.9172 25.151 100.552 23.7089H103.292C103.926 25.151 105.369 26.1605 107.041 26.1605C108.714 26.1605 110.157 25.151 110.791 23.7089H121.751V32.7078H118.954C118.319 31.2657 116.877 30.2562 115.204 30.2562C113.531 30.2562 112.089 31.2657 111.454 32.7078H108.714C108.08 31.2657 106.638 30.2562 104.965 30.2562C103.292 30.2562 101.85 31.2657 101.215 32.7078H98.4751C97.8405 31.2657 96.3984 30.2562 94.7255 30.2562C93.0526 30.2562 91.6104 31.2657 90.9759 32.7078H69.8341C69.1996 31.2657 67.7574 30.2562 66.0846 30.2562C64.4117 30.2562 62.9695 31.2657 62.3349 32.7078H59.5372V23.7089H62.3349ZM62.3349 11.4506C62.9695 12.8928 64.4117 13.9023 66.0846 13.9023C67.7574 13.9023 69.1996 12.8928 69.8341 11.4506H72.5742C73.2087 12.8928 74.6509 13.9023 76.3237 13.9023C77.9966 13.9023 79.4387 12.8928 80.0733 11.4506H82.8134C83.4479 12.8928 84.8901 13.9023 86.5629 13.9023C88.2358 13.9023 89.678 12.8928 90.3126 11.4506H111.454C112.089 12.8928 113.531 13.9023 115.204 13.9023C116.877 13.9023 118.319 12.8928 118.954 11.4506H121.751V20.4496H110.791C110.157 19.0075 108.714 17.998 107.041 17.998C105.369 17.998 103.926 19.0075 103.292 20.4496H100.552C99.9172 19.0075 98.4751 17.998 96.8022 17.998C95.1293 17.998 93.6871 19.0075 93.0526 20.4496H90.3126C89.678 19.0075 88.2358 17.998 86.5629 17.998C84.8901 17.998 83.4479 19.0075 82.8134 20.4496H80.0733C79.4387 19.0075 77.9966 17.998 76.3237 17.998C74.6509 17.998 73.2087 19.0075 72.5742 20.4496H69.8341C69.1996 19.0075 67.7574 17.998 66.0846 17.998C64.4117 17.998 62.9695 19.0075 62.3349 20.4496H59.5372V11.4506H62.3349ZM59.5372 48.2542H62.3349C62.9695 49.6963 64.4117 50.7058 66.0846 50.7058C67.7574 50.7058 69.1996 49.6963 69.8341 48.2542H72.5742C73.2087 49.6963 74.6509 50.7058 76.3237 50.7058C77.9966 50.7058 79.4387 49.6963 80.0733 48.2542H82.8134C83.4479 49.6963 84.8901 50.7058 86.5629 50.7058C88.2358 50.7058 89.678 49.6963 90.3126 48.2542H93.0526C93.6871 49.6963 95.1293 50.7058 96.8022 50.7058C98.4751 50.7058 99.9172 49.6963 100.552 48.2542H103.292C103.926 49.6963 105.369 50.7058 107.041 50.7058C108.714 50.7058 110.157 49.6963 110.791 48.2542H121.751V73.6071H59.6237V48.2542H59.5372ZM129.856 81.7696H51.3747C51.3747 81.1062 51.3747 80.2986 51.3747 79.3179C51.3747 77.1547 53.1052 76.8663 53.8263 76.8663H127.404C129.568 76.8663 129.827 78.5969 129.856 79.3179V81.7696Z" fill="#0093D2"/>
<path d="M212.404 73.5782H209.953V1.64404C209.953 0.749914 209.232 0 208.309 0C207.386 0 206.665 0.721072 206.665 1.64404V8.19137H203.867C203.232 6.74923 201.79 5.73973 200.117 5.73973C198.445 5.73973 197.002 6.74923 196.368 8.19137H175.226C174.591 6.74923 173.149 5.73973 171.476 5.73973C169.804 5.73973 168.361 6.74923 167.727 8.19137H164.987C164.352 6.74923 162.91 5.73973 161.237 5.73973C159.564 5.73973 158.122 6.74923 157.488 8.19137H154.748C154.113 6.74923 152.671 5.73973 150.998 5.73973C149.325 5.73973 147.883 6.74923 147.248 8.19137H144.451V1.64404C144.451 0.749914 143.73 0 142.807 0C141.884 0 141.163 0.721072 141.163 1.64404V73.5782H138.711C136.403 73.5782 133 75.1069 133 79.2891V83.356C133 83.7886 133.173 84.2212 133.461 84.5097C133.779 84.827 134.183 85 134.615 85H216.356C217.25 85 218 84.279 218 83.356V79.2603C218 76.9529 216.471 73.5494 212.289 73.5494L212.404 73.5782ZM195.705 44.9661C195.07 43.5239 193.628 42.5144 191.955 42.5144C190.282 42.5144 188.84 43.5239 188.205 44.9661H185.465C184.831 43.5239 183.389 42.5144 181.716 42.5144C180.043 42.5144 178.601 43.5239 177.966 44.9661H175.226C174.591 43.5239 173.149 42.5144 171.476 42.5144C169.804 42.5144 168.361 43.5239 167.727 44.9661H164.987C164.352 43.5239 162.91 42.5144 161.237 42.5144C159.564 42.5144 158.122 43.5239 157.488 44.9661H154.748C154.113 43.5239 152.671 42.5144 150.998 42.5144C149.325 42.5144 147.883 43.5239 147.248 44.9661H144.451V35.9671H147.248C147.883 37.4092 149.325 38.4187 150.998 38.4187C152.671 38.4187 154.113 37.4092 154.748 35.9671H175.889C176.524 37.4092 177.966 38.4187 179.639 38.4187C181.312 38.4187 182.754 37.4092 183.389 35.9671H186.129C186.763 37.4092 188.205 38.4187 189.878 38.4187C191.551 38.4187 192.993 37.4092 193.628 35.9671H196.368C197.002 37.4092 198.445 38.4187 200.117 38.4187C201.79 38.4187 203.232 37.4092 203.867 35.9671H206.665V44.9661H195.705ZM147.335 23.7089C147.969 25.151 149.412 26.1605 151.085 26.1605C152.757 26.1605 154.2 25.151 154.834 23.7089H157.574C158.209 25.151 159.651 26.1605 161.324 26.1605C162.997 26.1605 164.439 25.151 165.073 23.7089H167.813C168.448 25.151 169.89 26.1605 171.563 26.1605C173.236 26.1605 174.678 25.151 175.313 23.7089H178.053C178.687 25.151 180.129 26.1605 181.802 26.1605C183.475 26.1605 184.917 25.151 185.552 23.7089H188.292C188.926 25.151 190.369 26.1605 192.041 26.1605C193.714 26.1605 195.157 25.151 195.791 23.7089H206.751V32.7078H203.954C203.319 31.2657 201.877 30.2562 200.204 30.2562C198.531 30.2562 197.089 31.2657 196.454 32.7078H193.714C193.08 31.2657 191.638 30.2562 189.965 30.2562C188.292 30.2562 186.85 31.2657 186.215 32.7078H183.475C182.841 31.2657 181.398 30.2562 179.726 30.2562C178.053 30.2562 176.61 31.2657 175.976 32.7078H154.834C154.2 31.2657 152.757 30.2562 151.085 30.2562C149.412 30.2562 147.969 31.2657 147.335 32.7078H144.537V23.7089H147.335ZM147.335 11.4506C147.969 12.8928 149.412 13.9023 151.085 13.9023C152.757 13.9023 154.2 12.8928 154.834 11.4506H157.574C158.209 12.8928 159.651 13.9023 161.324 13.9023C162.997 13.9023 164.439 12.8928 165.073 11.4506H167.813C168.448 12.8928 169.89 13.9023 171.563 13.9023C173.236 13.9023 174.678 12.8928 175.313 11.4506H196.454C197.089 12.8928 198.531 13.9023 200.204 13.9023C201.877 13.9023 203.319 12.8928 203.954 11.4506H206.751V20.4496H195.791C195.157 19.0075 193.714 17.998 192.041 17.998C190.369 17.998 188.926 19.0075 188.292 20.4496H185.552C184.917 19.0075 183.475 17.998 181.802 17.998C180.129 17.998 178.687 19.0075 178.053 20.4496H175.313C174.678 19.0075 173.236 17.998 171.563 17.998C169.89 17.998 168.448 19.0075 167.813 20.4496H165.073C164.439 19.0075 162.997 17.998 161.324 17.998C159.651 17.998 158.209 19.0075 157.574 20.4496H154.834C154.2 19.0075 152.757 17.998 151.085 17.998C149.412 17.998 147.969 19.0075 147.335 20.4496H144.537V11.4506H147.335ZM144.537 48.2542H147.335C147.969 49.6963 149.412 50.7058 151.085 50.7058C152.757 50.7058 154.2 49.6963 154.834 48.2542H157.574C158.209 49.6963 159.651 50.7058 161.324 50.7058C162.997 50.7058 164.439 49.6963 165.073 48.2542H167.813C168.448 49.6963 169.89 50.7058 171.563 50.7058C173.236 50.7058 174.678 49.6963 175.313 48.2542H178.053C178.687 49.6963 180.129 50.7058 181.802 50.7058C183.475 50.7058 184.917 49.6963 185.552 48.2542H188.292C188.926 49.6963 190.369 50.7058 192.041 50.7058C193.714 50.7058 195.157 49.6963 195.791 48.2542H206.751V73.6071H144.624V48.2542H144.537ZM214.856 81.7696H136.375C136.375 81.1062 136.375 80.2986 136.375 79.3179C136.375 77.1547 138.105 76.8663 138.826 76.8663H212.404C214.568 76.8663 214.827 78.5969 214.856 79.3179V81.7696Z" fill="#0093D2"/>
<path d="M297.404 73.5782H294.953V1.64404C294.953 0.749914 294.232 0 293.309 0C292.386 0 291.665 0.721072 291.665 1.64404V8.19137H288.867C288.232 6.74923 286.79 5.73973 285.117 5.73973C283.445 5.73973 282.002 6.74923 281.368 8.19137H260.226C259.591 6.74923 258.149 5.73973 256.476 5.73973C254.804 5.73973 253.361 6.74923 252.727 8.19137H249.987C249.352 6.74923 247.91 5.73973 246.237 5.73973C244.564 5.73973 243.122 6.74923 242.488 8.19137H239.748C239.113 6.74923 237.671 5.73973 235.998 5.73973C234.325 5.73973 232.883 6.74923 232.248 8.19137H229.451V1.64404C229.451 0.749914 228.73 0 227.807 0C226.884 0 226.163 0.721072 226.163 1.64404V73.5782H223.711C221.403 73.5782 218 75.1069 218 79.2891V83.356C218 83.7886 218.173 84.2212 218.461 84.5097C218.779 84.827 219.183 85 219.615 85H301.356C302.25 85 303 84.279 303 83.356V79.2603C303 76.9529 301.471 73.5494 297.289 73.5494L297.404 73.5782ZM280.705 44.9661C280.07 43.5239 278.628 42.5144 276.955 42.5144C275.282 42.5144 273.84 43.5239 273.205 44.9661H270.465C269.831 43.5239 268.389 42.5144 266.716 42.5144C265.043 42.5144 263.601 43.5239 262.966 44.9661H260.226C259.591 43.5239 258.149 42.5144 256.476 42.5144C254.804 42.5144 253.361 43.5239 252.727 44.9661H249.987C249.352 43.5239 247.91 42.5144 246.237 42.5144C244.564 42.5144 243.122 43.5239 242.488 44.9661H239.748C239.113 43.5239 237.671 42.5144 235.998 42.5144C234.325 42.5144 232.883 43.5239 232.248 44.9661H229.451V35.9671H232.248C232.883 37.4092 234.325 38.4187 235.998 38.4187C237.671 38.4187 239.113 37.4092 239.748 35.9671H260.889C261.524 37.4092 262.966 38.4187 264.639 38.4187C266.312 38.4187 267.754 37.4092 268.389 35.9671H271.129C271.763 37.4092 273.205 38.4187 274.878 38.4187C276.551 38.4187 277.993 37.4092 278.628 35.9671H281.368C282.002 37.4092 283.445 38.4187 285.117 38.4187C286.79 38.4187 288.232 37.4092 288.867 35.9671H291.665V44.9661H280.705ZM232.335 23.7089C232.969 25.151 234.412 26.1605 236.085 26.1605C237.757 26.1605 239.2 25.151 239.834 23.7089H242.574C243.209 25.151 244.651 26.1605 246.324 26.1605C247.997 26.1605 249.439 25.151 250.073 23.7089H252.813C253.448 25.151 254.89 26.1605 256.563 26.1605C258.236 26.1605 259.678 25.151 260.313 23.7089H263.053C263.687 25.151 265.129 26.1605 266.802 26.1605C268.475 26.1605 269.917 25.151 270.552 23.7089H273.292C273.926 25.151 275.369 26.1605 277.041 26.1605C278.714 26.1605 280.157 25.151 280.791 23.7089H291.751V32.7078H288.954C288.319 31.2657 286.877 30.2562 285.204 30.2562C283.531 30.2562 282.089 31.2657 281.454 32.7078H278.714C278.08 31.2657 276.638 30.2562 274.965 30.2562C273.292 30.2562 271.85 31.2657 271.215 32.7078H268.475C267.841 31.2657 266.398 30.2562 264.726 30.2562C263.053 30.2562 261.61 31.2657 260.976 32.7078H239.834C239.2 31.2657 237.757 30.2562 236.085 30.2562C234.412 30.2562 232.969 31.2657 232.335 32.7078H229.537V23.7089H232.335ZM232.335 11.4506C232.969 12.8928 234.412 13.9023 236.085 13.9023C237.757 13.9023 239.2 12.8928 239.834 11.4506H242.574C243.209 12.8928 244.651 13.9023 246.324 13.9023C247.997 13.9023 249.439 12.8928 250.073 11.4506H252.813C253.448 12.8928 254.89 13.9023 256.563 13.9023C258.236 13.9023 259.678 12.8928 260.313 11.4506H281.454C282.089 12.8928 283.531 13.9023 285.204 13.9023C286.877 13.9023 288.319 12.8928 288.954 11.4506H291.751V20.4496H280.791C280.157 19.0075 278.714 17.998 277.041 17.998C275.369 17.998 273.926 19.0075 273.292 20.4496H270.552C269.917 19.0075 268.475 17.998 266.802 17.998C265.129 17.998 263.687 19.0075 263.053 20.4496H260.313C259.678 19.0075 258.236 17.998 256.563 17.998C254.89 17.998 253.448 19.0075 252.813 20.4496H250.073C249.439 19.0075 247.997 17.998 246.324 17.998C244.651 17.998 243.209 19.0075 242.574 20.4496H239.834C239.2 19.0075 237.757 17.998 236.085 17.998C234.412 17.998 232.969 19.0075 232.335 20.4496H229.537V11.4506H232.335ZM229.537 48.2542H232.335C232.969 49.6963 234.412 50.7058 236.085 50.7058C237.757 50.7058 239.2 49.6963 239.834 48.2542H242.574C243.209 49.6963 244.651 50.7058 246.324 50.7058C247.997 50.7058 249.439 49.6963 250.073 48.2542H252.813C253.448 49.6963 254.89 50.7058 256.563 50.7058C258.236 50.7058 259.678 49.6963 260.313 48.2542H263.053C263.687 49.6963 265.129 50.7058 266.802 50.7058C268.475 50.7058 269.917 49.6963 270.552 48.2542H273.292C273.926 49.6963 275.369 50.7058 277.041 50.7058C278.714 50.7058 280.157 49.6963 280.791 48.2542H291.751V73.6071H229.624V48.2542H229.537ZM299.856 81.7696H221.375C221.375 81.1062 221.375 80.2986 221.375 79.3179C221.375 77.1547 223.105 76.8663 223.826 76.8663H297.404C299.568 76.8663 299.827 78.5969 299.856 79.3179V81.7696Z" fill="#0093D2"/>
<path d="M382.404 73.5782H379.953V1.64404C379.953 0.749914 379.232 0 378.309 0C377.386 0 376.665 0.721072 376.665 1.64404V8.19137H373.867C373.232 6.74923 371.79 5.73973 370.117 5.73973C368.445 5.73973 367.002 6.74923 366.368 8.19137H345.226C344.591 6.74923 343.149 5.73973 341.476 5.73973C339.804 5.73973 338.361 6.74923 337.727 8.19137H334.987C334.352 6.74923 332.91 5.73973 331.237 5.73973C329.564 5.73973 328.122 6.74923 327.488 8.19137H324.748C324.113 6.74923 322.671 5.73973 320.998 5.73973C319.325 5.73973 317.883 6.74923 317.248 8.19137H314.451V1.64404C314.451 0.749914 313.73 0 312.807 0C311.884 0 311.163 0.721072 311.163 1.64404V73.5782H308.711C306.403 73.5782 303 75.1069 303 79.2891V83.356C303 83.7886 303.173 84.2212 303.461 84.5097C303.779 84.827 304.183 85 304.615 85H386.356C387.25 85 388 84.279 388 83.356V79.2603C388 76.9529 386.471 73.5494 382.289 73.5494L382.404 73.5782ZM365.705 44.9661C365.07 43.5239 363.628 42.5144 361.955 42.5144C360.282 42.5144 358.84 43.5239 358.205 44.9661H355.465C354.831 43.5239 353.389 42.5144 351.716 42.5144C350.043 42.5144 348.601 43.5239 347.966 44.9661H345.226C344.591 43.5239 343.149 42.5144 341.476 42.5144C339.804 42.5144 338.361 43.5239 337.727 44.9661H334.987C334.352 43.5239 332.91 42.5144 331.237 42.5144C329.564 42.5144 328.122 43.5239 327.488 44.9661H324.748C324.113 43.5239 322.671 42.5144 320.998 42.5144C319.325 42.5144 317.883 43.5239 317.248 44.9661H314.451V35.9671H317.248C317.883 37.4092 319.325 38.4187 320.998 38.4187C322.671 38.4187 324.113 37.4092 324.748 35.9671H345.889C346.524 37.4092 347.966 38.4187 349.639 38.4187C351.312 38.4187 352.754 37.4092 353.389 35.9671H356.129C356.763 37.4092 358.205 38.4187 359.878 38.4187C361.551 38.4187 362.993 37.4092 363.628 35.9671H366.368C367.002 37.4092 368.445 38.4187 370.117 38.4187C371.79 38.4187 373.232 37.4092 373.867 35.9671H376.665V44.9661H365.705ZM317.335 23.7089C317.969 25.151 319.412 26.1605 321.085 26.1605C322.757 26.1605 324.2 25.151 324.834 23.7089H327.574C328.209 25.151 329.651 26.1605 331.324 26.1605C332.997 26.1605 334.439 25.151 335.073 23.7089H337.813C338.448 25.151 339.89 26.1605 341.563 26.1605C343.236 26.1605 344.678 25.151 345.313 23.7089H348.053C348.687 25.151 350.129 26.1605 351.802 26.1605C353.475 26.1605 354.917 25.151 355.552 23.7089H358.292C358.926 25.151 360.369 26.1605 362.041 26.1605C363.714 26.1605 365.157 25.151 365.791 23.7089H376.751V32.7078H373.954C373.319 31.2657 371.877 30.2562 370.204 30.2562C368.531 30.2562 367.089 31.2657 366.454 32.7078H363.714C363.08 31.2657 361.638 30.2562 359.965 30.2562C358.292 30.2562 356.85 31.2657 356.215 32.7078H353.475C352.841 31.2657 351.398 30.2562 349.726 30.2562C348.053 30.2562 346.61 31.2657 345.976 32.7078H324.834C324.2 31.2657 322.757 30.2562 321.085 30.2562C319.412 30.2562 317.969 31.2657 317.335 32.7078H314.537V23.7089H317.335ZM317.335 11.4506C317.969 12.8928 319.412 13.9023 321.085 13.9023C322.757 13.9023 324.2 12.8928 324.834 11.4506H327.574C328.209 12.8928 329.651 13.9023 331.324 13.9023C332.997 13.9023 334.439 12.8928 335.073 11.4506H337.813C338.448 12.8928 339.89 13.9023 341.563 13.9023C343.236 13.9023 344.678 12.8928 345.313 11.4506H366.454C367.089 12.8928 368.531 13.9023 370.204 13.9023C371.877 13.9023 373.319 12.8928 373.954 11.4506H376.751V20.4496H365.791C365.157 19.0075 363.714 17.998 362.041 17.998C360.369 17.998 358.926 19.0075 358.292 20.4496H355.552C354.917 19.0075 353.475 17.998 351.802 17.998C350.129 17.998 348.687 19.0075 348.053 20.4496H345.313C344.678 19.0075 343.236 17.998 341.563 17.998C339.89 17.998 338.448 19.0075 337.813 20.4496H335.073C334.439 19.0075 332.997 17.998 331.324 17.998C329.651 17.998 328.209 19.0075 327.574 20.4496H324.834C324.2 19.0075 322.757 17.998 321.085 17.998C319.412 17.998 317.969 19.0075 317.335 20.4496H314.537V11.4506H317.335ZM314.537 48.2542H317.335C317.969 49.6963 319.412 50.7058 321.085 50.7058C322.757 50.7058 324.2 49.6963 324.834 48.2542H327.574C328.209 49.6963 329.651 50.7058 331.324 50.7058C332.997 50.7058 334.439 49.6963 335.073 48.2542H337.813C338.448 49.6963 339.89 50.7058 341.563 50.7058C343.236 50.7058 344.678 49.6963 345.313 48.2542H348.053C348.687 49.6963 350.129 50.7058 351.802 50.7058C353.475 50.7058 354.917 49.6963 355.552 48.2542H358.292C358.926 49.6963 360.369 50.7058 362.041 50.7058C363.714 50.7058 365.157 49.6963 365.791 48.2542H376.751V73.6071H314.624V48.2542H314.537ZM384.856 81.7696H306.375C306.375 81.1062 306.375 80.2986 306.375 79.3179C306.375 77.1547 308.105 76.8663 308.826 76.8663H382.404C384.568 76.8663 384.827 78.5969 384.856 79.3179V81.7696Z" fill="#0093D2"/>
</g>
<path d="M212.404 115.578H209.953V43.644C209.953 42.7499 209.232 42 208.309 42C207.386 42 206.665 42.7211 206.665 43.644V50.1914H203.867C203.232 48.7492 201.79 47.7397 200.117 47.7397C198.445 47.7397 197.002 48.7492 196.368 50.1914H175.226C174.591 48.7492 173.149 47.7397 171.476 47.7397C169.804 47.7397 168.361 48.7492 167.727 50.1914H164.987C164.352 48.7492 162.91 47.7397 161.237 47.7397C159.564 47.7397 158.122 48.7492 157.488 50.1914H154.748C154.113 48.7492 152.671 47.7397 150.998 47.7397C149.325 47.7397 147.883 48.7492 147.248 50.1914H144.451V43.644C144.451 42.7499 143.73 42 142.807 42C141.884 42 141.163 42.7211 141.163 43.644V115.578H138.711C136.403 115.578 133 117.107 133 121.289V125.356C133 125.789 133.173 126.221 133.461 126.51C133.779 126.827 134.183 127 134.615 127H216.356C217.25 127 218 126.279 218 125.356V121.26C218 118.953 216.471 115.549 212.289 115.549L212.404 115.578ZM195.705 86.9661C195.07 85.5239 193.628 84.5144 191.955 84.5144C190.282 84.5144 188.84 85.5239 188.205 86.9661H185.465C184.831 85.5239 183.389 84.5144 181.716 84.5144C180.043 84.5144 178.601 85.5239 177.966 86.9661H175.226C174.591 85.5239 173.149 84.5144 171.476 84.5144C169.804 84.5144 168.361 85.5239 167.727 86.9661H164.987C164.352 85.5239 162.91 84.5144 161.237 84.5144C159.564 84.5144 158.122 85.5239 157.488 86.9661H154.748C154.113 85.5239 152.671 84.5144 150.998 84.5144C149.325 84.5144 147.883 85.5239 147.248 86.9661H144.451V77.9671H147.248C147.883 79.4092 149.325 80.4187 150.998 80.4187C152.671 80.4187 154.113 79.4092 154.748 77.9671H175.889C176.524 79.4092 177.966 80.4187 179.639 80.4187C181.312 80.4187 182.754 79.4092 183.389 77.9671H186.129C186.763 79.4092 188.205 80.4187 189.878 80.4187C191.551 80.4187 192.993 79.4092 193.628 77.9671H196.368C197.002 79.4092 198.445 80.4187 200.117 80.4187C201.79 80.4187 203.232 79.4092 203.867 77.9671H206.665V86.9661H195.705ZM147.335 65.7089C147.969 67.151 149.412 68.1605 151.085 68.1605C152.757 68.1605 154.2 67.151 154.834 65.7089H157.574C158.209 67.151 159.651 68.1605 161.324 68.1605C162.997 68.1605 164.439 67.151 165.073 65.7089H167.813C168.448 67.151 169.89 68.1605 171.563 68.1605C173.236 68.1605 174.678 67.151 175.313 65.7089H178.053C178.687 67.151 180.129 68.1605 181.802 68.1605C183.475 68.1605 184.917 67.151 185.552 65.7089H188.292C188.926 67.151 190.369 68.1605 192.041 68.1605C193.714 68.1605 195.157 67.151 195.791 65.7089H206.751V74.7078H203.954C203.319 73.2657 201.877 72.2562 200.204 72.2562C198.531 72.2562 197.089 73.2657 196.454 74.7078H193.714C193.08 73.2657 191.638 72.2562 189.965 72.2562C188.292 72.2562 186.85 73.2657 186.215 74.7078H183.475C182.841 73.2657 181.398 72.2562 179.726 72.2562C178.053 72.2562 176.61 73.2657 175.976 74.7078H154.834C154.2 73.2657 152.757 72.2562 151.085 72.2562C149.412 72.2562 147.969 73.2657 147.335 74.7078H144.537V65.7089H147.335ZM147.335 53.4506C147.969 54.8928 149.412 55.9023 151.085 55.9023C152.757 55.9023 154.2 54.8928 154.834 53.4506H157.574C158.209 54.8928 159.651 55.9023 161.324 55.9023C162.997 55.9023 164.439 54.8928 165.073 53.4506H167.813C168.448 54.8928 169.89 55.9023 171.563 55.9023C173.236 55.9023 174.678 54.8928 175.313 53.4506H196.454C197.089 54.8928 198.531 55.9023 200.204 55.9023C201.877 55.9023 203.319 54.8928 203.954 53.4506H206.751V62.4496H195.791C195.157 61.0075 193.714 59.998 192.041 59.998C190.369 59.998 188.926 61.0075 188.292 62.4496H185.552C184.917 61.0075 183.475 59.998 181.802 59.998C180.129 59.998 178.687 61.0075 178.053 62.4496H175.313C174.678 61.0075 173.236 59.998 171.563 59.998C169.89 59.998 168.448 61.0075 167.813 62.4496H165.073C164.439 61.0075 162.997 59.998 161.324 59.998C159.651 59.998 158.209 61.0075 157.574 62.4496H154.834C154.2 61.0075 152.757 59.998 151.085 59.998C149.412 59.998 147.969 61.0075 147.335 62.4496H144.537V53.4506H147.335ZM144.537 90.2542H147.335C147.969 91.6963 149.412 92.7058 151.085 92.7058C152.757 92.7058 154.2 91.6963 154.834 90.2542H157.574C158.209 91.6963 159.651 92.7058 161.324 92.7058C162.997 92.7058 164.439 91.6963 165.073 90.2542H167.813C168.448 91.6963 169.89 92.7058 171.563 92.7058C173.236 92.7058 174.678 91.6963 175.313 90.2542H178.053C178.687 91.6963 180.129 92.7058 181.802 92.7058C183.475 92.7058 184.917 91.6963 185.552 90.2542H188.292C188.926 91.6963 190.369 92.7058 192.041 92.7058C193.714 92.7058 195.157 91.6963 195.791 90.2542H206.751V115.607H144.624V90.2542H144.537ZM214.856 123.77H136.375C136.375 123.106 136.375 122.299 136.375 121.318C136.375 119.155 138.105 118.866 138.826 118.866H212.404C214.568 118.866 214.827 120.597 214.856 121.318V123.77Z" fill="#0085BD"/>
</g>
<defs>
<filter id="filter0_f_68_7050" x="-41" y="-4" width="433" height="178" filterUnits="userSpaceOnUse" color-interpolation-filters="sRGB">
<feFlood flood-opacity="0" result="BackgroundImageFix"/>
<feBlend mode="normal" in="SourceGraphic" in2="BackgroundImageFix" result="shape"/>
<feGaussianBlur stdDeviation="2" result="effect1_foregroundBlur_68_7050"/>
</filter>
<clipPath id="clip0_68_7050">
<rect width="352" height="170" fill="white"/>
</clipPath>
</defs>
</svg>
