<svg width="352" height="170" viewBox="0 0 352 170" fill="none" xmlns="http://www.w3.org/2000/svg">
<g clip-path="url(#clip0_68_7609)">
<rect width="352" height="170" fill="#A4DBF7"/>
<g opacity="0.16" filter="url(#filter0_f_68_7609)">
<path d="M-4 85H9.66233V50.9512H-4V85ZM-0.546199 54.405H6.17798V81.5157H-0.546199V54.405Z" fill="#0093D2"/>
<path d="M15.1028 84.9998H28.7651V40.7729H15.1028V84.9998ZM18.5566 44.2268H25.2808V81.546H18.5566V44.2268Z" fill="#0093D2"/>
<path d="M34.2362 85H47.8985V24.2073H34.2362V85ZM37.69 27.6611H44.4141V81.5157H37.69V27.6611Z" fill="#0093D2"/>
<path d="M53.339 84.9998H67.0013V0H53.339V84.9998ZM56.7927 3.4538H63.5169V81.546H56.7927V3.4538Z" fill="#0093D2"/>
<path d="M72.4418 10.1782V85H86.1041V10.1782H72.4418ZM82.6197 81.5157H75.8955V13.6319H82.6197V81.5157Z" fill="#0093D2"/>
<path d="M-4 170H9.66233V135.951H-4V170ZM-0.546199 139.405H6.17798V166.516H-0.546199V139.405Z" fill="#0093D2"/>
<path d="M15.1028 170H28.7651V125.773H15.1028V170ZM18.5566 129.227H25.2808V166.546H18.5566V129.227Z" fill="#0093D2"/>
<path d="M34.2362 170H47.8985V109.207H34.2362V170ZM37.69 112.661H44.4141V166.516H37.69V112.661Z" fill="#0093D2"/>
<path d="M53.339 170H67.0013V85H53.339V170ZM56.7927 88.4538H63.5169V166.546H56.7927V88.4538Z" fill="#0093D2"/>
<path d="M72.4418 95.1782V170H86.1041V95.1782H72.4418ZM82.6197 166.516H75.8955V98.6319H82.6197V166.516Z" fill="#0093D2"/>
<path d="M86 85H99.6623V50.9512H86V85ZM89.4538 54.405H96.178V81.5157H89.4538V54.405Z" fill="#0093D2"/>
<path d="M105.103 84.9998H118.765V40.7729H105.103V84.9998ZM108.557 44.2268H115.281V81.546H108.557V44.2268Z" fill="#0093D2"/>
<path d="M124.236 85H137.898V24.2073H124.236V85ZM127.69 27.6611H134.414V81.5157H127.69V27.6611Z" fill="#0093D2"/>
<path d="M143.339 84.9998H157.001V0H143.339V84.9998ZM146.793 3.4538H153.517V81.546H146.793V3.4538Z" fill="#0093D2"/>
<path d="M162.442 10.1782V85H176.104V10.1782H162.442ZM172.62 81.5157H165.896V13.6319H172.62V81.5157Z" fill="#0093D2"/>
<path d="M86 170H99.6623V135.951H86V170ZM89.4538 139.405H96.178V166.516H89.4538V139.405Z" fill="#0093D2"/>
<path d="M105.103 170H118.765V125.773H105.103V170ZM108.557 129.227H115.281V166.546H108.557V129.227Z" fill="#0093D2"/>
<path d="M124.236 170H137.898V109.207H124.236V170ZM127.69 112.661H134.414V166.516H127.69V112.661Z" fill="#0093D2"/>
<path d="M143.339 170H157.001V85H143.339V170ZM146.793 88.4538H153.517V166.546H146.793V88.4538Z" fill="#0093D2"/>
<path d="M162.442 95.1782V170H176.104V95.1782H162.442ZM172.62 166.516H165.896V98.6319H172.62V166.516Z" fill="#0093D2"/>
<path d="M176 85H189.662V50.9512H176V85ZM179.454 54.405H186.178V81.5157H179.454V54.405Z" fill="#0093D2"/>
<path d="M195.103 84.9998H208.765V40.7729H195.103V84.9998ZM198.557 44.2268H205.281V81.546H198.557V44.2268Z" fill="#0093D2"/>
<path d="M214.236 85H227.898V24.2073H214.236V85ZM217.69 27.6611H224.414V81.5157H217.69V27.6611Z" fill="#0093D2"/>
<path d="M233.339 84.9998H247.001V0H233.339V84.9998ZM236.793 3.4538H243.517V81.546H236.793V3.4538Z" fill="#0093D2"/>
<path d="M252.442 10.1782V85H266.104V10.1782H252.442ZM262.62 81.5157H255.896V13.6319H262.62V81.5157Z" fill="#0093D2"/>
<path d="M176 170H189.662V135.951H176V170ZM179.454 139.405H186.178V166.516H179.454V139.405Z" fill="#0093D2"/>
<path d="M195.103 170H208.765V125.773H195.103V170ZM198.557 129.227H205.281V166.546H198.557V129.227Z" fill="#0093D2"/>
<path d="M214.236 170H227.898V109.207H214.236V170ZM217.69 112.661H224.414V166.516H217.69V112.661Z" fill="#0093D2"/>
<path d="M233.339 170H247.001V85H233.339V170ZM236.793 88.4538H243.517V166.546H236.793V88.4538Z" fill="#0093D2"/>
<path d="M252.442 95.1782V170H266.104V95.1782H252.442ZM262.62 166.516H255.896V98.6319H262.62V166.516Z" fill="#0093D2"/>
<path d="M266 85H279.662V50.9512H266V85ZM269.454 54.405H276.178V81.5157H269.454V54.405Z" fill="#0093D2"/>
<path d="M285.103 84.9998H298.765V40.7729H285.103V84.9998ZM288.557 44.2268H295.281V81.546H288.557V44.2268Z" fill="#0093D2"/>
<path d="M304.236 85H317.898V24.2073H304.236V85ZM307.69 27.6611H314.414V81.5157H307.69V27.6611Z" fill="#0093D2"/>
<path d="M323.339 84.9998H337.001V0H323.339V84.9998ZM326.793 3.4538H333.517V81.546H326.793V3.4538Z" fill="#0093D2"/>
<path d="M342.442 10.1782V85H356.104V10.1782H342.442ZM352.62 81.5157H345.896V13.6319H352.62V81.5157Z" fill="#0093D2"/>
<path d="M266 170H279.662V135.951H266V170ZM269.454 139.405H276.178V166.516H269.454V139.405Z" fill="#0093D2"/>
<path d="M285.103 170H298.765V125.773H285.103V170ZM288.557 129.227H295.281V166.546H288.557V129.227Z" fill="#0093D2"/>
<path d="M304.236 170H317.898V109.207H304.236V170ZM307.69 112.661H314.414V166.516H307.69V112.661Z" fill="#0093D2"/>
<path d="M323.339 170H337.001V85H323.339V170ZM326.793 88.4538H333.517V166.546H326.793V88.4538Z" fill="#0093D2"/>
<path d="M342.442 95.1782V170H356.104V95.1782H342.442ZM352.62 166.516H345.896V98.6319H352.62V166.516Z" fill="#0093D2"/>
</g>
<path d="M131 128H144.662V93.9512H131V128ZM134.454 97.405H141.178V124.516H134.454V97.405Z" fill="#0085BD"/>
<path d="M150.103 128H163.765V83.7729H150.103V128ZM153.557 87.2268H160.281V124.546H153.557V87.2268Z" fill="#0085BD"/>
<path d="M169.236 128H182.898V67.2073H169.236V128ZM172.69 70.6611H179.414V124.516H172.69V70.6611Z" fill="#0085BD"/>
<path d="M188.339 128H202.001V43H188.339V128ZM191.793 46.4538H198.517V124.546H191.793V46.4538Z" fill="#0085BD"/>
<path d="M207.442 53.1782V128H221.104V53.1782H207.442ZM217.62 124.516H210.896V56.6319H217.62V124.516Z" fill="#0085BD"/>
</g>
<defs>
<filter id="filter0_f_68_7609" x="-8" y="-4" width="368.104" height="178" filterUnits="userSpaceOnUse" color-interpolation-filters="sRGB">
<feFlood flood-opacity="0" result="BackgroundImageFix"/>
<feBlend mode="normal" in="SourceGraphic" in2="BackgroundImageFix" result="shape"/>
<feGaussianBlur stdDeviation="2" result="effect1_foregroundBlur_68_7609"/>
</filter>
<clipPath id="clip0_68_7609">
<rect width="352" height="170" fill="white"/>
</clipPath>
</defs>
</svg>
