<svg width="352" height="170" viewBox="0 0 352 170" fill="none" xmlns="http://www.w3.org/2000/svg">
<g clip-path="url(#clip0_68_6752)">
<rect width="352" height="170" fill="#A4DBF7"/>
<path d="M165.947 76.899C168.888 73.6012 170.374 69.4715 170.374 64.6585V60.618C170.374 55.5376 168.888 51.2891 165.947 47.9913C162.976 44.6638 159.203 43 154.717 43C150.23 43 146.487 44.6638 143.486 47.9616C140.515 51.2594 139 55.4187 139 60.3209V64.302C139 69.4418 140.515 73.72 143.516 76.9584C146.517 80.2265 150.319 81.8605 154.835 81.8605C159.351 81.8605 163.035 80.1968 165.977 76.899H165.947ZM154.717 46.8623C158.252 46.8623 161.015 48.0804 163.184 50.6057C165.353 53.1311 166.452 56.3992 166.452 60.3209V64.3911C166.452 68.4317 165.382 71.7592 163.243 74.2845C161.134 76.7802 158.311 78.028 154.835 78.028C151.359 78.028 148.329 76.7504 146.19 74.2251C144.051 71.6998 142.951 68.4911 142.951 64.6882V60.7368C142.951 56.5477 144.08 53.1311 146.279 50.6355C148.477 48.1398 151.33 46.892 154.746 46.892L154.717 46.8623Z" fill="#0085BD"/>
<path d="M196.964 54.7356L194.439 52.9827C194.439 52.9827 194.231 52.8936 194.112 52.9233C193.993 52.9233 193.904 53.0124 193.845 53.1016L153.885 117.067C153.766 117.245 153.825 117.513 154.004 117.631L156.529 119.384C156.529 119.384 156.678 119.473 156.767 119.473C156.767 119.473 156.826 119.473 156.856 119.473C156.975 119.473 157.064 119.384 157.123 119.295L197.083 55.3001C197.202 55.1218 197.142 54.8544 196.964 54.7356Z" fill="#0085BD"/>
<path d="M208.403 94.0119C205.432 90.7438 201.658 89.0801 197.172 89.0801C192.686 89.0801 188.942 90.7438 185.971 94.0119C183.03 97.28 181.515 101.41 181.515 106.342V110.441C181.515 115.611 183.03 119.86 186.031 123.098C189.032 126.366 192.834 128 197.291 128C201.747 128 205.432 126.336 208.403 123.068C211.374 119.8 212.889 115.641 212.889 110.739V106.757C212.889 101.588 211.374 97.28 208.403 94.0119ZM197.291 124.138C193.726 124.138 190.814 122.89 188.675 120.394C186.536 117.899 185.437 114.66 185.437 110.739V106.549C185.437 102.39 186.506 99.0329 188.616 96.5967C190.725 94.1605 193.577 92.9423 197.172 92.9423C200.767 92.9423 203.619 94.101 205.758 96.5372C207.868 98.9437 208.967 102.242 208.967 106.342V110.471C208.967 114.512 207.897 117.839 205.758 120.394C203.619 122.92 200.856 124.167 197.291 124.167V124.138Z" fill="#0085BD"/>
<g opacity="0.16">
<g filter="url(#filter0_f_68_6752)">
<path d="M313.947 118.899C316.888 115.601 318.374 111.472 318.374 106.659V102.618C318.374 97.5376 316.888 93.2891 313.947 89.9913C310.976 86.6638 307.203 85 302.717 85C298.23 85 294.487 86.6638 291.486 89.9616C288.515 93.2594 287 97.4187 287 102.321V106.302C287 111.442 288.515 115.72 291.516 118.958C294.517 122.226 298.319 123.861 302.835 123.861C307.351 123.861 311.035 122.197 313.977 118.899H313.947ZM302.717 88.8623C306.252 88.8623 309.015 90.0804 311.184 92.6057C313.353 95.1311 314.452 98.3992 314.452 102.321V106.391C314.452 110.432 313.382 113.759 311.243 116.285C309.134 118.78 306.311 120.028 302.835 120.028C299.359 120.028 296.329 118.75 294.19 116.225C292.051 113.7 290.951 110.491 290.951 106.688V102.737C290.951 98.5477 292.08 95.1311 294.279 92.6355C296.477 90.1398 299.33 88.892 302.746 88.892L302.717 88.8623Z" fill="#0093D2"/>
<path d="M344.964 96.7356L342.439 94.9827C342.439 94.9827 342.231 94.8936 342.112 94.9233C341.993 94.9233 341.904 95.0124 341.845 95.1016L301.885 159.067C301.766 159.245 301.825 159.513 302.004 159.631L304.529 161.384C304.529 161.384 304.678 161.473 304.767 161.473C304.767 161.473 304.826 161.473 304.856 161.473C304.975 161.473 305.064 161.384 305.123 161.295L345.083 97.3001C345.202 97.1218 345.142 96.8544 344.964 96.7356Z" fill="#0093D2"/>
<path d="M356.403 136.012C353.432 132.744 349.658 131.08 345.172 131.08C340.686 131.08 336.942 132.744 333.971 136.012C331.03 139.28 329.515 143.41 329.515 148.342V152.441C329.515 157.611 331.03 161.86 334.031 165.098C337.032 168.366 340.834 170 345.291 170C349.747 170 353.432 168.336 356.403 165.068C359.374 161.8 360.889 157.641 360.889 152.739V148.757C360.889 143.588 359.374 139.28 356.403 136.012ZM345.291 166.138C341.726 166.138 338.814 164.89 336.675 162.394C334.536 159.899 333.437 156.66 333.437 152.739V148.549C333.437 144.39 334.506 141.033 336.616 138.597C338.725 136.16 341.577 134.942 345.172 134.942C348.767 134.942 351.619 136.101 353.758 138.537C355.868 140.944 356.967 144.242 356.967 148.342V152.471C356.967 156.512 355.897 159.839 353.758 162.394C351.619 164.92 348.856 166.167 345.291 166.167V166.138Z" fill="#0093D2"/>
</g>
<g filter="url(#filter1_f_68_6752)">
<path d="M313.947 33.899C316.888 30.6012 318.374 26.4715 318.374 21.6585V17.618C318.374 12.5376 316.888 8.28906 313.947 4.99126C310.976 1.66375 307.203 0 302.717 0C298.23 0 294.487 1.66377 291.486 4.96157C288.515 8.25937 287 12.4187 287 17.3209V21.302C287 26.4418 288.515 30.72 291.516 33.9584C294.517 37.2265 298.319 38.8605 302.835 38.8605C307.351 38.8605 311.035 37.1968 313.977 33.899H313.947ZM302.717 3.86229C306.252 3.86229 309.015 5.08041 311.184 7.60575C313.353 10.1311 314.452 13.3992 314.452 17.3209V21.3911C314.452 25.4317 313.382 28.7592 311.243 31.2845C309.134 33.7802 306.311 35.028 302.835 35.028C299.359 35.028 296.329 33.7504 294.19 31.2251C292.051 28.6998 290.951 25.4911 290.951 21.6882V17.7368C290.951 13.5477 292.08 10.1311 294.279 7.63546C296.477 5.13983 299.33 3.89201 302.746 3.89201L302.717 3.86229Z" fill="#0093D2"/>
<path d="M344.964 11.7356L342.439 9.98271C342.439 9.98271 342.231 9.89359 342.112 9.9233C341.993 9.9233 341.904 10.0124 341.845 10.1016L301.885 74.067C301.766 74.2452 301.825 74.5126 302.004 74.6315L304.529 76.3843C304.529 76.3843 304.678 76.4735 304.767 76.4735C304.767 76.4735 304.826 76.4735 304.856 76.4735C304.975 76.4735 305.064 76.3843 305.123 76.2952L345.083 12.3001C345.202 12.1218 345.142 11.8544 344.964 11.7356Z" fill="#0093D2"/>
<path d="M356.403 51.0119C353.432 47.7438 349.658 46.0801 345.172 46.0801C340.686 46.0801 336.942 47.7438 333.971 51.0119C331.03 54.28 329.515 58.4097 329.515 63.3415V67.4415C329.515 72.611 331.03 76.8595 334.031 80.0979C337.032 83.366 340.834 85 345.291 85C349.747 85 353.432 83.3362 356.403 80.0682C359.374 76.8001 360.889 72.6407 360.889 67.7386V63.7575C360.889 58.5879 359.374 54.28 356.403 51.0119ZM345.291 81.1377C341.726 81.1377 338.814 79.8899 336.675 77.3943C334.536 74.8987 333.437 71.6603 333.437 67.7386V63.5495C333.437 59.3901 334.506 56.0329 336.616 53.5967C338.725 51.1605 341.577 49.9423 345.172 49.9423C348.767 49.9423 351.619 51.101 353.758 53.5372C355.868 55.9437 356.967 59.2416 356.967 63.3415V67.4712C356.967 71.5117 355.897 74.8392 353.758 77.3943C351.619 79.9196 348.856 81.1674 345.291 81.1674V81.1377Z" fill="#0093D2"/>
</g>
<g filter="url(#filter2_f_68_6752)">
<path d="M239.947 33.899C242.888 30.6012 244.374 26.4715 244.374 21.6585V17.618C244.374 12.5376 242.888 8.28906 239.947 4.99126C236.976 1.66375 233.203 0 228.717 0C224.23 0 220.487 1.66377 217.486 4.96157C214.515 8.25937 213 12.4187 213 17.3209V21.302C213 26.4418 214.515 30.72 217.516 33.9584C220.517 37.2265 224.319 38.8605 228.835 38.8605C233.351 38.8605 237.035 37.1968 239.977 33.899H239.947ZM228.717 3.86229C232.252 3.86229 235.015 5.08041 237.184 7.60575C239.353 10.1311 240.452 13.3992 240.452 17.3209V21.3911C240.452 25.4317 239.382 28.7592 237.243 31.2845C235.134 33.7802 232.311 35.028 228.835 35.028C225.359 35.028 222.329 33.7504 220.19 31.2251C218.051 28.6998 216.951 25.4911 216.951 21.6882V17.7368C216.951 13.5477 218.08 10.1311 220.279 7.63546C222.477 5.13983 225.33 3.89201 228.746 3.89201L228.717 3.86229Z" fill="#0093D2"/>
<path d="M270.964 11.7356L268.439 9.98271C268.439 9.98271 268.231 9.89359 268.112 9.9233C267.993 9.9233 267.904 10.0124 267.845 10.1016L227.885 74.067C227.766 74.2452 227.825 74.5126 228.004 74.6315L230.529 76.3843C230.529 76.3843 230.678 76.4735 230.767 76.4735C230.767 76.4735 230.826 76.4735 230.856 76.4735C230.975 76.4735 231.064 76.3843 231.123 76.2952L271.083 12.3001C271.202 12.1218 271.142 11.8544 270.964 11.7356Z" fill="#0093D2"/>
<path d="M282.403 51.0119C279.432 47.7438 275.658 46.0801 271.172 46.0801C266.686 46.0801 262.942 47.7438 259.971 51.0119C257.03 54.28 255.515 58.4097 255.515 63.3415V67.4415C255.515 72.611 257.03 76.8595 260.031 80.0979C263.032 83.366 266.834 85 271.291 85C275.747 85 279.432 83.3362 282.403 80.0682C285.374 76.8001 286.889 72.6407 286.889 67.7386V63.7575C286.889 58.5879 285.374 54.28 282.403 51.0119ZM271.291 81.1377C267.726 81.1377 264.814 79.8899 262.675 77.3943C260.536 74.8987 259.437 71.6603 259.437 67.7386V63.5495C259.437 59.3901 260.506 56.0329 262.616 53.5967C264.725 51.1605 267.577 49.9423 271.172 49.9423C274.767 49.9423 277.619 51.101 279.758 53.5372C281.868 55.9437 282.967 59.2416 282.967 63.3415V67.4712C282.967 71.5117 281.897 74.8392 279.758 77.3943C277.619 79.9196 274.856 81.1674 271.291 81.1674V81.1377Z" fill="#0093D2"/>
</g>
<g filter="url(#filter3_f_68_6752)">
<path d="M165.947 33.899C168.888 30.6012 170.374 26.4715 170.374 21.6585V17.618C170.374 12.5376 168.888 8.28906 165.947 4.99126C162.976 1.66375 159.203 0 154.717 0C150.23 0 146.487 1.66377 143.486 4.96157C140.515 8.25937 139 12.4187 139 17.3209V21.302C139 26.4418 140.515 30.72 143.516 33.9584C146.517 37.2265 150.319 38.8605 154.835 38.8605C159.351 38.8605 163.035 37.1968 165.977 33.899H165.947ZM154.717 3.86229C158.252 3.86229 161.015 5.08041 163.184 7.60575C165.353 10.1311 166.452 13.3992 166.452 17.3209V21.3911C166.452 25.4317 165.382 28.7592 163.243 31.2845C161.134 33.7802 158.311 35.028 154.835 35.028C151.359 35.028 148.329 33.7504 146.19 31.2251C144.051 28.6998 142.951 25.4911 142.951 21.6882V17.7368C142.951 13.5477 144.08 10.1311 146.279 7.63546C148.477 5.13983 151.33 3.89201 154.746 3.89201L154.717 3.86229Z" fill="#0093D2"/>
<path d="M196.964 11.7356L194.439 9.98271C194.439 9.98271 194.231 9.89359 194.112 9.9233C193.993 9.9233 193.904 10.0124 193.845 10.1016L153.885 74.067C153.766 74.2452 153.825 74.5126 154.004 74.6315L156.529 76.3843C156.529 76.3843 156.678 76.4735 156.767 76.4735C156.767 76.4735 156.826 76.4735 156.856 76.4735C156.975 76.4735 157.064 76.3843 157.123 76.2952L197.083 12.3001C197.202 12.1218 197.142 11.8544 196.964 11.7356Z" fill="#0093D2"/>
<path d="M208.403 51.0119C205.432 47.7438 201.658 46.0801 197.172 46.0801C192.686 46.0801 188.942 47.7438 185.971 51.0119C183.03 54.28 181.515 58.4097 181.515 63.3415V67.4415C181.515 72.611 183.03 76.8595 186.031 80.0979C189.032 83.366 192.834 85 197.291 85C201.747 85 205.432 83.3362 208.403 80.0682C211.374 76.8001 212.889 72.6407 212.889 67.7386V63.7575C212.889 58.5879 211.374 54.28 208.403 51.0119ZM197.291 81.1377C193.726 81.1377 190.814 79.8899 188.675 77.3943C186.536 74.8987 185.437 71.6603 185.437 67.7386V63.5495C185.437 59.3901 186.506 56.0329 188.616 53.5967C190.725 51.1605 193.577 49.9423 197.172 49.9423C200.767 49.9423 203.619 51.101 205.758 53.5372C207.868 55.9437 208.967 59.2416 208.967 63.3415V67.4712C208.967 71.5117 207.897 74.8392 205.758 77.3943C203.619 79.9196 200.856 81.1674 197.291 81.1674V81.1377Z" fill="#0093D2"/>
</g>
<g filter="url(#filter4_f_68_6752)">
<path d="M91.9469 33.899C94.8882 30.6012 96.3736 26.4715 96.3736 21.6585V17.618C96.3736 12.5376 94.8882 8.28906 91.9469 4.99126C88.9759 1.66375 85.2028 0 80.7166 0C76.2304 0 72.4869 1.66377 69.4862 4.96157C66.5152 8.25937 65 12.4187 65 17.3209V21.302C65 26.4418 66.5152 30.72 69.5159 33.9584C72.5166 37.2265 76.3194 38.8605 80.8353 38.8605C85.3512 38.8605 89.0353 37.1968 91.9765 33.899H91.9469ZM80.7166 3.86229C84.252 3.86229 87.0151 5.08041 89.1839 7.60575C91.3527 10.1311 92.4519 13.3992 92.4519 17.3209V21.3911C92.4519 25.4317 91.3824 28.7592 89.2433 31.2845C87.1339 33.7802 84.3114 35.028 80.8353 35.028C77.3593 35.028 74.3289 33.7504 72.1898 31.2251C70.0507 28.6998 68.9514 25.4911 68.9514 21.6882V17.7368C68.9514 13.5477 70.0804 10.1311 72.279 7.63546C74.4775 5.13983 77.3296 3.89201 80.7462 3.89201L80.7166 3.86229Z" fill="#0093D2"/>
<path d="M122.964 11.7356L120.439 9.98271C120.439 9.98271 120.231 9.89359 120.112 9.9233C119.993 9.9233 119.904 10.0124 119.845 10.1016L79.8848 74.067C79.766 74.2452 79.8254 74.5126 80.0036 74.6315L82.529 76.3843C82.529 76.3843 82.6776 76.4735 82.7667 76.4735C82.7667 76.4735 82.8261 76.4735 82.8558 76.4735C82.9747 76.4735 83.0638 76.3843 83.1232 76.2952L123.083 12.3001C123.202 12.1218 123.142 11.8544 122.964 11.7356Z" fill="#0093D2"/>
<path d="M134.403 51.0119C131.432 47.7438 127.658 46.0801 123.172 46.0801C118.686 46.0801 114.942 47.7438 111.971 51.0119C109.03 54.28 107.515 58.4097 107.515 63.3415V67.4415C107.515 72.611 109.03 76.8595 112.031 80.0979C115.032 83.366 118.834 85 123.291 85C127.747 85 131.432 83.3362 134.403 80.0682C137.374 76.8001 138.889 72.6407 138.889 67.7386V63.7575C138.889 58.5879 137.374 54.28 134.403 51.0119ZM123.291 81.1377C119.726 81.1377 116.814 79.8899 114.675 77.3943C112.536 74.8987 111.437 71.6603 111.437 67.7386V63.5495C111.437 59.3901 112.506 56.0329 114.616 53.5967C116.725 51.1605 119.577 49.9423 123.172 49.9423C126.767 49.9423 129.619 51.101 131.758 53.5372C133.868 55.9437 134.967 59.2416 134.967 63.3415V67.4712C134.967 71.5117 133.897 74.8392 131.758 77.3943C129.619 79.9196 126.856 81.1674 123.291 81.1674V81.1377Z" fill="#0093D2"/>
</g>
<g filter="url(#filter5_f_68_6752)">
<path d="M17.9469 33.899C20.8882 30.6012 22.3736 26.4715 22.3736 21.6585V17.618C22.3736 12.5376 20.8882 8.28906 17.9469 4.99126C14.9759 1.66375 11.2028 0 6.71656 0C2.23036 0 -1.51308 1.66377 -4.51378 4.96157C-7.48477 8.25937 -9 12.4187 -9 17.3209V21.302C-9 26.4418 -7.48483 30.72 -4.48413 33.9584C-1.48343 37.2265 2.31943 38.8605 6.83533 38.8605C11.3512 38.8605 15.0353 37.1968 17.9765 33.899H17.9469ZM6.71656 3.86229C10.252 3.86229 13.0151 5.08041 15.1839 7.60575C17.3527 10.1311 18.4519 13.3992 18.4519 17.3209V21.3911C18.4519 25.4317 17.3824 28.7592 15.2433 31.2845C13.1339 33.7802 10.3114 35.028 6.83533 35.028C3.35927 35.028 0.328945 33.7504 -1.81017 31.2251C-3.94928 28.6998 -5.04862 25.4911 -5.04862 21.6882V17.7368C-5.04862 13.5477 -3.91957 10.1311 -1.72104 7.63546C0.477491 5.13983 3.32957 3.89201 6.74621 3.89201L6.71656 3.86229Z" fill="#0093D2"/>
<path d="M48.9642 11.7356L46.4388 9.98271C46.4388 9.98271 46.2308 9.89359 46.112 9.9233C45.9931 9.9233 45.904 10.0124 45.8446 10.1016L5.88484 74.067C5.766 74.2452 5.82536 74.5126 6.00362 74.6315L8.52898 76.3843C8.52898 76.3843 8.67758 76.4735 8.76671 76.4735C8.76671 76.4735 8.82612 76.4735 8.85583 76.4735C8.97467 76.4735 9.06379 76.3843 9.12321 76.2952L49.083 12.3001C49.2018 12.1218 49.1424 11.8544 48.9642 11.7356Z" fill="#0093D2"/>
<path d="M60.4025 51.0119C57.4315 47.7438 53.6583 46.0801 49.1721 46.0801C44.6859 46.0801 40.9425 47.7438 37.9715 51.0119C35.0302 54.28 33.515 58.4097 33.515 63.3415V67.4415C33.515 72.611 35.0302 76.8595 38.0309 80.0979C41.0316 83.366 44.8345 85 49.291 85C53.7474 85 57.4315 83.3362 60.4025 80.0682C63.3735 76.8001 64.8887 72.6407 64.8887 67.7386V63.7575C64.8887 58.5879 63.3735 54.28 60.4025 51.0119ZM49.291 81.1377C45.7258 81.1377 42.8142 79.8899 40.6751 77.3943C38.536 74.8987 37.4367 71.6603 37.4367 67.7386V63.5495C37.4367 59.3901 38.5063 56.0329 40.6157 53.5967C42.7251 51.1605 45.5772 49.9423 49.1721 49.9423C52.767 49.9423 55.6192 51.101 57.7583 53.5372C59.8677 55.9437 60.9669 59.2416 60.9669 63.3415V67.4712C60.9669 71.5117 59.8974 74.8392 57.7583 77.3943C55.6192 79.9196 52.8561 81.1674 49.291 81.1674V81.1377Z" fill="#0093D2"/>
</g>
<g filter="url(#filter6_f_68_6752)">
<path d="M239.947 118.899C242.888 115.601 244.374 111.472 244.374 106.659V102.618C244.374 97.5376 242.888 93.2891 239.947 89.9913C236.976 86.6638 233.203 85 228.717 85C224.23 85 220.487 86.6638 217.486 89.9616C214.515 93.2594 213 97.4187 213 102.321V106.302C213 111.442 214.515 115.72 217.516 118.958C220.517 122.226 224.319 123.861 228.835 123.861C233.351 123.861 237.035 122.197 239.977 118.899H239.947ZM228.717 88.8623C232.252 88.8623 235.015 90.0804 237.184 92.6057C239.353 95.1311 240.452 98.3992 240.452 102.321V106.391C240.452 110.432 239.382 113.759 237.243 116.285C235.134 118.78 232.311 120.028 228.835 120.028C225.359 120.028 222.329 118.75 220.19 116.225C218.051 113.7 216.951 110.491 216.951 106.688V102.737C216.951 98.5477 218.08 95.1311 220.279 92.6355C222.477 90.1398 225.33 88.892 228.746 88.892L228.717 88.8623Z" fill="#0093D2"/>
<path d="M270.964 96.7356L268.439 94.9827C268.439 94.9827 268.231 94.8936 268.112 94.9233C267.993 94.9233 267.904 95.0124 267.845 95.1016L227.885 159.067C227.766 159.245 227.825 159.513 228.004 159.631L230.529 161.384C230.529 161.384 230.678 161.473 230.767 161.473C230.767 161.473 230.826 161.473 230.856 161.473C230.975 161.473 231.064 161.384 231.123 161.295L271.083 97.3001C271.202 97.1218 271.142 96.8544 270.964 96.7356Z" fill="#0093D2"/>
<path d="M282.403 136.012C279.432 132.744 275.658 131.08 271.172 131.08C266.686 131.08 262.942 132.744 259.971 136.012C257.03 139.28 255.515 143.41 255.515 148.342V152.441C255.515 157.611 257.03 161.86 260.031 165.098C263.032 168.366 266.834 170 271.291 170C275.747 170 279.432 168.336 282.403 165.068C285.374 161.8 286.889 157.641 286.889 152.739V148.757C286.889 143.588 285.374 139.28 282.403 136.012ZM271.291 166.138C267.726 166.138 264.814 164.89 262.675 162.394C260.536 159.899 259.437 156.66 259.437 152.739V148.549C259.437 144.39 260.506 141.033 262.616 138.597C264.725 136.16 267.577 134.942 271.172 134.942C274.767 134.942 277.619 136.101 279.758 138.537C281.868 140.944 282.967 144.242 282.967 148.342V152.471C282.967 156.512 281.897 159.839 279.758 162.394C277.619 164.92 274.856 166.167 271.291 166.167V166.138Z" fill="#0093D2"/>
</g>
<g filter="url(#filter7_f_68_6752)">
<path d="M165.947 118.899C168.888 115.601 170.374 111.472 170.374 106.659V102.618C170.374 97.5376 168.888 93.2891 165.947 89.9913C162.976 86.6638 159.203 85 154.717 85C150.23 85 146.487 86.6638 143.486 89.9616C140.515 93.2594 139 97.4187 139 102.321V106.302C139 111.442 140.515 115.72 143.516 118.958C146.517 122.226 150.319 123.861 154.835 123.861C159.351 123.861 163.035 122.197 165.977 118.899H165.947ZM154.717 88.8623C158.252 88.8623 161.015 90.0804 163.184 92.6057C165.353 95.1311 166.452 98.3992 166.452 102.321V106.391C166.452 110.432 165.382 113.759 163.243 116.285C161.134 118.78 158.311 120.028 154.835 120.028C151.359 120.028 148.329 118.75 146.19 116.225C144.051 113.7 142.951 110.491 142.951 106.688V102.737C142.951 98.5477 144.08 95.1311 146.279 92.6355C148.477 90.1398 151.33 88.892 154.746 88.892L154.717 88.8623Z" fill="#0093D2"/>
<path d="M196.964 96.7356L194.439 94.9827C194.439 94.9827 194.231 94.8936 194.112 94.9233C193.993 94.9233 193.904 95.0124 193.845 95.1016L153.885 159.067C153.766 159.245 153.825 159.513 154.004 159.631L156.529 161.384C156.529 161.384 156.678 161.473 156.767 161.473C156.767 161.473 156.826 161.473 156.856 161.473C156.975 161.473 157.064 161.384 157.123 161.295L197.083 97.3001C197.202 97.1218 197.142 96.8544 196.964 96.7356Z" fill="#0093D2"/>
<path d="M208.403 136.012C205.432 132.744 201.658 131.08 197.172 131.08C192.686 131.08 188.942 132.744 185.971 136.012C183.03 139.28 181.515 143.41 181.515 148.342V152.441C181.515 157.611 183.03 161.86 186.031 165.098C189.032 168.366 192.834 170 197.291 170C201.747 170 205.432 168.336 208.403 165.068C211.374 161.8 212.889 157.641 212.889 152.739V148.757C212.889 143.588 211.374 139.28 208.403 136.012ZM197.291 166.138C193.726 166.138 190.814 164.89 188.675 162.394C186.536 159.899 185.437 156.66 185.437 152.739V148.549C185.437 144.39 186.506 141.033 188.616 138.597C190.725 136.16 193.577 134.942 197.172 134.942C200.767 134.942 203.619 136.101 205.758 138.537C207.868 140.944 208.967 144.242 208.967 148.342V152.471C208.967 156.512 207.897 159.839 205.758 162.394C203.619 164.92 200.856 166.167 197.291 166.167V166.138Z" fill="#0093D2"/>
</g>
<g filter="url(#filter8_f_68_6752)">
<path d="M91.9469 118.899C94.8882 115.601 96.3736 111.472 96.3736 106.659V102.618C96.3736 97.5376 94.8882 93.2891 91.9469 89.9913C88.9759 86.6638 85.2028 85 80.7166 85C76.2304 85 72.4869 86.6638 69.4862 89.9616C66.5152 93.2594 65 97.4187 65 102.321V106.302C65 111.442 66.5152 115.72 69.5159 118.958C72.5166 122.226 76.3194 123.861 80.8353 123.861C85.3512 123.861 89.0353 122.197 91.9765 118.899H91.9469ZM80.7166 88.8623C84.252 88.8623 87.0151 90.0804 89.1839 92.6057C91.3527 95.1311 92.4519 98.3992 92.4519 102.321V106.391C92.4519 110.432 91.3824 113.759 89.2433 116.285C87.1339 118.78 84.3114 120.028 80.8353 120.028C77.3593 120.028 74.3289 118.75 72.1898 116.225C70.0507 113.7 68.9514 110.491 68.9514 106.688V102.737C68.9514 98.5477 70.0804 95.1311 72.279 92.6355C74.4775 90.1398 77.3296 88.892 80.7462 88.892L80.7166 88.8623Z" fill="#0093D2"/>
<path d="M122.964 96.7356L120.439 94.9827C120.439 94.9827 120.231 94.8936 120.112 94.9233C119.993 94.9233 119.904 95.0124 119.845 95.1016L79.8848 159.067C79.766 159.245 79.8254 159.513 80.0036 159.631L82.529 161.384C82.529 161.384 82.6776 161.473 82.7667 161.473C82.7667 161.473 82.8261 161.473 82.8558 161.473C82.9747 161.473 83.0638 161.384 83.1232 161.295L123.083 97.3001C123.202 97.1218 123.142 96.8544 122.964 96.7356Z" fill="#0093D2"/>
<path d="M134.403 136.012C131.432 132.744 127.658 131.08 123.172 131.08C118.686 131.08 114.942 132.744 111.971 136.012C109.03 139.28 107.515 143.41 107.515 148.342V152.441C107.515 157.611 109.03 161.86 112.031 165.098C115.032 168.366 118.834 170 123.291 170C127.747 170 131.432 168.336 134.403 165.068C137.374 161.8 138.889 157.641 138.889 152.739V148.757C138.889 143.588 137.374 139.28 134.403 136.012ZM123.291 166.138C119.726 166.138 116.814 164.89 114.675 162.394C112.536 159.899 111.437 156.66 111.437 152.739V148.549C111.437 144.39 112.506 141.033 114.616 138.597C116.725 136.16 119.577 134.942 123.172 134.942C126.767 134.942 129.619 136.101 131.758 138.537C133.868 140.944 134.967 144.242 134.967 148.342V152.471C134.967 156.512 133.897 159.839 131.758 162.394C129.619 164.92 126.856 166.167 123.291 166.167V166.138Z" fill="#0093D2"/>
</g>
<g filter="url(#filter9_f_68_6752)">
<path d="M17.9469 118.899C20.8882 115.601 22.3736 111.472 22.3736 106.659V102.618C22.3736 97.5376 20.8882 93.2891 17.9469 89.9913C14.9759 86.6638 11.2028 85 6.71656 85C2.23036 85 -1.51308 86.6638 -4.51378 89.9616C-7.48477 93.2594 -9 97.4187 -9 102.321V106.302C-9 111.442 -7.48483 115.72 -4.48413 118.958C-1.48343 122.226 2.31943 123.861 6.83533 123.861C11.3512 123.861 15.0353 122.197 17.9765 118.899H17.9469ZM6.71656 88.8623C10.252 88.8623 13.0151 90.0804 15.1839 92.6057C17.3527 95.1311 18.4519 98.3992 18.4519 102.321V106.391C18.4519 110.432 17.3824 113.759 15.2433 116.285C13.1339 118.78 10.3114 120.028 6.83533 120.028C3.35927 120.028 0.328945 118.75 -1.81017 116.225C-3.94928 113.7 -5.04862 110.491 -5.04862 106.688V102.737C-5.04862 98.5477 -3.91957 95.1311 -1.72104 92.6355C0.477491 90.1398 3.32957 88.892 6.74621 88.892L6.71656 88.8623Z" fill="#0093D2"/>
<path d="M48.9642 96.7356L46.4388 94.9827C46.4388 94.9827 46.2308 94.8936 46.112 94.9233C45.9931 94.9233 45.904 95.0124 45.8446 95.1016L5.88484 159.067C5.766 159.245 5.82536 159.513 6.00362 159.631L8.52898 161.384C8.52898 161.384 8.67758 161.473 8.76671 161.473C8.76671 161.473 8.82612 161.473 8.85583 161.473C8.97467 161.473 9.06379 161.384 9.12321 161.295L49.083 97.3001C49.2018 97.1218 49.1424 96.8544 48.9642 96.7356Z" fill="#0093D2"/>
<path d="M60.4025 136.012C57.4315 132.744 53.6583 131.08 49.1721 131.08C44.6859 131.08 40.9425 132.744 37.9715 136.012C35.0302 139.28 33.515 143.41 33.515 148.342V152.441C33.515 157.611 35.0302 161.86 38.0309 165.098C41.0316 168.366 44.8345 170 49.291 170C53.7474 170 57.4315 168.336 60.4025 165.068C63.3735 161.8 64.8887 157.641 64.8887 152.739V148.757C64.8887 143.588 63.3735 139.28 60.4025 136.012ZM49.291 166.138C45.7258 166.138 42.8142 164.89 40.6751 162.394C38.536 159.899 37.4367 156.66 37.4367 152.739V148.549C37.4367 144.39 38.5063 141.033 40.6157 138.597C42.7251 136.16 45.5772 134.942 49.1721 134.942C52.767 134.942 55.6192 136.101 57.7583 138.537C59.8677 140.944 60.9669 144.242 60.9669 148.342V152.471C60.9669 156.512 59.8974 159.839 57.7583 162.394C55.6192 164.92 52.8561 166.167 49.291 166.167V166.138Z" fill="#0093D2"/>
</g>
</g>
</g>
<defs>
<filter id="filter0_f_68_6752" x="283" y="81" width="81.8887" height="93" filterUnits="userSpaceOnUse" color-interpolation-filters="sRGB">
<feFlood flood-opacity="0" result="BackgroundImageFix"/>
<feBlend mode="normal" in="SourceGraphic" in2="BackgroundImageFix" result="shape"/>
<feGaussianBlur stdDeviation="2" result="effect1_foregroundBlur_68_6752"/>
</filter>
<filter id="filter1_f_68_6752" x="283" y="-4" width="81.8887" height="93" filterUnits="userSpaceOnUse" color-interpolation-filters="sRGB">
<feFlood flood-opacity="0" result="BackgroundImageFix"/>
<feBlend mode="normal" in="SourceGraphic" in2="BackgroundImageFix" result="shape"/>
<feGaussianBlur stdDeviation="2" result="effect1_foregroundBlur_68_6752"/>
</filter>
<filter id="filter2_f_68_6752" x="209" y="-4" width="81.8887" height="93" filterUnits="userSpaceOnUse" color-interpolation-filters="sRGB">
<feFlood flood-opacity="0" result="BackgroundImageFix"/>
<feBlend mode="normal" in="SourceGraphic" in2="BackgroundImageFix" result="shape"/>
<feGaussianBlur stdDeviation="2" result="effect1_foregroundBlur_68_6752"/>
</filter>
<filter id="filter3_f_68_6752" x="135" y="-4" width="81.8887" height="93" filterUnits="userSpaceOnUse" color-interpolation-filters="sRGB">
<feFlood flood-opacity="0" result="BackgroundImageFix"/>
<feBlend mode="normal" in="SourceGraphic" in2="BackgroundImageFix" result="shape"/>
<feGaussianBlur stdDeviation="2" result="effect1_foregroundBlur_68_6752"/>
</filter>
<filter id="filter4_f_68_6752" x="61" y="-4" width="81.8887" height="93" filterUnits="userSpaceOnUse" color-interpolation-filters="sRGB">
<feFlood flood-opacity="0" result="BackgroundImageFix"/>
<feBlend mode="normal" in="SourceGraphic" in2="BackgroundImageFix" result="shape"/>
<feGaussianBlur stdDeviation="2" result="effect1_foregroundBlur_68_6752"/>
</filter>
<filter id="filter5_f_68_6752" x="-13" y="-4" width="81.8887" height="93" filterUnits="userSpaceOnUse" color-interpolation-filters="sRGB">
<feFlood flood-opacity="0" result="BackgroundImageFix"/>
<feBlend mode="normal" in="SourceGraphic" in2="BackgroundImageFix" result="shape"/>
<feGaussianBlur stdDeviation="2" result="effect1_foregroundBlur_68_6752"/>
</filter>
<filter id="filter6_f_68_6752" x="209" y="81" width="81.8887" height="93" filterUnits="userSpaceOnUse" color-interpolation-filters="sRGB">
<feFlood flood-opacity="0" result="BackgroundImageFix"/>
<feBlend mode="normal" in="SourceGraphic" in2="BackgroundImageFix" result="shape"/>
<feGaussianBlur stdDeviation="2" result="effect1_foregroundBlur_68_6752"/>
</filter>
<filter id="filter7_f_68_6752" x="135" y="81" width="81.8887" height="93" filterUnits="userSpaceOnUse" color-interpolation-filters="sRGB">
<feFlood flood-opacity="0" result="BackgroundImageFix"/>
<feBlend mode="normal" in="SourceGraphic" in2="BackgroundImageFix" result="shape"/>
<feGaussianBlur stdDeviation="2" result="effect1_foregroundBlur_68_6752"/>
</filter>
<filter id="filter8_f_68_6752" x="61" y="81" width="81.8887" height="93" filterUnits="userSpaceOnUse" color-interpolation-filters="sRGB">
<feFlood flood-opacity="0" result="BackgroundImageFix"/>
<feBlend mode="normal" in="SourceGraphic" in2="BackgroundImageFix" result="shape"/>
<feGaussianBlur stdDeviation="2" result="effect1_foregroundBlur_68_6752"/>
</filter>
<filter id="filter9_f_68_6752" x="-13" y="81" width="81.8887" height="93" filterUnits="userSpaceOnUse" color-interpolation-filters="sRGB">
<feFlood flood-opacity="0" result="BackgroundImageFix"/>
<feBlend mode="normal" in="SourceGraphic" in2="BackgroundImageFix" result="shape"/>
<feGaussianBlur stdDeviation="2" result="effect1_foregroundBlur_68_6752"/>
</filter>
<clipPath id="clip0_68_6752">
<rect width="352" height="170" fill="white"/>
</clipPath>
</defs>
</svg>
